G04 #@! TF.GenerationSoftware,KiCad,Pcbnew,(6.0.8)*
G04 #@! TF.CreationDate,2022-12-02T13:55:40+01:00*
G04 #@! TF.ProjectId,xy-systeem,78792d73-7973-4746-9565-6d2e6b696361,rev?*
G04 #@! TF.SameCoordinates,Original*
G04 #@! TF.FileFunction,Legend,Bot*
G04 #@! TF.FilePolarity,Positive*
%FSLAX46Y46*%
G04 Gerber Fmt 4.6, Leading zero omitted, Abs format (unit mm)*
G04 Created by KiCad (PCBNEW (6.0.8)) date 2022-12-02 13:55:40*
%MOMM*%
%LPD*%
G01*
G04 APERTURE LIST*
%ADD10C,5.000000*%
%ADD11R,2.200000X2.200000*%
%ADD12O,2.200000X2.200000*%
%ADD13R,1.600000X1.600000*%
%ADD14C,1.600000*%
%ADD15R,1.700000X1.700000*%
%ADD16O,1.700000X1.700000*%
%ADD17R,3.000000X3.000000*%
%ADD18C,3.000000*%
%ADD19C,1.665000*%
%ADD20R,1.665000X1.665000*%
G04 APERTURE END LIST*
%LPC*%
D10*
X168910000Y-137160000D03*
D11*
X138430000Y-106680000D03*
D12*
X148590000Y-106680000D03*
D10*
X118110000Y-71120000D03*
D13*
X125730000Y-119380000D03*
D14*
X129230000Y-119380000D03*
D15*
X137013682Y-71541861D03*
D16*
X139553682Y-71541861D03*
X142093682Y-71541861D03*
X144633682Y-71541861D03*
X147173682Y-71541861D03*
X149713682Y-71541861D03*
D17*
X123190000Y-91440000D03*
D18*
X123190000Y-96520000D03*
X123190000Y-101600000D03*
X123190000Y-106680000D03*
D19*
X132080000Y-91260000D03*
X132080000Y-88720000D03*
X132080000Y-86180000D03*
X132080000Y-83640000D03*
X132080000Y-81100000D03*
X132080000Y-78560000D03*
X132080000Y-76020000D03*
D20*
X132080000Y-73480000D03*
X154940000Y-73480000D03*
D19*
X154940000Y-76020000D03*
X154940000Y-78560000D03*
X154940000Y-81100000D03*
X154940000Y-83640000D03*
X154940000Y-86180000D03*
X154940000Y-88720000D03*
X154940000Y-91260000D03*
D10*
X118110000Y-137160000D03*
D17*
X140970000Y-133350000D03*
D18*
X146050000Y-133350000D03*
D13*
X147320000Y-123190000D03*
D14*
X149820000Y-123190000D03*
D13*
X140180000Y-123190000D03*
D14*
X136680000Y-123190000D03*
D10*
X168910000Y-71120000D03*
D13*
X160020000Y-119380000D03*
D14*
X163520000Y-119380000D03*
D17*
X163830000Y-106680000D03*
D18*
X163830000Y-101600000D03*
X163830000Y-96520000D03*
X163830000Y-91440000D03*
M02*
