G04 #@! TF.GenerationSoftware,KiCad,Pcbnew,(6.0.8)*
G04 #@! TF.CreationDate,2022-12-02T13:55:39+01:00*
G04 #@! TF.ProjectId,xy-systeem,78792d73-7973-4746-9565-6d2e6b696361,rev?*
G04 #@! TF.SameCoordinates,Original*
G04 #@! TF.FileFunction,Copper,L2,Bot*
G04 #@! TF.FilePolarity,Positive*
%FSLAX46Y46*%
G04 Gerber Fmt 4.6, Leading zero omitted, Abs format (unit mm)*
G04 Created by KiCad (PCBNEW (6.0.8)) date 2022-12-02 13:55:39*
%MOMM*%
%LPD*%
G01*
G04 APERTURE LIST*
G04 #@! TA.AperFunction,ComponentPad*
%ADD10C,5.000000*%
G04 #@! TD*
G04 #@! TA.AperFunction,ComponentPad*
%ADD11R,2.200000X2.200000*%
G04 #@! TD*
G04 #@! TA.AperFunction,ComponentPad*
%ADD12O,2.200000X2.200000*%
G04 #@! TD*
G04 #@! TA.AperFunction,ComponentPad*
%ADD13R,1.600000X1.600000*%
G04 #@! TD*
G04 #@! TA.AperFunction,ComponentPad*
%ADD14C,1.600000*%
G04 #@! TD*
G04 #@! TA.AperFunction,ComponentPad*
%ADD15R,1.700000X1.700000*%
G04 #@! TD*
G04 #@! TA.AperFunction,ComponentPad*
%ADD16O,1.700000X1.700000*%
G04 #@! TD*
G04 #@! TA.AperFunction,ComponentPad*
%ADD17R,3.000000X3.000000*%
G04 #@! TD*
G04 #@! TA.AperFunction,ComponentPad*
%ADD18C,3.000000*%
G04 #@! TD*
G04 #@! TA.AperFunction,ComponentPad*
%ADD19C,1.665000*%
G04 #@! TD*
G04 #@! TA.AperFunction,ComponentPad*
%ADD20R,1.665000X1.665000*%
G04 #@! TD*
G04 #@! TA.AperFunction,ViaPad*
%ADD21C,0.800000*%
G04 #@! TD*
G04 #@! TA.AperFunction,Conductor*
%ADD22C,0.250000*%
G04 #@! TD*
G04 APERTURE END LIST*
D10*
X168910000Y-137160000D03*
D11*
X138430000Y-106680000D03*
D12*
X148590000Y-106680000D03*
D10*
X118110000Y-71120000D03*
D13*
X125730000Y-119380000D03*
D14*
X129230000Y-119380000D03*
D15*
X137013682Y-71541861D03*
D16*
X139553682Y-71541861D03*
X142093682Y-71541861D03*
X144633682Y-71541861D03*
X147173682Y-71541861D03*
X149713682Y-71541861D03*
D17*
X123190000Y-91440000D03*
D18*
X123190000Y-96520000D03*
X123190000Y-101600000D03*
X123190000Y-106680000D03*
D19*
X132080000Y-91260000D03*
X132080000Y-88720000D03*
X132080000Y-86180000D03*
X132080000Y-83640000D03*
X132080000Y-81100000D03*
X132080000Y-78560000D03*
X132080000Y-76020000D03*
D20*
X132080000Y-73480000D03*
X154940000Y-73480000D03*
D19*
X154940000Y-76020000D03*
X154940000Y-78560000D03*
X154940000Y-81100000D03*
X154940000Y-83640000D03*
X154940000Y-86180000D03*
X154940000Y-88720000D03*
X154940000Y-91260000D03*
D10*
X118110000Y-137160000D03*
D17*
X140970000Y-133350000D03*
D18*
X146050000Y-133350000D03*
D13*
X147320000Y-123190000D03*
D14*
X149820000Y-123190000D03*
D13*
X140180000Y-123190000D03*
D14*
X136680000Y-123190000D03*
D10*
X168910000Y-71120000D03*
D13*
X160020000Y-119380000D03*
D14*
X163520000Y-119380000D03*
D17*
X163830000Y-106680000D03*
D18*
X163830000Y-101600000D03*
X163830000Y-96520000D03*
X163830000Y-91440000D03*
D21*
X130764126Y-114904206D03*
X132080000Y-116840000D03*
X129540000Y-114300000D03*
X123190000Y-114300000D03*
X124460000Y-124460000D03*
X166420610Y-115709120D03*
X167640000Y-125730000D03*
X168910000Y-99060000D03*
X143500000Y-117000000D03*
X163830000Y-124460000D03*
X129540000Y-132080000D03*
X125730000Y-124460000D03*
X160020000Y-123190000D03*
X129540000Y-124460000D03*
X159000000Y-132080000D03*
X130810000Y-132080000D03*
X154940000Y-111760000D03*
X154940000Y-119380000D03*
X165100000Y-132080000D03*
X143500000Y-85500000D03*
X157480000Y-111760000D03*
X154940000Y-123190000D03*
X166370000Y-133350000D03*
X161000000Y-132000000D03*
X134620000Y-130810000D03*
X133954599Y-110045401D03*
X143000000Y-109500000D03*
X139700000Y-86360000D03*
X133954599Y-94584599D03*
X151000000Y-90500000D03*
D22*
X130764126Y-114904206D02*
X130764126Y-96474126D01*
X130764126Y-96474126D02*
X125730000Y-91440000D01*
X125730000Y-91440000D02*
X123190000Y-91440000D01*
X124460000Y-110490000D02*
X121920000Y-110490000D01*
X120650000Y-109220000D02*
X120650000Y-97790000D01*
X120650000Y-97790000D02*
X121920000Y-96520000D01*
X121920000Y-110490000D02*
X120650000Y-109220000D01*
X132080000Y-116840000D02*
X130810000Y-116840000D01*
X130810000Y-116840000D02*
X124460000Y-110490000D01*
X121920000Y-96520000D02*
X123190000Y-96520000D01*
X129540000Y-107950000D02*
X123190000Y-101600000D01*
X129540000Y-114300000D02*
X129540000Y-107950000D01*
X124460000Y-115570000D02*
X123190000Y-114300000D01*
X124460000Y-124460000D02*
X124460000Y-115570000D01*
X163830000Y-113118510D02*
X166420610Y-115709120D01*
X163830000Y-106680000D02*
X163830000Y-113118510D01*
X167640000Y-105410000D02*
X167640000Y-125730000D01*
X163830000Y-101600000D02*
X167640000Y-105410000D01*
X166370000Y-96520000D02*
X168910000Y-99060000D01*
X163830000Y-96520000D02*
X166370000Y-96520000D01*
X154940000Y-81100000D02*
X157500000Y-78540000D01*
X152400000Y-83640000D02*
X154940000Y-81100000D01*
X148350000Y-69850000D02*
X139700000Y-69850000D01*
X130520000Y-76020000D02*
X132080000Y-76020000D01*
X157500000Y-72000000D02*
X156000000Y-70500000D01*
X153490000Y-91260000D02*
X152400000Y-90170000D01*
X147165000Y-116835000D02*
X147165000Y-116335000D01*
X151200000Y-70500000D02*
X149700000Y-72000000D01*
X154940000Y-91260000D02*
X147165000Y-99035000D01*
X131650000Y-69850000D02*
X130000000Y-71500000D01*
X139553682Y-69996318D02*
X139700000Y-69850000D01*
X147165000Y-99035000D02*
X147165000Y-116335000D01*
X149700000Y-71200000D02*
X148350000Y-69850000D01*
X152400000Y-90170000D02*
X152400000Y-83640000D01*
X149700000Y-72000000D02*
X149700000Y-71200000D01*
X147000000Y-117000000D02*
X147165000Y-116835000D01*
X156000000Y-70500000D02*
X151200000Y-70500000D01*
X139553682Y-71541861D02*
X139553682Y-69996318D01*
X149820000Y-121990000D02*
X149820000Y-123190000D01*
X154940000Y-91260000D02*
X153490000Y-91260000D01*
X157500000Y-78540000D02*
X157500000Y-72000000D01*
X147165000Y-119335000D02*
X149820000Y-121990000D01*
X147165000Y-116335000D02*
X147165000Y-119335000D01*
X143500000Y-117000000D02*
X147000000Y-117000000D01*
X139700000Y-69850000D02*
X131650000Y-69850000D01*
X130000000Y-71500000D02*
X130000000Y-75500000D01*
X130000000Y-75500000D02*
X130520000Y-76020000D01*
X160020000Y-119380000D02*
X160020000Y-123190000D01*
X129540000Y-124460000D02*
X125730000Y-124460000D01*
X159469348Y-132080000D02*
X160020000Y-131529348D01*
X148590000Y-106680000D02*
X160020000Y-118110000D01*
X157730000Y-133350000D02*
X146050000Y-133350000D01*
X125730000Y-119380000D02*
X125730000Y-124460000D01*
X125730000Y-124460000D02*
X125730000Y-131583017D01*
X125730000Y-131583017D02*
X126226983Y-132080000D01*
X162560000Y-123190000D02*
X163830000Y-124460000D01*
X160020000Y-131529348D02*
X160020000Y-123190000D01*
X160020000Y-123190000D02*
X162560000Y-123190000D01*
X146050000Y-133350000D02*
X144225000Y-135175000D01*
X159000000Y-132080000D02*
X157730000Y-133350000D01*
X144225000Y-135175000D02*
X132635000Y-135175000D01*
X159000000Y-132080000D02*
X159469348Y-132080000D01*
X126226983Y-132080000D02*
X129540000Y-132080000D01*
X132635000Y-135175000D02*
X129540000Y-132080000D01*
X160020000Y-118110000D02*
X160020000Y-119380000D01*
X149701813Y-126743827D02*
X154940000Y-121505640D01*
X165100000Y-132080000D02*
X165100000Y-122550991D01*
X142080000Y-84080000D02*
X143500000Y-85500000D01*
X165100000Y-122550991D02*
X164469009Y-121920000D01*
X162560000Y-121920000D02*
X161810375Y-121170375D01*
X161810375Y-121170375D02*
X161810375Y-120708525D01*
X136146173Y-126743827D02*
X149701813Y-126743827D01*
X164469009Y-121920000D02*
X162560000Y-121920000D01*
X161810375Y-118630375D02*
X154940000Y-111760000D01*
X161810375Y-120708525D02*
X161810375Y-118630375D01*
X130810000Y-132080000D02*
X136146173Y-126743827D01*
X142080000Y-72000000D02*
X142080000Y-84080000D01*
X154940000Y-121505640D02*
X154940000Y-119380000D01*
X134620000Y-130810000D02*
X147320000Y-130810000D01*
X166370000Y-120639009D02*
X157480000Y-111749009D01*
X164350000Y-133350000D02*
X166370000Y-133350000D01*
X161000000Y-132000000D02*
X163000000Y-132000000D01*
X163000000Y-132000000D02*
X164350000Y-133350000D01*
X147320000Y-130810000D02*
X154940000Y-123190000D01*
X166370000Y-133350000D02*
X166370000Y-120639009D01*
X133954599Y-92105401D02*
X139700000Y-86360000D01*
X143000000Y-109500000D02*
X134500000Y-109500000D01*
X134500000Y-109500000D02*
X133954599Y-110045401D01*
X133954599Y-94584599D02*
X133954599Y-92105401D01*
X144620000Y-72000000D02*
X144620000Y-86120000D01*
X149000000Y-90500000D02*
X151000000Y-90500000D01*
X144620000Y-86120000D02*
X149000000Y-90500000D01*
G04 #@! TA.AperFunction,Conductor*
G36*
X172661121Y-67331002D02*
G01*
X172707614Y-67384658D01*
X172719000Y-67437000D01*
X172719000Y-140843000D01*
X172698998Y-140911121D01*
X172645342Y-140957614D01*
X172593000Y-140969000D01*
X114427000Y-140969000D01*
X114358879Y-140948998D01*
X114312386Y-140895342D01*
X114301000Y-140843000D01*
X114301000Y-137131669D01*
X115404712Y-137131669D01*
X115420902Y-137456879D01*
X115421543Y-137460610D01*
X115421544Y-137460618D01*
X115436030Y-137544916D01*
X115476045Y-137777789D01*
X115477133Y-137781428D01*
X115477134Y-137781431D01*
X115500697Y-137860218D01*
X115569341Y-138089749D01*
X115699439Y-138388242D01*
X115864455Y-138668944D01*
X115866756Y-138671959D01*
X116059698Y-138924775D01*
X116059703Y-138924781D01*
X116061998Y-138927788D01*
X116289208Y-139161025D01*
X116542792Y-139365276D01*
X116819078Y-139537583D01*
X117114063Y-139675451D01*
X117423474Y-139776881D01*
X117742830Y-139840405D01*
X117746602Y-139840692D01*
X117746610Y-139840693D01*
X118063728Y-139864815D01*
X118063733Y-139864815D01*
X118067505Y-139865102D01*
X118392795Y-139850615D01*
X118713989Y-139797154D01*
X119026434Y-139705493D01*
X119325604Y-139576959D01*
X119328882Y-139575055D01*
X119328888Y-139575052D01*
X119492708Y-139479897D01*
X119607165Y-139413415D01*
X119867040Y-139217230D01*
X120101464Y-138991245D01*
X120103862Y-138988300D01*
X120304643Y-138741678D01*
X120304647Y-138741672D01*
X120307040Y-138738733D01*
X120480792Y-138463354D01*
X120620202Y-138169095D01*
X120723251Y-137860218D01*
X120788446Y-137541199D01*
X120814843Y-137216658D01*
X120815436Y-137160000D01*
X120813728Y-137131669D01*
X166204712Y-137131669D01*
X166220902Y-137456879D01*
X166221543Y-137460610D01*
X166221544Y-137460618D01*
X166236030Y-137544916D01*
X166276045Y-137777789D01*
X166277133Y-137781428D01*
X166277134Y-137781431D01*
X166300697Y-137860218D01*
X166369341Y-138089749D01*
X166499439Y-138388242D01*
X166664455Y-138668944D01*
X166666756Y-138671959D01*
X166859698Y-138924775D01*
X166859703Y-138924781D01*
X166861998Y-138927788D01*
X167089208Y-139161025D01*
X167342792Y-139365276D01*
X167619078Y-139537583D01*
X167914063Y-139675451D01*
X168223474Y-139776881D01*
X168542830Y-139840405D01*
X168546602Y-139840692D01*
X168546610Y-139840693D01*
X168863728Y-139864815D01*
X168863733Y-139864815D01*
X168867505Y-139865102D01*
X169192795Y-139850615D01*
X169513989Y-139797154D01*
X169826434Y-139705493D01*
X170125604Y-139576959D01*
X170128882Y-139575055D01*
X170128888Y-139575052D01*
X170292708Y-139479897D01*
X170407165Y-139413415D01*
X170667040Y-139217230D01*
X170901464Y-138991245D01*
X170903862Y-138988300D01*
X171104643Y-138741678D01*
X171104647Y-138741672D01*
X171107040Y-138738733D01*
X171280792Y-138463354D01*
X171420202Y-138169095D01*
X171523251Y-137860218D01*
X171588446Y-137541199D01*
X171614843Y-137216658D01*
X171615436Y-137160000D01*
X171595841Y-136834977D01*
X171591399Y-136810651D01*
X171538025Y-136518404D01*
X171537342Y-136514663D01*
X171440784Y-136203696D01*
X171307567Y-135906582D01*
X171139621Y-135627624D01*
X171137294Y-135624640D01*
X171137289Y-135624633D01*
X170941713Y-135373858D01*
X170941711Y-135373856D01*
X170939377Y-135370863D01*
X170709738Y-135140018D01*
X170600916Y-135054229D01*
X170457010Y-134940783D01*
X170454029Y-134938433D01*
X170175954Y-134769029D01*
X170057453Y-134715150D01*
X169882994Y-134635827D01*
X169882986Y-134635824D01*
X169879542Y-134634258D01*
X169569085Y-134536073D01*
X169427071Y-134509368D01*
X169252805Y-134476597D01*
X169252800Y-134476596D01*
X169249081Y-134475897D01*
X168924166Y-134454601D01*
X168920386Y-134454809D01*
X168920385Y-134454809D01*
X168823156Y-134460160D01*
X168599045Y-134472494D01*
X168595318Y-134473155D01*
X168595314Y-134473155D01*
X168336625Y-134519001D01*
X168278429Y-134529315D01*
X168274804Y-134530420D01*
X168274799Y-134530421D01*
X168147229Y-134569302D01*
X167966961Y-134624244D01*
X167963497Y-134625775D01*
X167963490Y-134625778D01*
X167779938Y-134706926D01*
X167669153Y-134755903D01*
X167665899Y-134757839D01*
X167665893Y-134757842D01*
X167407358Y-134911654D01*
X167389319Y-134922386D01*
X167386318Y-134924701D01*
X167386314Y-134924704D01*
X167294394Y-134995620D01*
X167131513Y-135121282D01*
X167128812Y-135123941D01*
X167128805Y-135123947D01*
X166902177Y-135347044D01*
X166899469Y-135349710D01*
X166897105Y-135352677D01*
X166897102Y-135352680D01*
X166776311Y-135504264D01*
X166696548Y-135604360D01*
X166525690Y-135881544D01*
X166389369Y-136177247D01*
X166388210Y-136180848D01*
X166388207Y-136180854D01*
X166379682Y-136207327D01*
X166289560Y-136487185D01*
X166288841Y-136490901D01*
X166288839Y-136490909D01*
X166228428Y-136803151D01*
X166228427Y-136803160D01*
X166227709Y-136806870D01*
X166227442Y-136810646D01*
X166227441Y-136810651D01*
X166225719Y-136834977D01*
X166204712Y-137131669D01*
X120813728Y-137131669D01*
X120795841Y-136834977D01*
X120791399Y-136810651D01*
X120738025Y-136518404D01*
X120737342Y-136514663D01*
X120640784Y-136203696D01*
X120507567Y-135906582D01*
X120339621Y-135627624D01*
X120337294Y-135624640D01*
X120337289Y-135624633D01*
X120141713Y-135373858D01*
X120141711Y-135373856D01*
X120139377Y-135370863D01*
X119909738Y-135140018D01*
X119800916Y-135054229D01*
X119657010Y-134940783D01*
X119654029Y-134938433D01*
X119375954Y-134769029D01*
X119257453Y-134715150D01*
X119082994Y-134635827D01*
X119082986Y-134635824D01*
X119079542Y-134634258D01*
X118769085Y-134536073D01*
X118627071Y-134509368D01*
X118452805Y-134476597D01*
X118452800Y-134476596D01*
X118449081Y-134475897D01*
X118124166Y-134454601D01*
X118120386Y-134454809D01*
X118120385Y-134454809D01*
X118023156Y-134460160D01*
X117799045Y-134472494D01*
X117795318Y-134473155D01*
X117795314Y-134473155D01*
X117536625Y-134519001D01*
X117478429Y-134529315D01*
X117474804Y-134530420D01*
X117474799Y-134530421D01*
X117347229Y-134569302D01*
X117166961Y-134624244D01*
X117163497Y-134625775D01*
X117163490Y-134625778D01*
X116979938Y-134706926D01*
X116869153Y-134755903D01*
X116865899Y-134757839D01*
X116865893Y-134757842D01*
X116607358Y-134911654D01*
X116589319Y-134922386D01*
X116586318Y-134924701D01*
X116586314Y-134924704D01*
X116494394Y-134995620D01*
X116331513Y-135121282D01*
X116328812Y-135123941D01*
X116328805Y-135123947D01*
X116102177Y-135347044D01*
X116099469Y-135349710D01*
X116097105Y-135352677D01*
X116097102Y-135352680D01*
X115976311Y-135504264D01*
X115896548Y-135604360D01*
X115725690Y-135881544D01*
X115589369Y-136177247D01*
X115588210Y-136180848D01*
X115588207Y-136180854D01*
X115579682Y-136207327D01*
X115489560Y-136487185D01*
X115488841Y-136490901D01*
X115488839Y-136490909D01*
X115428428Y-136803151D01*
X115428427Y-136803160D01*
X115427709Y-136806870D01*
X115427442Y-136810646D01*
X115427441Y-136810651D01*
X115425719Y-136834977D01*
X115404712Y-137131669D01*
X114301000Y-137131669D01*
X114301000Y-114300000D01*
X122584318Y-114300000D01*
X122604956Y-114456762D01*
X122665464Y-114602841D01*
X122761718Y-114728282D01*
X122887159Y-114824536D01*
X123033238Y-114885044D01*
X123190000Y-114905682D01*
X123256842Y-114896882D01*
X123326989Y-114907821D01*
X123362383Y-114932709D01*
X124097596Y-115667923D01*
X124131621Y-115730235D01*
X124134500Y-115757018D01*
X124134500Y-123890714D01*
X124114498Y-123958835D01*
X124085204Y-123990677D01*
X124031718Y-124031718D01*
X123935464Y-124157159D01*
X123874956Y-124303238D01*
X123854318Y-124460000D01*
X123874956Y-124616762D01*
X123935464Y-124762841D01*
X124031718Y-124888282D01*
X124157159Y-124984536D01*
X124303238Y-125045044D01*
X124460000Y-125065682D01*
X124468188Y-125064604D01*
X124608574Y-125046122D01*
X124616762Y-125045044D01*
X124762841Y-124984536D01*
X124888282Y-124888282D01*
X124984536Y-124762841D01*
X124986728Y-124757550D01*
X125037262Y-124709364D01*
X125106975Y-124695926D01*
X125172886Y-124722312D01*
X125203137Y-124757224D01*
X125205464Y-124762841D01*
X125301718Y-124888282D01*
X125308264Y-124893305D01*
X125355204Y-124929323D01*
X125397071Y-124986661D01*
X125404500Y-125029286D01*
X125404500Y-131563307D01*
X125404020Y-131574289D01*
X125401782Y-131599872D01*
X125400736Y-131611824D01*
X125410080Y-131646695D01*
X125410491Y-131648227D01*
X125412870Y-131658959D01*
X125419412Y-131696062D01*
X125424923Y-131705607D01*
X125426115Y-131708883D01*
X125427592Y-131712051D01*
X125430446Y-131722701D01*
X125437235Y-131732396D01*
X125452055Y-131753561D01*
X125457961Y-131762832D01*
X125465379Y-131775680D01*
X125476806Y-131795472D01*
X125503282Y-131817688D01*
X125505682Y-131819702D01*
X125513785Y-131827128D01*
X125982872Y-132296215D01*
X125990298Y-132304318D01*
X126014528Y-132333194D01*
X126024077Y-132338707D01*
X126047168Y-132352039D01*
X126056439Y-132357945D01*
X126087299Y-132379554D01*
X126097950Y-132382408D01*
X126101123Y-132383888D01*
X126104395Y-132385079D01*
X126113938Y-132390588D01*
X126151059Y-132397134D01*
X126161766Y-132399508D01*
X126198176Y-132409263D01*
X126209151Y-132408303D01*
X126209153Y-132408303D01*
X126235714Y-132405979D01*
X126246695Y-132405500D01*
X128970714Y-132405500D01*
X129038835Y-132425502D01*
X129070677Y-132454796D01*
X129111718Y-132508282D01*
X129237159Y-132604536D01*
X129383238Y-132665044D01*
X129540000Y-132685682D01*
X129606843Y-132676882D01*
X129676990Y-132687821D01*
X129712383Y-132712709D01*
X132390889Y-135391215D01*
X132398315Y-135399318D01*
X132422545Y-135428194D01*
X132432094Y-135433707D01*
X132455185Y-135447039D01*
X132464456Y-135452945D01*
X132495316Y-135474554D01*
X132505966Y-135477408D01*
X132509134Y-135478885D01*
X132512410Y-135480077D01*
X132521955Y-135485588D01*
X132555699Y-135491538D01*
X132559058Y-135492130D01*
X132569785Y-135494508D01*
X132606193Y-135504264D01*
X132617178Y-135503303D01*
X132617180Y-135503303D01*
X132643728Y-135500980D01*
X132654710Y-135500500D01*
X144205290Y-135500500D01*
X144216272Y-135500980D01*
X144242820Y-135503303D01*
X144242822Y-135503303D01*
X144253807Y-135504264D01*
X144290215Y-135494508D01*
X144300942Y-135492130D01*
X144304301Y-135491538D01*
X144338045Y-135485588D01*
X144347590Y-135480077D01*
X144350866Y-135478885D01*
X144354034Y-135477408D01*
X144364684Y-135474554D01*
X144395544Y-135452945D01*
X144404815Y-135447039D01*
X144427906Y-135433707D01*
X144437455Y-135428194D01*
X144461685Y-135399317D01*
X144469111Y-135391215D01*
X145026878Y-134833448D01*
X145089190Y-134799422D01*
X145160005Y-134804487D01*
X145174631Y-134811031D01*
X145370026Y-134913833D01*
X145608644Y-134997162D01*
X145613237Y-134998034D01*
X145852369Y-135043435D01*
X145852372Y-135043435D01*
X145856958Y-135044306D01*
X145977081Y-135049026D01*
X146104845Y-135054046D01*
X146104850Y-135054046D01*
X146109513Y-135054229D01*
X146187657Y-135045671D01*
X146356107Y-135027223D01*
X146356112Y-135027222D01*
X146360760Y-135026713D01*
X146478861Y-134995620D01*
X146600658Y-134963554D01*
X146600661Y-134963553D01*
X146605181Y-134962363D01*
X146837405Y-134862591D01*
X146944774Y-134796149D01*
X147048358Y-134732050D01*
X147048362Y-134732047D01*
X147052331Y-134729591D01*
X147245238Y-134566283D01*
X147324505Y-134475897D01*
X147408806Y-134379771D01*
X147408810Y-134379766D01*
X147411888Y-134376256D01*
X147422565Y-134359657D01*
X147546094Y-134167610D01*
X147546096Y-134167607D01*
X147548619Y-134163684D01*
X147652428Y-133933236D01*
X147696129Y-133778282D01*
X147699227Y-133767299D01*
X147736968Y-133707165D01*
X147801230Y-133676982D01*
X147820496Y-133675500D01*
X157710290Y-133675500D01*
X157721272Y-133675980D01*
X157747820Y-133678303D01*
X157747822Y-133678303D01*
X157758807Y-133679264D01*
X157795215Y-133669508D01*
X157805942Y-133667130D01*
X157809301Y-133666538D01*
X157843045Y-133660588D01*
X157852590Y-133655077D01*
X157855866Y-133653885D01*
X157859034Y-133652408D01*
X157869684Y-133649554D01*
X157900550Y-133627941D01*
X157909815Y-133622039D01*
X157932910Y-133608705D01*
X157932911Y-133608704D01*
X157942455Y-133603194D01*
X157966685Y-133574319D01*
X157974110Y-133566217D01*
X158827618Y-132712709D01*
X158889930Y-132678683D01*
X158933158Y-132676882D01*
X159000000Y-132685682D01*
X159008188Y-132684604D01*
X159148574Y-132666122D01*
X159156762Y-132665044D01*
X159302841Y-132604536D01*
X159402981Y-132527696D01*
X159421731Y-132513309D01*
X159421732Y-132513308D01*
X159428282Y-132508282D01*
X159478779Y-132442472D01*
X159536117Y-132400604D01*
X159556862Y-132395090D01*
X159563267Y-132393960D01*
X159571539Y-132392502D01*
X159571540Y-132392502D01*
X159582393Y-132390588D01*
X159591937Y-132385078D01*
X159595214Y-132383885D01*
X159598382Y-132382408D01*
X159609032Y-132379554D01*
X159639892Y-132357945D01*
X159649163Y-132352039D01*
X159672254Y-132338707D01*
X159681803Y-132333194D01*
X159706033Y-132304317D01*
X159713459Y-132296215D01*
X160190169Y-131819505D01*
X160252481Y-131785479D01*
X160323296Y-131790544D01*
X160380132Y-131833091D01*
X160404943Y-131899611D01*
X160404186Y-131925044D01*
X160394318Y-132000000D01*
X160414956Y-132156762D01*
X160475464Y-132302841D01*
X160571718Y-132428282D01*
X160697159Y-132524536D01*
X160843238Y-132585044D01*
X161000000Y-132605682D01*
X161008188Y-132604604D01*
X161148574Y-132586122D01*
X161156762Y-132585044D01*
X161302841Y-132524536D01*
X161428282Y-132428282D01*
X161469323Y-132374796D01*
X161526661Y-132332929D01*
X161569286Y-132325500D01*
X162812984Y-132325500D01*
X162881105Y-132345502D01*
X162902079Y-132362405D01*
X163514877Y-132975204D01*
X164105895Y-133566222D01*
X164113316Y-133574319D01*
X164137545Y-133603194D01*
X164147088Y-133608704D01*
X164147092Y-133608707D01*
X164170179Y-133622036D01*
X164179448Y-133627940D01*
X164210316Y-133649554D01*
X164220964Y-133652407D01*
X164224135Y-133653886D01*
X164227411Y-133655078D01*
X164236955Y-133660588D01*
X164274076Y-133667134D01*
X164284783Y-133669508D01*
X164321193Y-133679263D01*
X164332168Y-133678303D01*
X164332170Y-133678303D01*
X164358731Y-133675979D01*
X164369712Y-133675500D01*
X165800714Y-133675500D01*
X165868835Y-133695502D01*
X165900677Y-133724796D01*
X165941718Y-133778282D01*
X166067159Y-133874536D01*
X166213238Y-133935044D01*
X166221426Y-133936122D01*
X166291619Y-133945363D01*
X166370000Y-133955682D01*
X166378188Y-133954604D01*
X166518574Y-133936122D01*
X166526762Y-133935044D01*
X166672841Y-133874536D01*
X166798282Y-133778282D01*
X166894536Y-133652841D01*
X166955044Y-133506762D01*
X166975682Y-133350000D01*
X166955044Y-133193238D01*
X166894536Y-133047159D01*
X166798282Y-132921718D01*
X166744796Y-132880677D01*
X166702929Y-132823339D01*
X166695500Y-132780714D01*
X166695500Y-120658719D01*
X166695980Y-120647737D01*
X166698303Y-120621189D01*
X166698303Y-120621187D01*
X166699264Y-120610202D01*
X166689508Y-120573794D01*
X166687130Y-120563067D01*
X166686538Y-120559708D01*
X166680588Y-120525964D01*
X166675077Y-120516419D01*
X166673885Y-120513143D01*
X166672408Y-120509975D01*
X166669554Y-120499325D01*
X166647945Y-120468465D01*
X166642039Y-120459194D01*
X166628707Y-120436103D01*
X166623194Y-120426554D01*
X166594317Y-120402324D01*
X166586215Y-120394898D01*
X158113988Y-111922671D01*
X158079962Y-111860359D01*
X158078161Y-111817130D01*
X158084604Y-111768189D01*
X158084604Y-111768188D01*
X158085682Y-111760000D01*
X158065044Y-111603238D01*
X158004536Y-111457159D01*
X157908282Y-111331718D01*
X157782841Y-111235464D01*
X157636762Y-111174956D01*
X157480000Y-111154318D01*
X157323238Y-111174956D01*
X157177159Y-111235464D01*
X157051718Y-111331718D01*
X156955464Y-111457159D01*
X156894956Y-111603238D01*
X156874318Y-111760000D01*
X156894956Y-111916762D01*
X156955464Y-112062841D01*
X157051718Y-112188282D01*
X157177159Y-112284536D01*
X157323238Y-112345044D01*
X157480000Y-112365682D01*
X157556555Y-112355603D01*
X157626702Y-112366542D01*
X157662095Y-112391430D01*
X163189432Y-117918767D01*
X163223458Y-117981079D01*
X163218393Y-118051894D01*
X163175846Y-118108730D01*
X163132948Y-118129569D01*
X163076239Y-118144764D01*
X163065947Y-118148510D01*
X162868489Y-118240586D01*
X162858994Y-118246069D01*
X162806952Y-118282509D01*
X162798576Y-118292988D01*
X162805644Y-118306434D01*
X164594287Y-120095077D01*
X164606062Y-120101507D01*
X164618077Y-120092211D01*
X164653931Y-120041006D01*
X164659414Y-120031511D01*
X164751490Y-119834053D01*
X164755236Y-119823761D01*
X164770431Y-119767052D01*
X164807383Y-119706429D01*
X164871244Y-119675408D01*
X164941738Y-119683836D01*
X164981233Y-119710568D01*
X166007595Y-120736930D01*
X166041621Y-120799242D01*
X166044500Y-120826025D01*
X166044500Y-132780714D01*
X166024498Y-132848835D01*
X165995204Y-132880677D01*
X165941718Y-132921718D01*
X165936695Y-132928264D01*
X165900677Y-132975204D01*
X165843339Y-133017071D01*
X165800714Y-133024500D01*
X164537017Y-133024500D01*
X164468896Y-133004498D01*
X164447922Y-132987595D01*
X163244110Y-131783784D01*
X163236683Y-131775680D01*
X163231549Y-131769562D01*
X163212455Y-131746806D01*
X163202906Y-131741293D01*
X163179815Y-131727961D01*
X163170544Y-131722055D01*
X163148715Y-131706770D01*
X163139684Y-131700446D01*
X163129034Y-131697592D01*
X163125866Y-131696115D01*
X163122590Y-131694923D01*
X163113045Y-131689412D01*
X163078414Y-131683306D01*
X163075942Y-131682870D01*
X163065215Y-131680492D01*
X163028807Y-131670736D01*
X163017822Y-131671697D01*
X163017820Y-131671697D01*
X162991272Y-131674020D01*
X162980290Y-131674500D01*
X161569286Y-131674500D01*
X161501165Y-131654498D01*
X161469323Y-131625204D01*
X161433305Y-131578264D01*
X161428282Y-131571718D01*
X161302841Y-131475464D01*
X161156762Y-131414956D01*
X161000000Y-131394318D01*
X160843238Y-131414956D01*
X160697159Y-131475464D01*
X160571718Y-131571718D01*
X160566695Y-131578264D01*
X160560850Y-131584109D01*
X160558366Y-131581625D01*
X160514069Y-131613937D01*
X160443196Y-131618126D01*
X160381309Y-131583333D01*
X160348058Y-131520604D01*
X160345500Y-131495346D01*
X160345500Y-123759286D01*
X160365502Y-123691165D01*
X160394796Y-123659323D01*
X160441736Y-123623305D01*
X160448282Y-123618282D01*
X160489323Y-123564796D01*
X160546661Y-123522929D01*
X160589286Y-123515500D01*
X162372983Y-123515500D01*
X162441104Y-123535502D01*
X162462079Y-123552405D01*
X163197292Y-124287619D01*
X163231317Y-124349931D01*
X163233118Y-124393158D01*
X163224318Y-124460000D01*
X163244956Y-124616762D01*
X163305464Y-124762841D01*
X163401718Y-124888282D01*
X163527159Y-124984536D01*
X163673238Y-125045044D01*
X163830000Y-125065682D01*
X163838188Y-125064604D01*
X163978574Y-125046122D01*
X163986762Y-125045044D01*
X164132841Y-124984536D01*
X164258282Y-124888282D01*
X164354536Y-124762841D01*
X164415044Y-124616762D01*
X164435682Y-124460000D01*
X164415044Y-124303238D01*
X164354536Y-124157159D01*
X164258282Y-124031718D01*
X164132841Y-123935464D01*
X163986762Y-123874956D01*
X163830000Y-123854318D01*
X163763159Y-123863118D01*
X163693012Y-123852179D01*
X163657619Y-123827292D01*
X162804105Y-122973779D01*
X162796678Y-122965674D01*
X162779541Y-122945251D01*
X162779542Y-122945251D01*
X162772455Y-122936806D01*
X162762906Y-122931293D01*
X162739815Y-122917961D01*
X162730544Y-122912055D01*
X162708715Y-122896770D01*
X162699684Y-122890446D01*
X162689034Y-122887592D01*
X162685866Y-122886115D01*
X162682590Y-122884923D01*
X162673045Y-122879412D01*
X162639301Y-122873462D01*
X162635942Y-122872870D01*
X162625215Y-122870492D01*
X162588807Y-122860736D01*
X162577822Y-122861697D01*
X162577820Y-122861697D01*
X162551272Y-122864020D01*
X162540290Y-122864500D01*
X160589286Y-122864500D01*
X160521165Y-122844498D01*
X160489323Y-122815204D01*
X160453305Y-122768264D01*
X160448282Y-122761718D01*
X160394796Y-122720677D01*
X160352929Y-122663339D01*
X160345500Y-122620714D01*
X160345500Y-120506500D01*
X160365502Y-120438379D01*
X160419158Y-120391886D01*
X160471500Y-120380500D01*
X160839748Y-120380500D01*
X160845816Y-120379293D01*
X160886061Y-120371288D01*
X160886062Y-120371288D01*
X160898231Y-120368867D01*
X160964552Y-120324552D01*
X161008867Y-120258231D01*
X161020500Y-120199748D01*
X161020500Y-118605016D01*
X161040502Y-118536895D01*
X161094158Y-118490402D01*
X161164432Y-118480298D01*
X161229012Y-118509792D01*
X161235595Y-118515921D01*
X161447970Y-118728296D01*
X161481996Y-118790608D01*
X161484875Y-118817391D01*
X161484875Y-121150665D01*
X161484395Y-121161647D01*
X161481111Y-121199182D01*
X161483965Y-121209831D01*
X161490866Y-121235585D01*
X161493245Y-121246317D01*
X161499787Y-121283420D01*
X161505298Y-121292965D01*
X161506490Y-121296241D01*
X161507967Y-121299409D01*
X161510821Y-121310059D01*
X161517145Y-121319090D01*
X161532430Y-121340919D01*
X161538336Y-121350190D01*
X161550244Y-121370814D01*
X161557181Y-121382830D01*
X161565626Y-121389916D01*
X161586057Y-121407060D01*
X161594160Y-121414486D01*
X162315889Y-122136215D01*
X162323316Y-122144319D01*
X162347545Y-122173194D01*
X162357094Y-122178707D01*
X162380185Y-122192039D01*
X162389456Y-122197945D01*
X162420316Y-122219554D01*
X162430966Y-122222408D01*
X162434134Y-122223885D01*
X162437410Y-122225077D01*
X162446955Y-122230588D01*
X162480699Y-122236538D01*
X162484058Y-122237130D01*
X162494785Y-122239508D01*
X162531193Y-122249264D01*
X162542169Y-122248304D01*
X162542172Y-122248304D01*
X162568743Y-122245979D01*
X162579724Y-122245500D01*
X164281993Y-122245500D01*
X164350114Y-122265502D01*
X164371088Y-122282405D01*
X164737595Y-122648912D01*
X164771621Y-122711224D01*
X164774500Y-122738007D01*
X164774500Y-131510714D01*
X164754498Y-131578835D01*
X164725204Y-131610677D01*
X164671718Y-131651718D01*
X164666695Y-131658264D01*
X164657125Y-131670736D01*
X164575464Y-131777159D01*
X164514956Y-131923238D01*
X164494318Y-132080000D01*
X164514956Y-132236762D01*
X164575464Y-132382841D01*
X164671718Y-132508282D01*
X164797159Y-132604536D01*
X164943238Y-132665044D01*
X165100000Y-132685682D01*
X165108188Y-132684604D01*
X165248574Y-132666122D01*
X165256762Y-132665044D01*
X165402841Y-132604536D01*
X165528282Y-132508282D01*
X165624536Y-132382841D01*
X165685044Y-132236762D01*
X165705682Y-132080000D01*
X165685044Y-131923238D01*
X165624536Y-131777159D01*
X165542875Y-131670736D01*
X165533305Y-131658264D01*
X165528282Y-131651718D01*
X165474796Y-131610677D01*
X165432929Y-131553339D01*
X165425500Y-131510714D01*
X165425500Y-122570701D01*
X165425980Y-122559719D01*
X165428303Y-122533171D01*
X165428303Y-122533169D01*
X165429264Y-122522184D01*
X165419508Y-122485776D01*
X165417130Y-122475049D01*
X165416538Y-122471690D01*
X165410588Y-122437946D01*
X165405077Y-122428401D01*
X165403885Y-122425125D01*
X165402408Y-122421957D01*
X165399554Y-122411307D01*
X165377945Y-122380447D01*
X165372039Y-122371176D01*
X165358707Y-122348085D01*
X165353194Y-122338536D01*
X165324317Y-122314306D01*
X165316215Y-122306880D01*
X164713120Y-121703785D01*
X164705693Y-121695681D01*
X164688550Y-121675251D01*
X164688551Y-121675251D01*
X164681464Y-121666806D01*
X164671915Y-121661293D01*
X164648824Y-121647961D01*
X164639553Y-121642055D01*
X164617724Y-121626770D01*
X164608693Y-121620446D01*
X164598043Y-121617592D01*
X164594875Y-121616115D01*
X164591599Y-121614923D01*
X164582054Y-121609412D01*
X164548310Y-121603462D01*
X164544951Y-121602870D01*
X164534224Y-121600492D01*
X164497816Y-121590736D01*
X164486831Y-121591697D01*
X164486829Y-121591697D01*
X164460281Y-121594020D01*
X164449299Y-121594500D01*
X162747016Y-121594500D01*
X162678895Y-121574498D01*
X162657921Y-121557595D01*
X162172780Y-121072454D01*
X162138754Y-121010142D01*
X162135875Y-120983359D01*
X162135875Y-120466062D01*
X162798493Y-120466062D01*
X162807789Y-120478077D01*
X162858994Y-120513931D01*
X162868489Y-120519414D01*
X163065947Y-120611490D01*
X163076239Y-120615236D01*
X163286688Y-120671625D01*
X163297481Y-120673528D01*
X163514525Y-120692517D01*
X163525475Y-120692517D01*
X163742519Y-120673528D01*
X163753312Y-120671625D01*
X163963761Y-120615236D01*
X163974053Y-120611490D01*
X164171511Y-120519414D01*
X164181006Y-120513931D01*
X164233048Y-120477491D01*
X164241424Y-120467012D01*
X164234356Y-120453566D01*
X163532812Y-119752022D01*
X163518868Y-119744408D01*
X163517035Y-119744539D01*
X163510420Y-119748790D01*
X162804923Y-120454287D01*
X162798493Y-120466062D01*
X162135875Y-120466062D01*
X162135875Y-120075075D01*
X162155877Y-120006954D01*
X162209533Y-119960461D01*
X162279807Y-119950357D01*
X162344387Y-119979851D01*
X162376070Y-120021826D01*
X162380584Y-120031507D01*
X162386069Y-120041006D01*
X162422509Y-120093048D01*
X162432988Y-120101424D01*
X162446434Y-120094356D01*
X163147978Y-119392812D01*
X163155592Y-119378868D01*
X163155461Y-119377035D01*
X163151210Y-119370420D01*
X162445713Y-118664923D01*
X162433938Y-118658493D01*
X162421923Y-118667789D01*
X162386069Y-118718994D01*
X162380584Y-118728493D01*
X162376070Y-118738174D01*
X162329153Y-118791460D01*
X162260876Y-118810921D01*
X162192916Y-118790380D01*
X162146850Y-118736357D01*
X162135875Y-118684925D01*
X162135875Y-118650086D01*
X162136355Y-118639104D01*
X162138678Y-118612551D01*
X162139639Y-118601569D01*
X162136785Y-118590917D01*
X162129886Y-118565167D01*
X162127508Y-118554440D01*
X162122879Y-118528190D01*
X162122877Y-118528185D01*
X162120963Y-118517330D01*
X162115450Y-118507782D01*
X162114258Y-118504506D01*
X162112784Y-118501344D01*
X162109929Y-118490691D01*
X162088320Y-118459831D01*
X162082414Y-118450560D01*
X162069082Y-118427469D01*
X162063569Y-118417920D01*
X162034692Y-118393690D01*
X162026590Y-118386264D01*
X155572709Y-111932383D01*
X155538683Y-111870071D01*
X155536882Y-111826842D01*
X155544604Y-111768188D01*
X155545682Y-111760000D01*
X155525044Y-111603238D01*
X155464536Y-111457159D01*
X155368282Y-111331718D01*
X155242841Y-111235464D01*
X155096762Y-111174956D01*
X154940000Y-111154318D01*
X154783238Y-111174956D01*
X154637159Y-111235464D01*
X154511718Y-111331718D01*
X154415464Y-111457159D01*
X154354956Y-111603238D01*
X154353878Y-111611426D01*
X154343936Y-111686944D01*
X154315214Y-111751871D01*
X154255949Y-111790963D01*
X154184957Y-111791808D01*
X154129919Y-111759593D01*
X150570074Y-108199748D01*
X162129500Y-108199748D01*
X162141133Y-108258231D01*
X162185448Y-108324552D01*
X162251769Y-108368867D01*
X162263938Y-108371288D01*
X162263939Y-108371288D01*
X162304184Y-108379293D01*
X162310252Y-108380500D01*
X163378500Y-108380500D01*
X163446621Y-108400502D01*
X163493114Y-108454158D01*
X163504500Y-108506500D01*
X163504500Y-113098800D01*
X163504020Y-113109782D01*
X163500736Y-113147317D01*
X163503590Y-113157966D01*
X163510491Y-113183720D01*
X163512870Y-113194452D01*
X163519412Y-113231555D01*
X163524923Y-113241100D01*
X163526115Y-113244376D01*
X163527592Y-113247544D01*
X163530446Y-113258194D01*
X163536770Y-113267225D01*
X163552055Y-113289054D01*
X163557961Y-113298325D01*
X163571293Y-113321416D01*
X163576806Y-113330965D01*
X163585251Y-113338051D01*
X163605682Y-113355195D01*
X163613785Y-113362621D01*
X165787901Y-115536737D01*
X165821927Y-115599049D01*
X165823728Y-115642277D01*
X165814928Y-115709120D01*
X165835566Y-115865882D01*
X165896074Y-116011961D01*
X165992328Y-116137402D01*
X166117769Y-116233656D01*
X166263848Y-116294164D01*
X166420610Y-116314802D01*
X166428798Y-116313724D01*
X166569184Y-116295242D01*
X166577372Y-116294164D01*
X166723451Y-116233656D01*
X166848892Y-116137402D01*
X166945146Y-116011961D01*
X167005654Y-115865882D01*
X167026292Y-115709120D01*
X167005654Y-115552358D01*
X166945146Y-115406279D01*
X166848892Y-115280838D01*
X166723451Y-115184584D01*
X166577372Y-115124076D01*
X166420610Y-115103438D01*
X166353767Y-115112238D01*
X166283620Y-115101299D01*
X166248227Y-115076411D01*
X164192405Y-113020589D01*
X164158379Y-112958277D01*
X164155500Y-112931494D01*
X164155500Y-108506500D01*
X164175502Y-108438379D01*
X164229158Y-108391886D01*
X164281500Y-108380500D01*
X165349748Y-108380500D01*
X165355816Y-108379293D01*
X165396061Y-108371288D01*
X165396062Y-108371288D01*
X165408231Y-108368867D01*
X165474552Y-108324552D01*
X165518867Y-108258231D01*
X165530500Y-108199748D01*
X165530500Y-105160252D01*
X165518867Y-105101769D01*
X165474552Y-105035448D01*
X165408231Y-104991133D01*
X165396062Y-104988712D01*
X165396061Y-104988712D01*
X165355816Y-104980707D01*
X165349748Y-104979500D01*
X162310252Y-104979500D01*
X162304184Y-104980707D01*
X162263939Y-104988712D01*
X162263938Y-104988712D01*
X162251769Y-104991133D01*
X162185448Y-105035448D01*
X162141133Y-105101769D01*
X162129500Y-105160252D01*
X162129500Y-108199748D01*
X150570074Y-108199748D01*
X149777386Y-107407060D01*
X149743360Y-107344748D01*
X149748425Y-107273933D01*
X149752286Y-107264715D01*
X149814416Y-107131478D01*
X149814417Y-107131476D01*
X149816739Y-107126496D01*
X149875635Y-106906692D01*
X149895468Y-106680000D01*
X149875635Y-106453308D01*
X149816739Y-106233504D01*
X149814416Y-106228522D01*
X149722891Y-106032247D01*
X149722889Y-106032244D01*
X149720568Y-106027266D01*
X149590047Y-105840861D01*
X149429139Y-105679953D01*
X149242734Y-105549432D01*
X149237756Y-105547111D01*
X149237753Y-105547109D01*
X149041478Y-105455584D01*
X149041476Y-105455583D01*
X149036496Y-105453261D01*
X149031188Y-105451839D01*
X149031186Y-105451838D01*
X148822007Y-105395789D01*
X148822005Y-105395789D01*
X148816692Y-105394365D01*
X148590000Y-105374532D01*
X148363308Y-105394365D01*
X148357995Y-105395789D01*
X148357993Y-105395789D01*
X148148814Y-105451838D01*
X148148812Y-105451839D01*
X148143504Y-105453261D01*
X148138524Y-105455583D01*
X148138522Y-105455584D01*
X147942247Y-105547109D01*
X147942244Y-105547111D01*
X147937266Y-105549432D01*
X147750861Y-105679953D01*
X147589953Y-105840861D01*
X147459432Y-106027266D01*
X147457111Y-106032244D01*
X147457109Y-106032247D01*
X147365584Y-106228522D01*
X147363261Y-106233504D01*
X147304365Y-106453308D01*
X147284532Y-106680000D01*
X147304365Y-106906692D01*
X147363261Y-107126496D01*
X147365583Y-107131476D01*
X147365584Y-107131478D01*
X147429015Y-107267504D01*
X147459432Y-107332734D01*
X147589953Y-107519139D01*
X147750861Y-107680047D01*
X147937266Y-107810568D01*
X147942244Y-107812889D01*
X147942247Y-107812891D01*
X148121081Y-107896283D01*
X148143504Y-107906739D01*
X148148812Y-107908161D01*
X148148814Y-107908162D01*
X148357993Y-107964211D01*
X148357995Y-107964211D01*
X148363308Y-107965635D01*
X148590000Y-107985468D01*
X148816692Y-107965635D01*
X148822005Y-107964211D01*
X148822007Y-107964211D01*
X149031186Y-107908162D01*
X149031188Y-107908161D01*
X149036496Y-107906739D01*
X149118399Y-107868547D01*
X149174715Y-107842286D01*
X149244906Y-107831625D01*
X149309719Y-107860605D01*
X149317060Y-107867386D01*
X159614079Y-118164405D01*
X159648105Y-118226717D01*
X159643040Y-118297532D01*
X159600493Y-118354368D01*
X159533973Y-118379179D01*
X159524984Y-118379500D01*
X159200252Y-118379500D01*
X159194184Y-118380707D01*
X159153939Y-118388712D01*
X159153938Y-118388712D01*
X159141769Y-118391133D01*
X159075448Y-118435448D01*
X159031133Y-118501769D01*
X159028712Y-118513938D01*
X159028712Y-118513939D01*
X159024146Y-118536895D01*
X159019500Y-118560252D01*
X159019500Y-120199748D01*
X159031133Y-120258231D01*
X159075448Y-120324552D01*
X159141769Y-120368867D01*
X159153938Y-120371288D01*
X159153939Y-120371288D01*
X159194184Y-120379293D01*
X159200252Y-120380500D01*
X159568500Y-120380500D01*
X159636621Y-120400502D01*
X159683114Y-120454158D01*
X159694500Y-120506500D01*
X159694500Y-122620714D01*
X159674498Y-122688835D01*
X159645204Y-122720677D01*
X159591718Y-122761718D01*
X159495464Y-122887159D01*
X159434956Y-123033238D01*
X159414318Y-123190000D01*
X159434956Y-123346762D01*
X159495464Y-123492841D01*
X159591718Y-123618282D01*
X159598264Y-123623305D01*
X159645204Y-123659323D01*
X159687071Y-123716661D01*
X159694500Y-123759286D01*
X159694500Y-131342332D01*
X159674498Y-131410453D01*
X159657595Y-131431427D01*
X159511522Y-131577500D01*
X159449210Y-131611526D01*
X159378395Y-131606461D01*
X159345724Y-131588368D01*
X159309396Y-131560493D01*
X159309392Y-131560491D01*
X159302841Y-131555464D01*
X159156762Y-131494956D01*
X159000000Y-131474318D01*
X158843238Y-131494956D01*
X158697159Y-131555464D01*
X158571718Y-131651718D01*
X158566695Y-131658264D01*
X158557125Y-131670736D01*
X158475464Y-131777159D01*
X158414956Y-131923238D01*
X158394318Y-132080000D01*
X158403118Y-132146841D01*
X158392179Y-132216988D01*
X158367292Y-132252381D01*
X157632079Y-132987595D01*
X157569766Y-133021620D01*
X157542983Y-133024500D01*
X147820593Y-133024500D01*
X147752472Y-133004498D01*
X147705979Y-132950842D01*
X147697700Y-132926308D01*
X147681787Y-132855985D01*
X147680756Y-132851428D01*
X147615882Y-132684604D01*
X147590843Y-132620216D01*
X147590842Y-132620214D01*
X147589150Y-132615863D01*
X147571536Y-132585044D01*
X147497092Y-132454796D01*
X147463731Y-132396426D01*
X147307255Y-132197938D01*
X147123160Y-132024758D01*
X146915489Y-131880691D01*
X146911296Y-131878623D01*
X146692993Y-131770968D01*
X146692990Y-131770967D01*
X146688805Y-131768903D01*
X146644379Y-131754682D01*
X146581323Y-131734498D01*
X146448087Y-131691849D01*
X146443480Y-131691099D01*
X146443477Y-131691098D01*
X146233021Y-131656823D01*
X146198624Y-131651221D01*
X146076026Y-131649616D01*
X145950573Y-131647974D01*
X145950570Y-131647974D01*
X145945896Y-131647913D01*
X145695455Y-131681996D01*
X145690965Y-131683305D01*
X145690959Y-131683306D01*
X145603996Y-131708654D01*
X145452803Y-131752723D01*
X145448556Y-131754681D01*
X145448553Y-131754682D01*
X145370763Y-131790544D01*
X145223270Y-131858539D01*
X145219361Y-131861102D01*
X145015812Y-131994554D01*
X145015807Y-131994558D01*
X145011899Y-131997120D01*
X144980933Y-132024758D01*
X144833035Y-132156762D01*
X144823333Y-132165421D01*
X144661715Y-132359746D01*
X144530595Y-132575825D01*
X144528786Y-132580139D01*
X144528785Y-132580141D01*
X144478475Y-132700118D01*
X144432854Y-132808911D01*
X144431703Y-132813443D01*
X144431702Y-132813446D01*
X144422056Y-132851428D01*
X144370639Y-133053883D01*
X144345316Y-133305361D01*
X144345540Y-133310027D01*
X144345540Y-133310033D01*
X144351065Y-133425044D01*
X144357443Y-133557820D01*
X144366629Y-133604000D01*
X144402295Y-133783305D01*
X144406752Y-133805713D01*
X144408331Y-133810111D01*
X144408333Y-133810118D01*
X144460209Y-133954604D01*
X144492160Y-134043595D01*
X144589007Y-134223835D01*
X144603630Y-134293305D01*
X144578371Y-134359657D01*
X144567109Y-134372565D01*
X144127079Y-134812595D01*
X144064767Y-134846621D01*
X144037984Y-134849500D01*
X143104000Y-134849500D01*
X143035879Y-134829498D01*
X142989386Y-134775842D01*
X142978000Y-134723500D01*
X142978000Y-133622115D01*
X142973525Y-133606876D01*
X142972135Y-133605671D01*
X142964452Y-133604000D01*
X138980116Y-133604000D01*
X138964877Y-133608475D01*
X138963672Y-133609865D01*
X138962001Y-133617548D01*
X138962001Y-134723500D01*
X138941999Y-134791621D01*
X138888343Y-134838114D01*
X138836001Y-134849500D01*
X132822016Y-134849500D01*
X132753895Y-134829498D01*
X132732921Y-134812595D01*
X130810407Y-132890081D01*
X130776381Y-132827769D01*
X130781446Y-132756954D01*
X130823993Y-132700118D01*
X130883056Y-132676064D01*
X130958574Y-132666122D01*
X130966762Y-132665044D01*
X131112841Y-132604536D01*
X131238282Y-132508282D01*
X131334536Y-132382841D01*
X131395044Y-132236762D01*
X131415682Y-132080000D01*
X131406882Y-132013157D01*
X131417821Y-131943010D01*
X131442709Y-131907617D01*
X132540326Y-130810000D01*
X134014318Y-130810000D01*
X134034956Y-130966762D01*
X134095464Y-131112841D01*
X134191718Y-131238282D01*
X134317159Y-131334536D01*
X134463238Y-131395044D01*
X134471426Y-131396122D01*
X134540487Y-131405214D01*
X134620000Y-131415682D01*
X134628188Y-131414604D01*
X134768574Y-131396122D01*
X134776762Y-131395044D01*
X134922841Y-131334536D01*
X135048282Y-131238282D01*
X135089323Y-131184796D01*
X135146661Y-131142929D01*
X135189286Y-131135500D01*
X139233581Y-131135500D01*
X139301702Y-131155502D01*
X139348195Y-131209158D01*
X139358299Y-131279432D01*
X139328805Y-131344012D01*
X139277810Y-131379482D01*
X139231948Y-131396675D01*
X139216351Y-131405214D01*
X139114276Y-131481715D01*
X139101715Y-131494276D01*
X139025214Y-131596351D01*
X139016676Y-131611946D01*
X138971522Y-131732394D01*
X138967895Y-131747649D01*
X138962369Y-131798514D01*
X138962000Y-131805328D01*
X138962000Y-133077885D01*
X138966475Y-133093124D01*
X138967865Y-133094329D01*
X138975548Y-133096000D01*
X142959884Y-133096000D01*
X142975123Y-133091525D01*
X142976328Y-133090135D01*
X142977999Y-133082452D01*
X142977999Y-131805331D01*
X142977629Y-131798510D01*
X142972105Y-131747648D01*
X142968479Y-131732396D01*
X142923324Y-131611946D01*
X142914786Y-131596351D01*
X142838285Y-131494276D01*
X142825724Y-131481715D01*
X142723649Y-131405214D01*
X142708052Y-131396675D01*
X142662190Y-131379482D01*
X142605425Y-131336841D01*
X142580725Y-131270279D01*
X142595932Y-131200930D01*
X142646218Y-131150812D01*
X142706419Y-131135500D01*
X147300290Y-131135500D01*
X147311272Y-131135980D01*
X147337820Y-131138303D01*
X147337822Y-131138303D01*
X147348807Y-131139264D01*
X147385215Y-131129508D01*
X147395942Y-131127130D01*
X147399301Y-131126538D01*
X147433045Y-131120588D01*
X147442590Y-131115077D01*
X147445866Y-131113885D01*
X147449034Y-131112408D01*
X147459684Y-131109554D01*
X147490544Y-131087945D01*
X147499815Y-131082039D01*
X147522906Y-131068707D01*
X147532455Y-131063194D01*
X147556685Y-131034317D01*
X147564111Y-131026215D01*
X154767618Y-123822709D01*
X154829930Y-123788683D01*
X154873158Y-123786882D01*
X154940000Y-123795682D01*
X154948188Y-123794604D01*
X155088574Y-123776122D01*
X155096762Y-123775044D01*
X155242841Y-123714536D01*
X155368282Y-123618282D01*
X155464536Y-123492841D01*
X155525044Y-123346762D01*
X155545682Y-123190000D01*
X155525044Y-123033238D01*
X155464536Y-122887159D01*
X155368282Y-122761718D01*
X155242841Y-122665464D01*
X155096762Y-122604956D01*
X154940000Y-122584318D01*
X154783238Y-122604956D01*
X154637159Y-122665464D01*
X154511718Y-122761718D01*
X154415464Y-122887159D01*
X154354956Y-123033238D01*
X154334318Y-123190000D01*
X154335396Y-123198187D01*
X154343118Y-123256840D01*
X154332179Y-123326989D01*
X154307291Y-123362382D01*
X147222079Y-130447595D01*
X147159767Y-130481621D01*
X147132984Y-130484500D01*
X135189286Y-130484500D01*
X135121165Y-130464498D01*
X135089323Y-130435204D01*
X135053305Y-130388264D01*
X135048282Y-130381718D01*
X134922841Y-130285464D01*
X134776762Y-130224956D01*
X134620000Y-130204318D01*
X134463238Y-130224956D01*
X134317159Y-130285464D01*
X134191718Y-130381718D01*
X134095464Y-130507159D01*
X134034956Y-130653238D01*
X134014318Y-130810000D01*
X132540326Y-130810000D01*
X136244095Y-127106232D01*
X136306407Y-127072206D01*
X136333190Y-127069327D01*
X149682103Y-127069327D01*
X149693085Y-127069807D01*
X149719633Y-127072130D01*
X149719635Y-127072130D01*
X149730620Y-127073091D01*
X149767028Y-127063335D01*
X149777755Y-127060957D01*
X149781114Y-127060365D01*
X149814858Y-127054415D01*
X149824403Y-127048904D01*
X149827679Y-127047712D01*
X149830847Y-127046235D01*
X149841497Y-127043381D01*
X149872357Y-127021772D01*
X149881628Y-127015866D01*
X149904719Y-127002534D01*
X149914268Y-126997021D01*
X149938498Y-126968144D01*
X149945924Y-126960042D01*
X155156215Y-121749751D01*
X155164319Y-121742324D01*
X155184749Y-121725181D01*
X155193194Y-121718095D01*
X155203706Y-121699888D01*
X155212039Y-121685455D01*
X155217945Y-121676184D01*
X155218598Y-121675251D01*
X155239554Y-121645324D01*
X155242408Y-121634673D01*
X155243888Y-121631500D01*
X155245079Y-121628228D01*
X155250588Y-121618685D01*
X155257134Y-121581564D01*
X155259508Y-121570857D01*
X155269263Y-121534447D01*
X155265979Y-121496909D01*
X155265500Y-121485928D01*
X155265500Y-119949286D01*
X155285502Y-119881165D01*
X155314796Y-119849323D01*
X155361736Y-119813305D01*
X155368282Y-119808282D01*
X155464536Y-119682841D01*
X155525044Y-119536762D01*
X155545682Y-119380000D01*
X155525044Y-119223238D01*
X155464536Y-119077159D01*
X155368282Y-118951718D01*
X155242841Y-118855464D01*
X155096762Y-118794956D01*
X155063736Y-118790608D01*
X154948188Y-118775396D01*
X154940000Y-118774318D01*
X154931812Y-118775396D01*
X154816265Y-118790608D01*
X154783238Y-118794956D01*
X154637159Y-118855464D01*
X154511718Y-118951718D01*
X154415464Y-119077159D01*
X154354956Y-119223238D01*
X154334318Y-119380000D01*
X154354956Y-119536762D01*
X154415464Y-119682841D01*
X154511718Y-119808282D01*
X154518264Y-119813305D01*
X154565204Y-119849323D01*
X154607071Y-119906661D01*
X154614500Y-119949286D01*
X154614500Y-121318624D01*
X154594498Y-121386745D01*
X154577595Y-121407719D01*
X149603892Y-126381422D01*
X149541580Y-126415448D01*
X149514797Y-126418327D01*
X136165886Y-126418327D01*
X136154905Y-126417848D01*
X136128343Y-126415524D01*
X136128341Y-126415524D01*
X136117366Y-126414564D01*
X136080956Y-126424319D01*
X136070249Y-126426693D01*
X136033128Y-126433239D01*
X136023584Y-126438749D01*
X136020308Y-126439941D01*
X136017137Y-126441420D01*
X136006489Y-126444273D01*
X135997460Y-126450595D01*
X135975622Y-126465886D01*
X135966352Y-126471791D01*
X135943269Y-126485118D01*
X135943266Y-126485120D01*
X135933718Y-126490633D01*
X135926630Y-126499080D01*
X135926629Y-126499081D01*
X135909499Y-126519496D01*
X135902073Y-126527600D01*
X130982383Y-131447291D01*
X130920071Y-131481317D01*
X130876843Y-131483118D01*
X130810000Y-131474318D01*
X130653238Y-131494956D01*
X130507159Y-131555464D01*
X130381718Y-131651718D01*
X130285464Y-131777159D01*
X130283272Y-131782450D01*
X130232738Y-131830636D01*
X130163025Y-131844074D01*
X130097114Y-131817688D01*
X130066863Y-131782776D01*
X130064536Y-131777159D01*
X129968282Y-131651718D01*
X129842841Y-131555464D01*
X129696762Y-131494956D01*
X129540000Y-131474318D01*
X129383238Y-131494956D01*
X129237159Y-131555464D01*
X129111718Y-131651718D01*
X129106695Y-131658264D01*
X129070677Y-131705204D01*
X129013339Y-131747071D01*
X128970714Y-131754500D01*
X126413999Y-131754500D01*
X126345878Y-131734498D01*
X126324904Y-131717595D01*
X126092405Y-131485096D01*
X126058379Y-131422784D01*
X126055500Y-131396001D01*
X126055500Y-125029286D01*
X126075502Y-124961165D01*
X126104796Y-124929323D01*
X126151736Y-124893305D01*
X126158282Y-124888282D01*
X126199323Y-124834796D01*
X126256661Y-124792929D01*
X126299286Y-124785500D01*
X128970714Y-124785500D01*
X129038835Y-124805502D01*
X129070677Y-124834796D01*
X129111718Y-124888282D01*
X129237159Y-124984536D01*
X129383238Y-125045044D01*
X129540000Y-125065682D01*
X129548188Y-125064604D01*
X129688574Y-125046122D01*
X129696762Y-125045044D01*
X129842841Y-124984536D01*
X129968282Y-124888282D01*
X130064536Y-124762841D01*
X130125044Y-124616762D01*
X130145682Y-124460000D01*
X130125044Y-124303238D01*
X130113787Y-124276062D01*
X135958493Y-124276062D01*
X135967789Y-124288077D01*
X136018994Y-124323931D01*
X136028489Y-124329414D01*
X136225947Y-124421490D01*
X136236239Y-124425236D01*
X136446688Y-124481625D01*
X136457481Y-124483528D01*
X136674525Y-124502517D01*
X136685475Y-124502517D01*
X136902519Y-124483528D01*
X136913312Y-124481625D01*
X137123761Y-124425236D01*
X137134053Y-124421490D01*
X137331511Y-124329414D01*
X137341006Y-124323931D01*
X137393048Y-124287491D01*
X137401424Y-124277012D01*
X137400925Y-124276062D01*
X149098493Y-124276062D01*
X149107789Y-124288077D01*
X149158994Y-124323931D01*
X149168489Y-124329414D01*
X149365947Y-124421490D01*
X149376239Y-124425236D01*
X149586688Y-124481625D01*
X149597481Y-124483528D01*
X149814525Y-124502517D01*
X149825475Y-124502517D01*
X150042519Y-124483528D01*
X150053312Y-124481625D01*
X150263761Y-124425236D01*
X150274053Y-124421490D01*
X150471511Y-124329414D01*
X150481006Y-124323931D01*
X150533048Y-124287491D01*
X150541424Y-124277012D01*
X150534356Y-124263566D01*
X149832812Y-123562022D01*
X149818868Y-123554408D01*
X149817035Y-123554539D01*
X149810420Y-123558790D01*
X149104923Y-124264287D01*
X149098493Y-124276062D01*
X137400925Y-124276062D01*
X137394356Y-124263566D01*
X137140538Y-124009748D01*
X139179500Y-124009748D01*
X139191133Y-124068231D01*
X139235448Y-124134552D01*
X139301769Y-124178867D01*
X139313938Y-124181288D01*
X139313939Y-124181288D01*
X139354184Y-124189293D01*
X139360252Y-124190500D01*
X140999748Y-124190500D01*
X141005816Y-124189293D01*
X141046061Y-124181288D01*
X141046062Y-124181288D01*
X141058231Y-124178867D01*
X141124552Y-124134552D01*
X141168867Y-124068231D01*
X141180500Y-124009748D01*
X146319500Y-124009748D01*
X146331133Y-124068231D01*
X146375448Y-124134552D01*
X146441769Y-124178867D01*
X146453938Y-124181288D01*
X146453939Y-124181288D01*
X146494184Y-124189293D01*
X146500252Y-124190500D01*
X148139748Y-124190500D01*
X148145816Y-124189293D01*
X148186061Y-124181288D01*
X148186062Y-124181288D01*
X148198231Y-124178867D01*
X148264552Y-124134552D01*
X148308867Y-124068231D01*
X148320500Y-124009748D01*
X148320500Y-123604580D01*
X148340502Y-123536459D01*
X148394158Y-123489966D01*
X148464432Y-123479862D01*
X148529012Y-123509356D01*
X148568207Y-123571969D01*
X148584764Y-123633761D01*
X148588510Y-123644053D01*
X148680586Y-123841511D01*
X148686069Y-123851006D01*
X148722509Y-123903048D01*
X148732988Y-123911424D01*
X148746434Y-123904356D01*
X149447978Y-123202812D01*
X149454356Y-123191132D01*
X150184408Y-123191132D01*
X150184539Y-123192965D01*
X150188790Y-123199580D01*
X150894287Y-123905077D01*
X150906062Y-123911507D01*
X150918077Y-123902211D01*
X150953931Y-123851006D01*
X150959414Y-123841511D01*
X151051490Y-123644053D01*
X151055236Y-123633761D01*
X151111625Y-123423312D01*
X151113528Y-123412519D01*
X151132517Y-123195475D01*
X151132517Y-123184525D01*
X151113528Y-122967481D01*
X151111625Y-122956688D01*
X151055236Y-122746239D01*
X151051490Y-122735947D01*
X150959414Y-122538489D01*
X150953931Y-122528994D01*
X150917491Y-122476952D01*
X150907012Y-122468576D01*
X150893566Y-122475644D01*
X150192022Y-123177188D01*
X150184408Y-123191132D01*
X149454356Y-123191132D01*
X149455592Y-123188868D01*
X149455461Y-123187035D01*
X149451210Y-123180420D01*
X148745713Y-122474923D01*
X148733938Y-122468493D01*
X148721923Y-122477789D01*
X148686069Y-122528994D01*
X148680586Y-122538489D01*
X148588510Y-122735947D01*
X148584764Y-122746239D01*
X148568207Y-122808031D01*
X148531255Y-122868654D01*
X148467394Y-122899675D01*
X148396900Y-122891247D01*
X148342153Y-122846044D01*
X148320500Y-122775420D01*
X148320500Y-122370252D01*
X148308867Y-122311769D01*
X148264552Y-122245448D01*
X148198231Y-122201133D01*
X148186062Y-122198712D01*
X148186061Y-122198712D01*
X148145816Y-122190707D01*
X148139748Y-122189500D01*
X146500252Y-122189500D01*
X146494184Y-122190707D01*
X146453939Y-122198712D01*
X146453938Y-122198712D01*
X146441769Y-122201133D01*
X146375448Y-122245448D01*
X146331133Y-122311769D01*
X146319500Y-122370252D01*
X146319500Y-124009748D01*
X141180500Y-124009748D01*
X141180500Y-122370252D01*
X141168867Y-122311769D01*
X141124552Y-122245448D01*
X141058231Y-122201133D01*
X141046062Y-122198712D01*
X141046061Y-122198712D01*
X141005816Y-122190707D01*
X140999748Y-122189500D01*
X139360252Y-122189500D01*
X139354184Y-122190707D01*
X139313939Y-122198712D01*
X139313938Y-122198712D01*
X139301769Y-122201133D01*
X139235448Y-122245448D01*
X139191133Y-122311769D01*
X139179500Y-122370252D01*
X139179500Y-124009748D01*
X137140538Y-124009748D01*
X136692812Y-123562022D01*
X136678868Y-123554408D01*
X136677035Y-123554539D01*
X136670420Y-123558790D01*
X135964923Y-124264287D01*
X135958493Y-124276062D01*
X130113787Y-124276062D01*
X130064536Y-124157159D01*
X129968282Y-124031718D01*
X129842841Y-123935464D01*
X129696762Y-123874956D01*
X129540000Y-123854318D01*
X129383238Y-123874956D01*
X129237159Y-123935464D01*
X129111718Y-124031718D01*
X129106695Y-124038264D01*
X129070677Y-124085204D01*
X129013339Y-124127071D01*
X128970714Y-124134500D01*
X126299286Y-124134500D01*
X126231165Y-124114498D01*
X126199323Y-124085204D01*
X126163305Y-124038264D01*
X126158282Y-124031718D01*
X126104796Y-123990677D01*
X126062929Y-123933339D01*
X126055500Y-123890714D01*
X126055500Y-123195475D01*
X135367483Y-123195475D01*
X135386472Y-123412519D01*
X135388375Y-123423312D01*
X135444764Y-123633761D01*
X135448510Y-123644053D01*
X135540586Y-123841511D01*
X135546069Y-123851006D01*
X135582509Y-123903048D01*
X135592988Y-123911424D01*
X135606434Y-123904356D01*
X136307978Y-123202812D01*
X136314356Y-123191132D01*
X137044408Y-123191132D01*
X137044539Y-123192965D01*
X137048790Y-123199580D01*
X137754287Y-123905077D01*
X137766062Y-123911507D01*
X137778077Y-123902211D01*
X137813931Y-123851006D01*
X137819414Y-123841511D01*
X137911490Y-123644053D01*
X137915236Y-123633761D01*
X137971625Y-123423312D01*
X137973528Y-123412519D01*
X137992517Y-123195475D01*
X137992517Y-123184525D01*
X137973528Y-122967481D01*
X137971625Y-122956688D01*
X137915236Y-122746239D01*
X137911490Y-122735947D01*
X137819414Y-122538489D01*
X137813931Y-122528994D01*
X137777491Y-122476952D01*
X137767012Y-122468576D01*
X137753566Y-122475644D01*
X137052022Y-123177188D01*
X137044408Y-123191132D01*
X136314356Y-123191132D01*
X136315592Y-123188868D01*
X136315461Y-123187035D01*
X136311210Y-123180420D01*
X135605713Y-122474923D01*
X135593938Y-122468493D01*
X135581923Y-122477789D01*
X135546069Y-122528994D01*
X135540586Y-122538489D01*
X135448510Y-122735947D01*
X135444764Y-122746239D01*
X135388375Y-122956688D01*
X135386472Y-122967481D01*
X135367483Y-123184525D01*
X135367483Y-123195475D01*
X126055500Y-123195475D01*
X126055500Y-122102988D01*
X135958576Y-122102988D01*
X135965644Y-122116434D01*
X136667188Y-122817978D01*
X136681132Y-122825592D01*
X136682965Y-122825461D01*
X136689580Y-122821210D01*
X137395077Y-122115713D01*
X137401507Y-122103938D01*
X137400772Y-122102988D01*
X149098576Y-122102988D01*
X149105644Y-122116434D01*
X149807188Y-122817978D01*
X149821132Y-122825592D01*
X149822965Y-122825461D01*
X149829580Y-122821210D01*
X150535077Y-122115713D01*
X150541507Y-122103938D01*
X150532211Y-122091923D01*
X150481006Y-122056069D01*
X150471511Y-122050586D01*
X150274053Y-121958510D01*
X150263761Y-121954764D01*
X150053312Y-121898375D01*
X150042519Y-121896472D01*
X149825475Y-121877483D01*
X149814525Y-121877483D01*
X149597481Y-121896472D01*
X149586688Y-121898375D01*
X149376239Y-121954764D01*
X149365947Y-121958510D01*
X149168489Y-122050586D01*
X149158994Y-122056069D01*
X149106952Y-122092509D01*
X149098576Y-122102988D01*
X137400772Y-122102988D01*
X137392211Y-122091923D01*
X137341006Y-122056069D01*
X137331511Y-122050586D01*
X137134053Y-121958510D01*
X137123761Y-121954764D01*
X136913312Y-121898375D01*
X136902519Y-121896472D01*
X136685475Y-121877483D01*
X136674525Y-121877483D01*
X136457481Y-121896472D01*
X136446688Y-121898375D01*
X136236239Y-121954764D01*
X136225947Y-121958510D01*
X136028489Y-122050586D01*
X136018994Y-122056069D01*
X135966952Y-122092509D01*
X135958576Y-122102988D01*
X126055500Y-122102988D01*
X126055500Y-120506500D01*
X126067374Y-120466062D01*
X128508493Y-120466062D01*
X128517789Y-120478077D01*
X128568994Y-120513931D01*
X128578489Y-120519414D01*
X128775947Y-120611490D01*
X128786239Y-120615236D01*
X128996688Y-120671625D01*
X129007481Y-120673528D01*
X129224525Y-120692517D01*
X129235475Y-120692517D01*
X129452519Y-120673528D01*
X129463312Y-120671625D01*
X129673761Y-120615236D01*
X129684053Y-120611490D01*
X129881511Y-120519414D01*
X129891006Y-120513931D01*
X129943048Y-120477491D01*
X129951424Y-120467012D01*
X129944356Y-120453566D01*
X129242812Y-119752022D01*
X129228868Y-119744408D01*
X129227035Y-119744539D01*
X129220420Y-119748790D01*
X128514923Y-120454287D01*
X128508493Y-120466062D01*
X126067374Y-120466062D01*
X126075502Y-120438379D01*
X126129158Y-120391886D01*
X126181500Y-120380500D01*
X126549748Y-120380500D01*
X126555816Y-120379293D01*
X126596061Y-120371288D01*
X126596062Y-120371288D01*
X126608231Y-120368867D01*
X126674552Y-120324552D01*
X126718867Y-120258231D01*
X126730500Y-120199748D01*
X126730500Y-119385475D01*
X127917483Y-119385475D01*
X127936472Y-119602519D01*
X127938375Y-119613312D01*
X127994764Y-119823761D01*
X127998510Y-119834053D01*
X128090586Y-120031511D01*
X128096069Y-120041006D01*
X128132509Y-120093048D01*
X128142988Y-120101424D01*
X128156434Y-120094356D01*
X128857978Y-119392812D01*
X128864356Y-119381132D01*
X129594408Y-119381132D01*
X129594539Y-119382965D01*
X129598790Y-119389580D01*
X130304287Y-120095077D01*
X130316062Y-120101507D01*
X130328077Y-120092211D01*
X130363931Y-120041006D01*
X130369414Y-120031511D01*
X130461490Y-119834053D01*
X130465236Y-119823761D01*
X130521625Y-119613312D01*
X130523528Y-119602519D01*
X130542517Y-119385475D01*
X130542517Y-119374525D01*
X130523528Y-119157481D01*
X130521625Y-119146688D01*
X130465236Y-118936239D01*
X130461490Y-118925947D01*
X130369414Y-118728489D01*
X130363931Y-118718994D01*
X130327491Y-118666952D01*
X130317012Y-118658576D01*
X130303566Y-118665644D01*
X129602022Y-119367188D01*
X129594408Y-119381132D01*
X128864356Y-119381132D01*
X128865592Y-119378868D01*
X128865461Y-119377035D01*
X128861210Y-119370420D01*
X128155713Y-118664923D01*
X128143938Y-118658493D01*
X128131923Y-118667789D01*
X128096069Y-118718994D01*
X128090586Y-118728489D01*
X127998510Y-118925947D01*
X127994764Y-118936239D01*
X127938375Y-119146688D01*
X127936472Y-119157481D01*
X127917483Y-119374525D01*
X127917483Y-119385475D01*
X126730500Y-119385475D01*
X126730500Y-118560252D01*
X126725854Y-118536895D01*
X126721288Y-118513939D01*
X126721288Y-118513938D01*
X126718867Y-118501769D01*
X126674552Y-118435448D01*
X126608231Y-118391133D01*
X126596062Y-118388712D01*
X126596061Y-118388712D01*
X126555816Y-118380707D01*
X126549748Y-118379500D01*
X124911500Y-118379500D01*
X124843379Y-118359498D01*
X124796886Y-118305842D01*
X124794090Y-118292988D01*
X128508576Y-118292988D01*
X128515644Y-118306434D01*
X129217188Y-119007978D01*
X129231132Y-119015592D01*
X129232965Y-119015461D01*
X129239580Y-119011210D01*
X129945077Y-118305713D01*
X129951507Y-118293938D01*
X129942211Y-118281923D01*
X129891006Y-118246069D01*
X129881511Y-118240586D01*
X129684053Y-118148510D01*
X129673761Y-118144764D01*
X129463312Y-118088375D01*
X129452519Y-118086472D01*
X129235475Y-118067483D01*
X129224525Y-118067483D01*
X129007481Y-118086472D01*
X128996688Y-118088375D01*
X128786239Y-118144764D01*
X128775947Y-118148510D01*
X128578489Y-118240586D01*
X128568994Y-118246069D01*
X128516952Y-118282509D01*
X128508576Y-118292988D01*
X124794090Y-118292988D01*
X124785500Y-118253500D01*
X124785500Y-115589713D01*
X124785979Y-115578732D01*
X124788303Y-115552170D01*
X124788303Y-115552168D01*
X124789263Y-115541193D01*
X124779508Y-115504783D01*
X124777133Y-115494072D01*
X124776283Y-115489250D01*
X124770588Y-115456955D01*
X124765078Y-115447411D01*
X124763886Y-115444135D01*
X124762407Y-115440964D01*
X124759554Y-115430316D01*
X124737940Y-115399448D01*
X124732036Y-115390179D01*
X124718707Y-115367092D01*
X124718704Y-115367088D01*
X124713194Y-115357545D01*
X124684330Y-115333325D01*
X124676227Y-115325900D01*
X124254533Y-114904206D01*
X123822709Y-114472383D01*
X123788684Y-114410070D01*
X123786882Y-114366840D01*
X123787076Y-114365372D01*
X123795682Y-114300000D01*
X123775044Y-114143238D01*
X123714536Y-113997159D01*
X123618282Y-113871718D01*
X123492841Y-113775464D01*
X123346762Y-113714956D01*
X123190000Y-113694318D01*
X123033238Y-113714956D01*
X122887159Y-113775464D01*
X122761718Y-113871718D01*
X122665464Y-113997159D01*
X122604956Y-114143238D01*
X122584318Y-114300000D01*
X114301000Y-114300000D01*
X114301000Y-109248807D01*
X120320736Y-109248807D01*
X120330491Y-109285210D01*
X120332870Y-109295942D01*
X120339412Y-109333045D01*
X120344923Y-109342590D01*
X120346115Y-109345866D01*
X120347592Y-109349034D01*
X120350446Y-109359684D01*
X120356770Y-109368715D01*
X120372055Y-109390544D01*
X120377961Y-109399815D01*
X120385396Y-109412692D01*
X120396806Y-109432455D01*
X120405248Y-109439539D01*
X120425681Y-109456685D01*
X120433783Y-109464110D01*
X121675895Y-110706222D01*
X121683321Y-110714325D01*
X121707545Y-110743194D01*
X121717088Y-110748704D01*
X121717092Y-110748707D01*
X121740179Y-110762036D01*
X121749448Y-110767940D01*
X121780316Y-110789554D01*
X121790964Y-110792407D01*
X121794135Y-110793886D01*
X121797411Y-110795078D01*
X121806955Y-110800588D01*
X121844076Y-110807134D01*
X121854783Y-110809508D01*
X121891193Y-110819263D01*
X121902168Y-110818303D01*
X121902170Y-110818303D01*
X121928731Y-110815979D01*
X121939712Y-110815500D01*
X124272984Y-110815500D01*
X124341105Y-110835502D01*
X124362079Y-110852405D01*
X130565889Y-117056215D01*
X130573316Y-117064319D01*
X130597545Y-117093194D01*
X130607094Y-117098707D01*
X130630185Y-117112039D01*
X130639456Y-117117945D01*
X130670316Y-117139554D01*
X130680967Y-117142408D01*
X130684140Y-117143888D01*
X130687412Y-117145079D01*
X130696955Y-117150588D01*
X130734076Y-117157134D01*
X130744783Y-117159508D01*
X130781193Y-117169263D01*
X130792168Y-117168303D01*
X130792170Y-117168303D01*
X130818731Y-117165979D01*
X130829712Y-117165500D01*
X131510714Y-117165500D01*
X131578835Y-117185502D01*
X131610677Y-117214796D01*
X131651718Y-117268282D01*
X131777159Y-117364536D01*
X131923238Y-117425044D01*
X132080000Y-117445682D01*
X132088188Y-117444604D01*
X132228574Y-117426122D01*
X132236762Y-117425044D01*
X132382841Y-117364536D01*
X132508282Y-117268282D01*
X132604536Y-117142841D01*
X132665044Y-116996762D01*
X132685682Y-116840000D01*
X132665044Y-116683238D01*
X132604536Y-116537159D01*
X132508282Y-116411718D01*
X132382841Y-116315464D01*
X132236762Y-116254956D01*
X132080000Y-116234318D01*
X131923238Y-116254956D01*
X131777159Y-116315464D01*
X131651718Y-116411718D01*
X131646695Y-116418264D01*
X131610677Y-116465204D01*
X131553339Y-116507071D01*
X131510714Y-116514500D01*
X130997016Y-116514500D01*
X130928895Y-116494498D01*
X130907921Y-116477595D01*
X129540407Y-115110081D01*
X129506381Y-115047769D01*
X129511446Y-114976954D01*
X129553993Y-114920118D01*
X129613056Y-114896064D01*
X129613406Y-114896018D01*
X129696762Y-114885044D01*
X129842841Y-114824536D01*
X129849394Y-114819508D01*
X129849397Y-114819506D01*
X129964245Y-114731380D01*
X130030465Y-114705779D01*
X130100014Y-114720044D01*
X130150810Y-114769645D01*
X130166726Y-114838834D01*
X130165871Y-114847787D01*
X130160476Y-114888772D01*
X130158444Y-114904206D01*
X130179082Y-115060968D01*
X130239590Y-115207047D01*
X130335844Y-115332488D01*
X130461285Y-115428742D01*
X130607364Y-115489250D01*
X130764126Y-115509888D01*
X130772314Y-115508810D01*
X130802751Y-115504803D01*
X130920888Y-115489250D01*
X131066967Y-115428742D01*
X131192408Y-115332488D01*
X131288662Y-115207047D01*
X131349170Y-115060968D01*
X131369808Y-114904206D01*
X131349170Y-114747444D01*
X131288662Y-114601365D01*
X131192408Y-114475924D01*
X131167436Y-114456762D01*
X131138922Y-114434883D01*
X131097055Y-114377545D01*
X131089626Y-114334920D01*
X131089626Y-110045401D01*
X133348917Y-110045401D01*
X133349995Y-110053589D01*
X133365699Y-110172870D01*
X133369555Y-110202163D01*
X133430063Y-110348242D01*
X133526317Y-110473683D01*
X133651758Y-110569937D01*
X133797837Y-110630445D01*
X133954599Y-110651083D01*
X133962787Y-110650005D01*
X134103173Y-110631523D01*
X134111361Y-110630445D01*
X134257440Y-110569937D01*
X134382881Y-110473683D01*
X134479135Y-110348242D01*
X134539643Y-110202163D01*
X134543500Y-110172870D01*
X134559203Y-110053589D01*
X134560281Y-110045401D01*
X134551481Y-109978560D01*
X134562420Y-109908412D01*
X134587308Y-109873019D01*
X134597922Y-109862405D01*
X134660234Y-109828379D01*
X134687017Y-109825500D01*
X142430714Y-109825500D01*
X142498835Y-109845502D01*
X142530677Y-109874796D01*
X142571718Y-109928282D01*
X142697159Y-110024536D01*
X142843238Y-110085044D01*
X143000000Y-110105682D01*
X143008188Y-110104604D01*
X143148574Y-110086122D01*
X143156762Y-110085044D01*
X143302841Y-110024536D01*
X143428282Y-109928282D01*
X143524536Y-109802841D01*
X143585044Y-109656762D01*
X143605682Y-109500000D01*
X143585044Y-109343238D01*
X143524536Y-109197159D01*
X143428282Y-109071718D01*
X143302841Y-108975464D01*
X143156762Y-108914956D01*
X143000000Y-108894318D01*
X142843238Y-108914956D01*
X142697159Y-108975464D01*
X142571718Y-109071718D01*
X142566695Y-109078264D01*
X142530677Y-109125204D01*
X142473339Y-109167071D01*
X142430714Y-109174500D01*
X134519698Y-109174500D01*
X134508716Y-109174020D01*
X134482180Y-109171698D01*
X134482178Y-109171698D01*
X134471193Y-109170737D01*
X134460543Y-109173591D01*
X134460541Y-109173591D01*
X134434804Y-109180488D01*
X134424069Y-109182868D01*
X134416508Y-109184201D01*
X134386955Y-109189412D01*
X134377407Y-109194924D01*
X134374130Y-109196117D01*
X134370962Y-109197594D01*
X134360316Y-109200447D01*
X134351287Y-109206769D01*
X134329453Y-109222057D01*
X134320185Y-109227961D01*
X134287545Y-109246806D01*
X134280462Y-109255247D01*
X134280461Y-109255248D01*
X134263320Y-109275676D01*
X134255894Y-109283779D01*
X134126981Y-109412692D01*
X134064669Y-109446718D01*
X134021441Y-109448519D01*
X133954599Y-109439719D01*
X133797837Y-109460357D01*
X133651758Y-109520865D01*
X133526317Y-109617119D01*
X133430063Y-109742560D01*
X133369555Y-109888639D01*
X133348917Y-110045401D01*
X131089626Y-110045401D01*
X131089626Y-107799748D01*
X137129500Y-107799748D01*
X137141133Y-107858231D01*
X137185448Y-107924552D01*
X137251769Y-107968867D01*
X137263938Y-107971288D01*
X137263939Y-107971288D01*
X137291128Y-107976696D01*
X137310252Y-107980500D01*
X139549748Y-107980500D01*
X139568872Y-107976696D01*
X139596061Y-107971288D01*
X139596062Y-107971288D01*
X139608231Y-107968867D01*
X139674552Y-107924552D01*
X139718867Y-107858231D01*
X139730500Y-107799748D01*
X139730500Y-105560252D01*
X139718867Y-105501769D01*
X139674552Y-105435448D01*
X139608231Y-105391133D01*
X139596062Y-105388712D01*
X139596061Y-105388712D01*
X139555816Y-105380707D01*
X139549748Y-105379500D01*
X137310252Y-105379500D01*
X137304184Y-105380707D01*
X137263939Y-105388712D01*
X137263938Y-105388712D01*
X137251769Y-105391133D01*
X137185448Y-105435448D01*
X137141133Y-105501769D01*
X137129500Y-105560252D01*
X137129500Y-107799748D01*
X131089626Y-107799748D01*
X131089626Y-101555361D01*
X162125316Y-101555361D01*
X162137443Y-101807820D01*
X162186752Y-102055713D01*
X162188331Y-102060111D01*
X162188333Y-102060118D01*
X162270577Y-102289186D01*
X162272160Y-102293595D01*
X162391792Y-102516240D01*
X162394587Y-102519984D01*
X162394589Y-102519986D01*
X162540226Y-102715018D01*
X162540231Y-102715024D01*
X162543018Y-102718756D01*
X162546327Y-102722036D01*
X162546332Y-102722042D01*
X162719200Y-102893408D01*
X162722517Y-102896696D01*
X162726279Y-102899454D01*
X162726282Y-102899457D01*
X162878878Y-103011344D01*
X162926346Y-103046149D01*
X162930481Y-103048325D01*
X162930485Y-103048327D01*
X163047952Y-103110129D01*
X163150026Y-103163833D01*
X163388644Y-103247162D01*
X163393237Y-103248034D01*
X163632369Y-103293435D01*
X163632372Y-103293435D01*
X163636958Y-103294306D01*
X163757081Y-103299026D01*
X163884845Y-103304046D01*
X163884850Y-103304046D01*
X163889513Y-103304229D01*
X163967657Y-103295671D01*
X164136107Y-103277223D01*
X164136112Y-103277222D01*
X164140760Y-103276713D01*
X164258861Y-103245620D01*
X164380658Y-103213554D01*
X164380661Y-103213553D01*
X164385181Y-103212363D01*
X164617405Y-103112591D01*
X164696172Y-103063848D01*
X164764625Y-103045010D01*
X164832395Y-103066171D01*
X164851571Y-103081897D01*
X167277595Y-105507921D01*
X167311621Y-105570233D01*
X167314500Y-105597016D01*
X167314500Y-125160714D01*
X167294498Y-125228835D01*
X167265204Y-125260677D01*
X167211718Y-125301718D01*
X167115464Y-125427159D01*
X167054956Y-125573238D01*
X167034318Y-125730000D01*
X167054956Y-125886762D01*
X167115464Y-126032841D01*
X167211718Y-126158282D01*
X167337159Y-126254536D01*
X167483238Y-126315044D01*
X167640000Y-126335682D01*
X167648188Y-126334604D01*
X167788574Y-126316122D01*
X167796762Y-126315044D01*
X167942841Y-126254536D01*
X168068282Y-126158282D01*
X168164536Y-126032841D01*
X168225044Y-125886762D01*
X168245682Y-125730000D01*
X168225044Y-125573238D01*
X168164536Y-125427159D01*
X168068282Y-125301718D01*
X168014796Y-125260677D01*
X167972929Y-125203339D01*
X167965500Y-125160714D01*
X167965500Y-105429710D01*
X167965980Y-105418728D01*
X167968303Y-105392180D01*
X167968303Y-105392178D01*
X167969264Y-105381193D01*
X167959508Y-105344785D01*
X167957130Y-105334058D01*
X167956456Y-105330237D01*
X167950588Y-105296955D01*
X167945077Y-105287410D01*
X167943885Y-105284134D01*
X167942408Y-105280966D01*
X167939554Y-105270316D01*
X167917945Y-105239456D01*
X167912039Y-105230185D01*
X167898707Y-105207094D01*
X167893194Y-105197545D01*
X167864317Y-105173315D01*
X167856215Y-105165889D01*
X165312525Y-102622199D01*
X165278499Y-102559887D01*
X165283564Y-102489072D01*
X165295649Y-102464941D01*
X165326094Y-102417609D01*
X165328619Y-102413684D01*
X165432428Y-102183236D01*
X165501034Y-101939976D01*
X165517263Y-101812409D01*
X165532533Y-101692378D01*
X165532533Y-101692372D01*
X165532931Y-101689247D01*
X165535268Y-101600000D01*
X165516537Y-101347945D01*
X165460756Y-101101428D01*
X165369150Y-100865863D01*
X165243731Y-100646426D01*
X165087255Y-100447938D01*
X164903160Y-100274758D01*
X164695489Y-100130691D01*
X164691296Y-100128623D01*
X164472993Y-100020968D01*
X164472990Y-100020967D01*
X164468805Y-100018903D01*
X164424379Y-100004682D01*
X164372403Y-99988045D01*
X164228087Y-99941849D01*
X164223480Y-99941099D01*
X164223477Y-99941098D01*
X163983235Y-99901972D01*
X163983236Y-99901972D01*
X163978624Y-99901221D01*
X163856026Y-99899616D01*
X163730573Y-99897974D01*
X163730570Y-99897974D01*
X163725896Y-99897913D01*
X163475455Y-99931996D01*
X163470965Y-99933305D01*
X163470959Y-99933306D01*
X163367851Y-99963360D01*
X163232803Y-100002723D01*
X163228556Y-100004681D01*
X163228553Y-100004682D01*
X163193226Y-100020968D01*
X163003270Y-100108539D01*
X162999361Y-100111102D01*
X162795812Y-100244554D01*
X162795807Y-100244558D01*
X162791899Y-100247120D01*
X162603333Y-100415421D01*
X162441715Y-100609746D01*
X162310595Y-100825825D01*
X162308786Y-100830139D01*
X162308785Y-100830141D01*
X162293806Y-100865863D01*
X162212854Y-101058911D01*
X162150639Y-101303883D01*
X162125316Y-101555361D01*
X131089626Y-101555361D01*
X131089626Y-96493839D01*
X131090105Y-96482858D01*
X131090761Y-96475361D01*
X162125316Y-96475361D01*
X162125540Y-96480027D01*
X162125540Y-96480033D01*
X162127309Y-96516851D01*
X162137443Y-96727820D01*
X162138356Y-96732409D01*
X162167150Y-96877165D01*
X162186752Y-96975713D01*
X162188331Y-96980111D01*
X162188333Y-96980118D01*
X162270577Y-97209186D01*
X162272160Y-97213595D01*
X162391792Y-97436240D01*
X162394587Y-97439984D01*
X162394589Y-97439986D01*
X162540226Y-97635018D01*
X162540231Y-97635024D01*
X162543018Y-97638756D01*
X162546327Y-97642036D01*
X162546332Y-97642042D01*
X162715470Y-97809710D01*
X162722517Y-97816696D01*
X162726279Y-97819454D01*
X162726282Y-97819457D01*
X162848262Y-97908896D01*
X162926346Y-97966149D01*
X162930481Y-97968325D01*
X162930485Y-97968327D01*
X163047952Y-98030129D01*
X163150026Y-98083833D01*
X163388644Y-98167162D01*
X163393237Y-98168034D01*
X163632369Y-98213435D01*
X163632372Y-98213435D01*
X163636958Y-98214306D01*
X163757081Y-98219026D01*
X163884845Y-98224046D01*
X163884850Y-98224046D01*
X163889513Y-98224229D01*
X163967657Y-98215671D01*
X164136107Y-98197223D01*
X164136112Y-98197222D01*
X164140760Y-98196713D01*
X164258861Y-98165620D01*
X164380658Y-98133554D01*
X164380661Y-98133553D01*
X164385181Y-98132363D01*
X164617405Y-98032591D01*
X164724774Y-97966149D01*
X164828358Y-97902050D01*
X164828362Y-97902047D01*
X164832331Y-97899591D01*
X164926989Y-97819457D01*
X165021672Y-97739302D01*
X165021673Y-97739301D01*
X165025238Y-97736283D01*
X165077268Y-97676955D01*
X165188806Y-97549771D01*
X165188810Y-97549766D01*
X165191888Y-97546256D01*
X165265300Y-97432125D01*
X165326094Y-97337610D01*
X165326096Y-97337607D01*
X165328619Y-97333684D01*
X165432428Y-97103236D01*
X165479227Y-96937299D01*
X165516968Y-96877165D01*
X165581230Y-96846982D01*
X165600496Y-96845500D01*
X166182984Y-96845500D01*
X166251105Y-96865502D01*
X166272079Y-96882405D01*
X168277291Y-98887618D01*
X168311317Y-98949930D01*
X168313118Y-98993158D01*
X168304318Y-99060000D01*
X168324956Y-99216762D01*
X168385464Y-99362841D01*
X168481718Y-99488282D01*
X168607159Y-99584536D01*
X168753238Y-99645044D01*
X168910000Y-99665682D01*
X168918188Y-99664604D01*
X169058574Y-99646122D01*
X169066762Y-99645044D01*
X169212841Y-99584536D01*
X169338282Y-99488282D01*
X169434536Y-99362841D01*
X169495044Y-99216762D01*
X169515682Y-99060000D01*
X169495044Y-98903238D01*
X169434536Y-98757159D01*
X169338282Y-98631718D01*
X169212841Y-98535464D01*
X169066762Y-98474956D01*
X168910000Y-98454318D01*
X168843159Y-98463118D01*
X168773011Y-98452179D01*
X168737618Y-98427291D01*
X166614110Y-96303784D01*
X166606683Y-96295680D01*
X166589541Y-96275251D01*
X166589542Y-96275251D01*
X166582455Y-96266806D01*
X166572906Y-96261293D01*
X166549815Y-96247961D01*
X166540544Y-96242055D01*
X166533970Y-96237452D01*
X166509684Y-96220446D01*
X166499034Y-96217592D01*
X166495866Y-96216115D01*
X166492590Y-96214923D01*
X166483045Y-96209412D01*
X166449301Y-96203462D01*
X166445942Y-96202870D01*
X166435215Y-96200492D01*
X166398807Y-96190736D01*
X166387822Y-96191697D01*
X166387820Y-96191697D01*
X166361272Y-96194020D01*
X166350290Y-96194500D01*
X165600593Y-96194500D01*
X165532472Y-96174498D01*
X165485979Y-96120842D01*
X165477700Y-96096308D01*
X165461787Y-96025985D01*
X165460756Y-96021428D01*
X165369150Y-95785863D01*
X165243731Y-95566426D01*
X165087255Y-95367938D01*
X164903160Y-95194758D01*
X164695489Y-95050691D01*
X164691296Y-95048623D01*
X164472993Y-94940968D01*
X164472990Y-94940967D01*
X164468805Y-94938903D01*
X164424379Y-94924682D01*
X164328499Y-94893991D01*
X164228087Y-94861849D01*
X164223480Y-94861099D01*
X164223477Y-94861098D01*
X163983235Y-94821972D01*
X163983236Y-94821972D01*
X163978624Y-94821221D01*
X163856026Y-94819616D01*
X163730573Y-94817974D01*
X163730570Y-94817974D01*
X163725896Y-94817913D01*
X163475455Y-94851996D01*
X163470965Y-94853305D01*
X163470959Y-94853306D01*
X163380030Y-94879810D01*
X163232803Y-94922723D01*
X163228556Y-94924681D01*
X163228553Y-94924682D01*
X163193226Y-94940968D01*
X163003270Y-95028539D01*
X162999361Y-95031102D01*
X162795812Y-95164554D01*
X162795807Y-95164558D01*
X162791899Y-95167120D01*
X162603333Y-95335421D01*
X162441715Y-95529746D01*
X162310595Y-95745825D01*
X162308786Y-95750139D01*
X162308785Y-95750141D01*
X162293806Y-95785863D01*
X162212854Y-95978911D01*
X162150639Y-96223883D01*
X162125316Y-96475361D01*
X131090761Y-96475361D01*
X131092429Y-96456296D01*
X131092429Y-96456294D01*
X131093389Y-96445319D01*
X131083634Y-96408909D01*
X131081259Y-96398198D01*
X131076627Y-96371932D01*
X131074714Y-96361081D01*
X131069204Y-96351537D01*
X131068012Y-96348261D01*
X131066533Y-96345090D01*
X131063680Y-96334442D01*
X131042066Y-96303574D01*
X131036162Y-96294305D01*
X131022835Y-96271222D01*
X131022833Y-96271219D01*
X131017320Y-96261671D01*
X130988457Y-96237452D01*
X130980353Y-96230026D01*
X129334926Y-94584599D01*
X133348917Y-94584599D01*
X133369555Y-94741361D01*
X133430063Y-94887440D01*
X133526317Y-95012881D01*
X133532863Y-95017904D01*
X133546723Y-95028539D01*
X133651758Y-95109135D01*
X133797837Y-95169643D01*
X133954599Y-95190281D01*
X133962787Y-95189203D01*
X134103173Y-95170721D01*
X134111361Y-95169643D01*
X134257440Y-95109135D01*
X134362475Y-95028539D01*
X134376335Y-95017904D01*
X134382881Y-95012881D01*
X134479135Y-94887440D01*
X134539643Y-94741361D01*
X134560281Y-94584599D01*
X134539643Y-94427837D01*
X134479135Y-94281758D01*
X134382881Y-94156317D01*
X134329395Y-94115276D01*
X134287528Y-94057938D01*
X134280099Y-94015313D01*
X134280099Y-92369397D01*
X154195157Y-92369397D01*
X154204453Y-92381412D01*
X154262685Y-92422187D01*
X154272175Y-92427665D01*
X154474789Y-92522146D01*
X154485081Y-92525892D01*
X154701021Y-92583753D01*
X154711816Y-92585656D01*
X154934525Y-92605141D01*
X154945475Y-92605141D01*
X155168184Y-92585656D01*
X155178979Y-92583753D01*
X155394919Y-92525892D01*
X155405211Y-92522146D01*
X155607825Y-92427665D01*
X155617315Y-92422187D01*
X155676386Y-92380825D01*
X155684760Y-92370349D01*
X155677691Y-92356901D01*
X154952812Y-91632022D01*
X154938868Y-91624408D01*
X154937035Y-91624539D01*
X154930420Y-91628790D01*
X154201587Y-92357623D01*
X154195157Y-92369397D01*
X134280099Y-92369397D01*
X134280099Y-92292417D01*
X134300101Y-92224296D01*
X134317004Y-92203322D01*
X135254851Y-91265475D01*
X153594859Y-91265475D01*
X153614344Y-91488184D01*
X153616247Y-91498979D01*
X153674108Y-91714919D01*
X153677854Y-91725211D01*
X153772335Y-91927825D01*
X153777813Y-91937315D01*
X153819175Y-91996386D01*
X153829651Y-92004760D01*
X153843099Y-91997691D01*
X154567978Y-91272812D01*
X154574356Y-91261132D01*
X155304408Y-91261132D01*
X155304539Y-91262965D01*
X155308790Y-91269580D01*
X156037623Y-91998413D01*
X156049397Y-92004843D01*
X156061412Y-91995547D01*
X156102187Y-91937315D01*
X156107665Y-91927825D01*
X156202146Y-91725211D01*
X156205892Y-91714919D01*
X156263753Y-91498979D01*
X156265656Y-91488184D01*
X156273777Y-91395361D01*
X162125316Y-91395361D01*
X162125540Y-91400027D01*
X162125540Y-91400033D01*
X162130293Y-91498979D01*
X162137443Y-91647820D01*
X162138356Y-91652409D01*
X162178252Y-91852979D01*
X162186752Y-91895713D01*
X162188331Y-91900111D01*
X162188333Y-91900118D01*
X162247871Y-92065945D01*
X162272160Y-92133595D01*
X162391792Y-92356240D01*
X162394587Y-92359984D01*
X162394589Y-92359986D01*
X162540226Y-92555018D01*
X162540231Y-92555024D01*
X162543018Y-92558756D01*
X162546327Y-92562036D01*
X162546332Y-92562042D01*
X162719200Y-92733408D01*
X162722517Y-92736696D01*
X162726279Y-92739454D01*
X162726282Y-92739457D01*
X162922575Y-92883384D01*
X162926346Y-92886149D01*
X162930481Y-92888325D01*
X162930485Y-92888327D01*
X163047952Y-92950129D01*
X163150026Y-93003833D01*
X163388644Y-93087162D01*
X163393237Y-93088034D01*
X163632369Y-93133435D01*
X163632372Y-93133435D01*
X163636958Y-93134306D01*
X163757081Y-93139026D01*
X163884845Y-93144046D01*
X163884850Y-93144046D01*
X163889513Y-93144229D01*
X163967657Y-93135671D01*
X164136107Y-93117223D01*
X164136112Y-93117222D01*
X164140760Y-93116713D01*
X164145284Y-93115522D01*
X164380658Y-93053554D01*
X164380661Y-93053553D01*
X164385181Y-93052363D01*
X164617405Y-92952591D01*
X164724774Y-92886149D01*
X164828358Y-92822050D01*
X164828362Y-92822047D01*
X164832331Y-92819591D01*
X164926989Y-92739457D01*
X165021672Y-92659302D01*
X165021673Y-92659301D01*
X165025238Y-92656283D01*
X165087177Y-92585656D01*
X165188806Y-92469771D01*
X165188810Y-92469766D01*
X165191888Y-92466256D01*
X165246839Y-92380825D01*
X165326094Y-92257610D01*
X165326096Y-92257607D01*
X165328619Y-92253684D01*
X165432428Y-92023236D01*
X165501034Y-91779976D01*
X165517263Y-91652409D01*
X165532533Y-91532378D01*
X165532533Y-91532372D01*
X165532931Y-91529247D01*
X165535268Y-91440000D01*
X165524306Y-91292487D01*
X165516883Y-91192597D01*
X165516882Y-91192593D01*
X165516537Y-91187945D01*
X165460756Y-90941428D01*
X165444222Y-90898911D01*
X165370843Y-90710216D01*
X165370842Y-90710214D01*
X165369150Y-90705863D01*
X165347989Y-90668838D01*
X165298748Y-90582685D01*
X165243731Y-90486426D01*
X165094860Y-90297585D01*
X165090147Y-90291606D01*
X165090144Y-90291603D01*
X165087255Y-90287938D01*
X164903160Y-90114758D01*
X164734644Y-89997854D01*
X164699331Y-89973356D01*
X164699328Y-89973354D01*
X164695489Y-89970691D01*
X164658419Y-89952410D01*
X164472993Y-89860968D01*
X164472990Y-89860967D01*
X164468805Y-89858903D01*
X164424379Y-89844682D01*
X164372403Y-89828045D01*
X164228087Y-89781849D01*
X164223480Y-89781099D01*
X164223477Y-89781098D01*
X163983235Y-89741972D01*
X163983236Y-89741972D01*
X163978624Y-89741221D01*
X163856026Y-89739616D01*
X163730573Y-89737974D01*
X163730570Y-89737974D01*
X163725896Y-89737913D01*
X163475455Y-89771996D01*
X163470965Y-89773305D01*
X163470959Y-89773306D01*
X163394995Y-89795448D01*
X163232803Y-89842723D01*
X163228556Y-89844681D01*
X163228553Y-89844682D01*
X163193226Y-89860968D01*
X163003270Y-89948539D01*
X162999361Y-89951102D01*
X162795812Y-90084554D01*
X162795807Y-90084558D01*
X162791899Y-90087120D01*
X162735346Y-90137595D01*
X162614981Y-90245025D01*
X162603333Y-90255421D01*
X162441715Y-90449746D01*
X162310595Y-90665825D01*
X162308786Y-90670139D01*
X162308785Y-90670141D01*
X162217439Y-90887978D01*
X162212854Y-90898911D01*
X162150639Y-91143883D01*
X162125316Y-91395361D01*
X156273777Y-91395361D01*
X156285141Y-91265475D01*
X156285141Y-91254525D01*
X156265656Y-91031816D01*
X156263753Y-91021021D01*
X156205892Y-90805081D01*
X156202146Y-90794789D01*
X156107665Y-90592175D01*
X156102187Y-90582685D01*
X156060825Y-90523614D01*
X156050349Y-90515240D01*
X156036901Y-90522309D01*
X155312022Y-91247188D01*
X155304408Y-91261132D01*
X154574356Y-91261132D01*
X154575592Y-91258868D01*
X154575461Y-91257035D01*
X154571210Y-91250420D01*
X153842377Y-90521587D01*
X153830603Y-90515157D01*
X153818588Y-90524453D01*
X153777813Y-90582685D01*
X153772335Y-90592175D01*
X153677854Y-90794789D01*
X153674108Y-90805081D01*
X153616247Y-91021021D01*
X153614344Y-91031816D01*
X153594859Y-91254525D01*
X153594859Y-91265475D01*
X135254851Y-91265475D01*
X139527617Y-86992709D01*
X139589929Y-86958683D01*
X139633157Y-86956882D01*
X139700000Y-86965682D01*
X139708188Y-86964604D01*
X139848574Y-86946122D01*
X139856762Y-86945044D01*
X140002841Y-86884536D01*
X140128282Y-86788282D01*
X140224536Y-86662841D01*
X140285044Y-86516762D01*
X140305682Y-86360000D01*
X140285044Y-86203238D01*
X140224536Y-86057159D01*
X140128282Y-85931718D01*
X140002841Y-85835464D01*
X139856762Y-85774956D01*
X139700000Y-85754318D01*
X139543238Y-85774956D01*
X139397159Y-85835464D01*
X139271718Y-85931718D01*
X139175464Y-86057159D01*
X139114956Y-86203238D01*
X139094318Y-86360000D01*
X139096070Y-86373304D01*
X139103118Y-86426842D01*
X139092179Y-86496990D01*
X139067291Y-86532383D01*
X133738384Y-91861290D01*
X133730280Y-91868717D01*
X133701405Y-91892946D01*
X133695892Y-91902495D01*
X133682560Y-91925586D01*
X133676654Y-91934857D01*
X133655045Y-91965717D01*
X133652191Y-91976367D01*
X133650714Y-91979535D01*
X133649522Y-91982811D01*
X133644011Y-91992356D01*
X133639361Y-92018729D01*
X133637469Y-92029459D01*
X133635091Y-92040186D01*
X133625335Y-92076594D01*
X133626296Y-92087579D01*
X133626296Y-92087581D01*
X133628619Y-92114129D01*
X133629099Y-92125111D01*
X133629099Y-94015313D01*
X133609097Y-94083434D01*
X133579803Y-94115276D01*
X133526317Y-94156317D01*
X133430063Y-94281758D01*
X133369555Y-94427837D01*
X133348917Y-94584599D01*
X129334926Y-94584599D01*
X125995833Y-91245507D01*
X131042103Y-91245507D01*
X131059055Y-91447379D01*
X131060754Y-91453304D01*
X131111074Y-91628790D01*
X131114894Y-91642113D01*
X131127189Y-91666036D01*
X131204676Y-91816810D01*
X131204679Y-91816815D01*
X131207494Y-91822292D01*
X131333327Y-91981054D01*
X131338021Y-91985049D01*
X131402813Y-92040191D01*
X131487600Y-92112351D01*
X131492978Y-92115357D01*
X131492980Y-92115358D01*
X131530650Y-92136411D01*
X131664439Y-92211183D01*
X131857105Y-92273784D01*
X132058262Y-92297770D01*
X132064397Y-92297298D01*
X132064399Y-92297298D01*
X132254105Y-92282701D01*
X132254110Y-92282700D01*
X132260246Y-92282228D01*
X132266176Y-92280572D01*
X132266178Y-92280572D01*
X132362480Y-92253684D01*
X132455366Y-92227750D01*
X132484394Y-92213087D01*
X132630686Y-92139190D01*
X132630688Y-92139189D01*
X132636187Y-92136411D01*
X132795824Y-92011689D01*
X132809758Y-91995547D01*
X132898320Y-91892946D01*
X132928195Y-91858336D01*
X133028258Y-91682192D01*
X133044948Y-91632022D01*
X133090256Y-91495819D01*
X133092203Y-91489967D01*
X133117593Y-91288983D01*
X133117864Y-91269580D01*
X133117949Y-91263522D01*
X133117949Y-91263518D01*
X133117998Y-91260000D01*
X133098229Y-91058385D01*
X133096448Y-91052486D01*
X133096447Y-91052481D01*
X133041458Y-90870349D01*
X133039677Y-90864450D01*
X133020968Y-90829263D01*
X132947465Y-90691023D01*
X132947463Y-90691020D01*
X132944571Y-90685581D01*
X132940681Y-90680811D01*
X132940678Y-90680807D01*
X132820428Y-90533366D01*
X132820425Y-90533363D01*
X132816533Y-90528591D01*
X132809899Y-90523103D01*
X132665191Y-90403390D01*
X132665188Y-90403388D01*
X132660441Y-90399461D01*
X132482240Y-90303108D01*
X132339815Y-90259020D01*
X132294605Y-90245025D01*
X132294602Y-90245024D01*
X132288718Y-90243203D01*
X132282593Y-90242559D01*
X132282592Y-90242559D01*
X132093375Y-90222671D01*
X132093374Y-90222671D01*
X132087247Y-90222027D01*
X132003846Y-90229617D01*
X131891638Y-90239829D01*
X131891635Y-90239830D01*
X131885499Y-90240388D01*
X131879593Y-90242126D01*
X131879589Y-90242127D01*
X131822192Y-90259020D01*
X131691159Y-90297585D01*
X131511630Y-90391440D01*
X131353751Y-90518379D01*
X131223534Y-90673565D01*
X131220564Y-90678968D01*
X131220563Y-90678969D01*
X131151891Y-90803883D01*
X131125939Y-90851089D01*
X131064685Y-91044188D01*
X131063999Y-91050305D01*
X131063998Y-91050309D01*
X131048560Y-91187945D01*
X131042103Y-91245507D01*
X125995833Y-91245507D01*
X125974110Y-91223784D01*
X125966683Y-91215680D01*
X125949541Y-91195251D01*
X125949542Y-91195251D01*
X125942455Y-91186806D01*
X125932906Y-91181293D01*
X125909815Y-91167961D01*
X125900544Y-91162055D01*
X125869684Y-91140446D01*
X125859034Y-91137592D01*
X125855866Y-91136115D01*
X125852590Y-91134923D01*
X125843045Y-91129412D01*
X125809301Y-91123462D01*
X125805942Y-91122870D01*
X125795215Y-91120492D01*
X125758807Y-91110736D01*
X125747822Y-91111697D01*
X125747820Y-91111697D01*
X125721272Y-91114020D01*
X125710290Y-91114500D01*
X125016500Y-91114500D01*
X124948379Y-91094498D01*
X124901886Y-91040842D01*
X124890500Y-90988500D01*
X124890500Y-89920252D01*
X124885556Y-89895396D01*
X124881288Y-89873939D01*
X124881288Y-89873938D01*
X124878867Y-89861769D01*
X124834552Y-89795448D01*
X124768231Y-89751133D01*
X124756062Y-89748712D01*
X124756061Y-89748712D01*
X124715816Y-89740707D01*
X124709748Y-89739500D01*
X121670252Y-89739500D01*
X121664184Y-89740707D01*
X121623939Y-89748712D01*
X121623938Y-89748712D01*
X121611769Y-89751133D01*
X121545448Y-89795448D01*
X121501133Y-89861769D01*
X121498712Y-89873938D01*
X121498712Y-89873939D01*
X121494444Y-89895396D01*
X121489500Y-89920252D01*
X121489500Y-92959748D01*
X121501133Y-93018231D01*
X121545448Y-93084552D01*
X121611769Y-93128867D01*
X121623938Y-93131288D01*
X121623939Y-93131288D01*
X121664184Y-93139293D01*
X121670252Y-93140500D01*
X124709748Y-93140500D01*
X124715816Y-93139293D01*
X124756061Y-93131288D01*
X124756062Y-93131288D01*
X124768231Y-93128867D01*
X124834552Y-93084552D01*
X124878867Y-93018231D01*
X124890500Y-92959748D01*
X124890500Y-91891500D01*
X124910502Y-91823379D01*
X124964158Y-91776886D01*
X125016500Y-91765500D01*
X125542984Y-91765500D01*
X125611105Y-91785502D01*
X125632079Y-91802405D01*
X130401721Y-96572048D01*
X130435747Y-96634360D01*
X130438626Y-96661143D01*
X130438626Y-114334920D01*
X130418624Y-114403041D01*
X130389331Y-114434882D01*
X130339881Y-114472826D01*
X130273661Y-114498427D01*
X130204112Y-114484163D01*
X130153316Y-114434562D01*
X130137400Y-114365372D01*
X130138255Y-114356419D01*
X130144604Y-114308190D01*
X130144604Y-114308187D01*
X130145682Y-114300000D01*
X130125044Y-114143238D01*
X130064536Y-113997159D01*
X129968282Y-113871718D01*
X129914796Y-113830677D01*
X129872929Y-113773339D01*
X129865500Y-113730714D01*
X129865500Y-107969713D01*
X129865979Y-107958732D01*
X129868303Y-107932170D01*
X129868303Y-107932168D01*
X129869263Y-107921193D01*
X129859508Y-107884783D01*
X129857133Y-107874072D01*
X129854758Y-107860605D01*
X129850588Y-107836955D01*
X129845079Y-107827412D01*
X129843888Y-107824140D01*
X129842408Y-107820967D01*
X129839554Y-107810316D01*
X129817945Y-107779456D01*
X129812039Y-107770185D01*
X129798707Y-107747094D01*
X129793194Y-107737545D01*
X129764317Y-107713315D01*
X129756215Y-107705889D01*
X124672525Y-102622199D01*
X124638499Y-102559887D01*
X124643564Y-102489072D01*
X124655649Y-102464941D01*
X124686094Y-102417609D01*
X124688619Y-102413684D01*
X124792428Y-102183236D01*
X124861034Y-101939976D01*
X124877263Y-101812409D01*
X124892533Y-101692378D01*
X124892533Y-101692372D01*
X124892931Y-101689247D01*
X124895268Y-101600000D01*
X124876537Y-101347945D01*
X124820756Y-101101428D01*
X124729150Y-100865863D01*
X124603731Y-100646426D01*
X124447255Y-100447938D01*
X124263160Y-100274758D01*
X124055489Y-100130691D01*
X124051296Y-100128623D01*
X123832993Y-100020968D01*
X123832990Y-100020967D01*
X123828805Y-100018903D01*
X123784379Y-100004682D01*
X123732403Y-99988045D01*
X123588087Y-99941849D01*
X123583480Y-99941099D01*
X123583477Y-99941098D01*
X123343235Y-99901972D01*
X123343236Y-99901972D01*
X123338624Y-99901221D01*
X123216026Y-99899616D01*
X123090573Y-99897974D01*
X123090570Y-99897974D01*
X123085896Y-99897913D01*
X122835455Y-99931996D01*
X122830965Y-99933305D01*
X122830959Y-99933306D01*
X122727851Y-99963360D01*
X122592803Y-100002723D01*
X122588556Y-100004681D01*
X122588553Y-100004682D01*
X122553226Y-100020968D01*
X122363270Y-100108539D01*
X122359361Y-100111102D01*
X122155812Y-100244554D01*
X122155807Y-100244558D01*
X122151899Y-100247120D01*
X121963333Y-100415421D01*
X121801715Y-100609746D01*
X121670595Y-100825825D01*
X121668786Y-100830139D01*
X121668785Y-100830141D01*
X121653806Y-100865863D01*
X121572854Y-101058911D01*
X121510639Y-101303883D01*
X121485316Y-101555361D01*
X121497443Y-101807820D01*
X121546752Y-102055713D01*
X121548331Y-102060111D01*
X121548333Y-102060118D01*
X121630577Y-102289186D01*
X121632160Y-102293595D01*
X121751792Y-102516240D01*
X121754587Y-102519984D01*
X121754589Y-102519986D01*
X121900226Y-102715018D01*
X121900231Y-102715024D01*
X121903018Y-102718756D01*
X121906327Y-102722036D01*
X121906332Y-102722042D01*
X122079200Y-102893408D01*
X122082517Y-102896696D01*
X122086279Y-102899454D01*
X122086282Y-102899457D01*
X122238878Y-103011344D01*
X122286346Y-103046149D01*
X122290481Y-103048325D01*
X122290485Y-103048327D01*
X122407952Y-103110129D01*
X122510026Y-103163833D01*
X122748644Y-103247162D01*
X122753237Y-103248034D01*
X122992369Y-103293435D01*
X122992372Y-103293435D01*
X122996958Y-103294306D01*
X123117081Y-103299026D01*
X123244845Y-103304046D01*
X123244850Y-103304046D01*
X123249513Y-103304229D01*
X123327657Y-103295671D01*
X123496107Y-103277223D01*
X123496112Y-103277222D01*
X123500760Y-103276713D01*
X123618861Y-103245620D01*
X123740658Y-103213554D01*
X123740661Y-103213553D01*
X123745181Y-103212363D01*
X123977405Y-103112591D01*
X124056172Y-103063848D01*
X124124625Y-103045010D01*
X124192395Y-103066171D01*
X124211571Y-103081897D01*
X129177595Y-108047921D01*
X129211621Y-108110233D01*
X129214500Y-108137016D01*
X129214500Y-113730714D01*
X129194498Y-113798835D01*
X129165204Y-113830677D01*
X129111718Y-113871718D01*
X129015464Y-113997159D01*
X128954956Y-114143238D01*
X128953878Y-114151426D01*
X128943936Y-114226944D01*
X128915214Y-114291871D01*
X128855949Y-114330963D01*
X128784957Y-114331808D01*
X128729919Y-114299593D01*
X124704111Y-110273785D01*
X124696684Y-110265681D01*
X124679541Y-110245251D01*
X124679542Y-110245251D01*
X124672455Y-110236806D01*
X124662906Y-110231293D01*
X124639815Y-110217961D01*
X124630544Y-110212055D01*
X124608715Y-110196770D01*
X124599684Y-110190446D01*
X124589034Y-110187592D01*
X124585866Y-110186115D01*
X124582590Y-110184923D01*
X124573045Y-110179412D01*
X124539301Y-110173462D01*
X124535942Y-110172870D01*
X124525215Y-110170492D01*
X124488807Y-110160736D01*
X124477822Y-110161697D01*
X124477820Y-110161697D01*
X124451272Y-110164020D01*
X124440290Y-110164500D01*
X122107017Y-110164500D01*
X122038896Y-110144498D01*
X122017922Y-110127595D01*
X121012405Y-109122079D01*
X120978380Y-109059767D01*
X120975500Y-109032984D01*
X120975500Y-106635361D01*
X121485316Y-106635361D01*
X121497443Y-106887820D01*
X121498356Y-106892409D01*
X121544919Y-107126496D01*
X121546752Y-107135713D01*
X121548331Y-107140111D01*
X121548333Y-107140118D01*
X121596378Y-107273933D01*
X121632160Y-107373595D01*
X121751792Y-107596240D01*
X121754587Y-107599984D01*
X121754589Y-107599986D01*
X121900226Y-107795018D01*
X121900231Y-107795024D01*
X121903018Y-107798756D01*
X121906327Y-107802036D01*
X121906332Y-107802042D01*
X122079200Y-107973408D01*
X122082517Y-107976696D01*
X122086279Y-107979454D01*
X122086282Y-107979457D01*
X122229988Y-108084826D01*
X122286346Y-108126149D01*
X122290481Y-108128325D01*
X122290485Y-108128327D01*
X122407952Y-108190129D01*
X122510026Y-108243833D01*
X122748644Y-108327162D01*
X122753237Y-108328034D01*
X122992369Y-108373435D01*
X122992372Y-108373435D01*
X122996958Y-108374306D01*
X123117081Y-108379026D01*
X123244845Y-108384046D01*
X123244850Y-108384046D01*
X123249513Y-108384229D01*
X123327657Y-108375671D01*
X123496107Y-108357223D01*
X123496112Y-108357222D01*
X123500760Y-108356713D01*
X123505284Y-108355522D01*
X123740658Y-108293554D01*
X123740661Y-108293553D01*
X123745181Y-108292363D01*
X123977405Y-108192591D01*
X124084774Y-108126149D01*
X124188358Y-108062050D01*
X124188362Y-108062047D01*
X124192331Y-108059591D01*
X124287183Y-107979293D01*
X124381672Y-107899302D01*
X124381673Y-107899301D01*
X124385238Y-107896283D01*
X124458371Y-107812891D01*
X124548806Y-107709771D01*
X124548810Y-107709766D01*
X124551888Y-107706256D01*
X124622653Y-107596240D01*
X124686094Y-107497610D01*
X124686096Y-107497607D01*
X124688619Y-107493684D01*
X124792428Y-107263236D01*
X124861034Y-107019976D01*
X124871199Y-106940070D01*
X124892533Y-106772378D01*
X124892533Y-106772372D01*
X124892931Y-106769247D01*
X124895268Y-106680000D01*
X124876537Y-106427945D01*
X124820756Y-106181428D01*
X124729150Y-105945863D01*
X124603731Y-105726426D01*
X124477607Y-105566439D01*
X124450147Y-105531606D01*
X124450144Y-105531603D01*
X124447255Y-105527938D01*
X124263160Y-105354758D01*
X124115432Y-105252275D01*
X124059331Y-105213356D01*
X124059328Y-105213354D01*
X124055489Y-105210691D01*
X124028832Y-105197545D01*
X123832993Y-105100968D01*
X123832990Y-105100967D01*
X123828805Y-105098903D01*
X123784379Y-105084682D01*
X123662788Y-105045761D01*
X123588087Y-105021849D01*
X123583480Y-105021099D01*
X123583477Y-105021098D01*
X123343235Y-104981972D01*
X123343236Y-104981972D01*
X123338624Y-104981221D01*
X123216026Y-104979616D01*
X123090573Y-104977974D01*
X123090570Y-104977974D01*
X123085896Y-104977913D01*
X122835455Y-105011996D01*
X122830965Y-105013305D01*
X122830959Y-105013306D01*
X122754995Y-105035448D01*
X122592803Y-105082723D01*
X122588556Y-105084681D01*
X122588553Y-105084682D01*
X122553226Y-105100968D01*
X122363270Y-105188539D01*
X122359361Y-105191102D01*
X122155812Y-105324554D01*
X122155807Y-105324558D01*
X122151899Y-105327120D01*
X122093212Y-105379500D01*
X121967779Y-105491453D01*
X121963333Y-105495421D01*
X121801715Y-105689746D01*
X121670595Y-105905825D01*
X121668786Y-105910139D01*
X121668785Y-105910141D01*
X121619671Y-106027266D01*
X121572854Y-106138911D01*
X121510639Y-106383883D01*
X121485316Y-106635361D01*
X120975500Y-106635361D01*
X120975500Y-97977017D01*
X120995502Y-97908896D01*
X121012405Y-97887921D01*
X121531377Y-97368950D01*
X121593689Y-97334925D01*
X121664505Y-97339990D01*
X121721340Y-97382537D01*
X121731461Y-97398402D01*
X121751792Y-97436240D01*
X121754587Y-97439984D01*
X121754589Y-97439986D01*
X121900226Y-97635018D01*
X121900231Y-97635024D01*
X121903018Y-97638756D01*
X121906327Y-97642036D01*
X121906332Y-97642042D01*
X122075470Y-97809710D01*
X122082517Y-97816696D01*
X122086279Y-97819454D01*
X122086282Y-97819457D01*
X122208262Y-97908896D01*
X122286346Y-97966149D01*
X122290481Y-97968325D01*
X122290485Y-97968327D01*
X122407952Y-98030129D01*
X122510026Y-98083833D01*
X122748644Y-98167162D01*
X122753237Y-98168034D01*
X122992369Y-98213435D01*
X122992372Y-98213435D01*
X122996958Y-98214306D01*
X123117081Y-98219026D01*
X123244845Y-98224046D01*
X123244850Y-98224046D01*
X123249513Y-98224229D01*
X123327657Y-98215671D01*
X123496107Y-98197223D01*
X123496112Y-98197222D01*
X123500760Y-98196713D01*
X123618861Y-98165620D01*
X123740658Y-98133554D01*
X123740661Y-98133553D01*
X123745181Y-98132363D01*
X123977405Y-98032591D01*
X124084774Y-97966149D01*
X124188358Y-97902050D01*
X124188362Y-97902047D01*
X124192331Y-97899591D01*
X124286989Y-97819457D01*
X124381672Y-97739302D01*
X124381673Y-97739301D01*
X124385238Y-97736283D01*
X124437268Y-97676955D01*
X124548806Y-97549771D01*
X124548810Y-97549766D01*
X124551888Y-97546256D01*
X124625300Y-97432125D01*
X124686094Y-97337610D01*
X124686096Y-97337607D01*
X124688619Y-97333684D01*
X124792428Y-97103236D01*
X124861034Y-96859976D01*
X124877263Y-96732409D01*
X124892533Y-96612378D01*
X124892533Y-96612372D01*
X124892931Y-96609247D01*
X124895268Y-96520000D01*
X124887014Y-96408929D01*
X124876883Y-96272597D01*
X124876882Y-96272593D01*
X124876537Y-96267945D01*
X124820756Y-96021428D01*
X124729150Y-95785863D01*
X124603731Y-95566426D01*
X124447255Y-95367938D01*
X124263160Y-95194758D01*
X124055489Y-95050691D01*
X124051296Y-95048623D01*
X123832993Y-94940968D01*
X123832990Y-94940967D01*
X123828805Y-94938903D01*
X123784379Y-94924682D01*
X123688499Y-94893991D01*
X123588087Y-94861849D01*
X123583480Y-94861099D01*
X123583477Y-94861098D01*
X123343235Y-94821972D01*
X123343236Y-94821972D01*
X123338624Y-94821221D01*
X123216026Y-94819616D01*
X123090573Y-94817974D01*
X123090570Y-94817974D01*
X123085896Y-94817913D01*
X122835455Y-94851996D01*
X122830965Y-94853305D01*
X122830959Y-94853306D01*
X122740030Y-94879810D01*
X122592803Y-94922723D01*
X122588556Y-94924681D01*
X122588553Y-94924682D01*
X122553226Y-94940968D01*
X122363270Y-95028539D01*
X122359361Y-95031102D01*
X122155812Y-95164554D01*
X122155807Y-95164558D01*
X122151899Y-95167120D01*
X121963333Y-95335421D01*
X121801715Y-95529746D01*
X121670595Y-95745825D01*
X121668786Y-95750139D01*
X121668785Y-95750141D01*
X121653806Y-95785863D01*
X121572854Y-95978911D01*
X121510639Y-96223883D01*
X121510170Y-96228541D01*
X121487690Y-96451784D01*
X121460964Y-96517558D01*
X121451419Y-96528255D01*
X120433785Y-97545889D01*
X120425681Y-97553316D01*
X120396806Y-97577545D01*
X120391293Y-97587094D01*
X120377961Y-97610185D01*
X120372055Y-97619456D01*
X120350446Y-97650316D01*
X120347592Y-97660966D01*
X120346115Y-97664134D01*
X120344923Y-97667410D01*
X120339412Y-97676955D01*
X120333462Y-97710699D01*
X120332870Y-97714058D01*
X120330492Y-97724785D01*
X120320736Y-97761193D01*
X120321697Y-97772178D01*
X120321697Y-97772180D01*
X120324020Y-97798728D01*
X120324500Y-97809710D01*
X120324500Y-109200290D01*
X120324020Y-109211272D01*
X120320736Y-109248807D01*
X114301000Y-109248807D01*
X114301000Y-88705507D01*
X131042103Y-88705507D01*
X131059055Y-88907379D01*
X131114894Y-89102113D01*
X131117713Y-89107598D01*
X131204676Y-89276810D01*
X131204679Y-89276815D01*
X131207494Y-89282292D01*
X131333327Y-89441054D01*
X131487600Y-89572351D01*
X131664439Y-89671183D01*
X131857105Y-89733784D01*
X132058262Y-89757770D01*
X132064397Y-89757298D01*
X132064399Y-89757298D01*
X132254105Y-89742701D01*
X132254110Y-89742700D01*
X132260246Y-89742228D01*
X132266176Y-89740572D01*
X132266178Y-89740572D01*
X132449420Y-89689410D01*
X132455366Y-89687750D01*
X132484394Y-89673087D01*
X132630686Y-89599190D01*
X132630688Y-89599189D01*
X132636187Y-89596411D01*
X132795824Y-89471689D01*
X132822268Y-89441054D01*
X132924168Y-89323001D01*
X132928195Y-89318336D01*
X133028258Y-89142192D01*
X133092203Y-88949967D01*
X133117593Y-88748983D01*
X133117998Y-88720000D01*
X133098229Y-88518385D01*
X133096448Y-88512486D01*
X133096447Y-88512481D01*
X133041458Y-88330349D01*
X133039677Y-88324450D01*
X132944571Y-88145581D01*
X132940681Y-88140811D01*
X132940678Y-88140807D01*
X132820428Y-87993366D01*
X132820425Y-87993363D01*
X132816533Y-87988591D01*
X132799518Y-87974515D01*
X132665191Y-87863390D01*
X132665188Y-87863388D01*
X132660441Y-87859461D01*
X132482240Y-87763108D01*
X132385479Y-87733156D01*
X132294605Y-87705025D01*
X132294602Y-87705024D01*
X132288718Y-87703203D01*
X132282593Y-87702559D01*
X132282592Y-87702559D01*
X132093375Y-87682671D01*
X132093374Y-87682671D01*
X132087247Y-87682027D01*
X132003846Y-87689617D01*
X131891638Y-87699829D01*
X131891635Y-87699830D01*
X131885499Y-87700388D01*
X131879593Y-87702126D01*
X131879589Y-87702127D01*
X131734417Y-87744853D01*
X131691159Y-87757585D01*
X131511630Y-87851440D01*
X131353751Y-87978379D01*
X131223534Y-88133565D01*
X131125939Y-88311089D01*
X131064685Y-88504188D01*
X131063999Y-88510305D01*
X131063998Y-88510309D01*
X131062404Y-88524519D01*
X131042103Y-88705507D01*
X114301000Y-88705507D01*
X114301000Y-86165507D01*
X131042103Y-86165507D01*
X131045458Y-86205458D01*
X131052982Y-86295054D01*
X131059055Y-86367379D01*
X131060754Y-86373304D01*
X131101890Y-86516762D01*
X131114894Y-86562113D01*
X131117713Y-86567598D01*
X131204676Y-86736810D01*
X131204679Y-86736815D01*
X131207494Y-86742292D01*
X131333327Y-86901054D01*
X131338021Y-86905049D01*
X131401041Y-86958683D01*
X131487600Y-87032351D01*
X131664439Y-87131183D01*
X131857105Y-87193784D01*
X132058262Y-87217770D01*
X132064397Y-87217298D01*
X132064399Y-87217298D01*
X132254105Y-87202701D01*
X132254110Y-87202700D01*
X132260246Y-87202228D01*
X132266176Y-87200572D01*
X132266178Y-87200572D01*
X132357806Y-87174989D01*
X132455366Y-87147750D01*
X132484394Y-87133087D01*
X132630686Y-87059190D01*
X132630688Y-87059189D01*
X132636187Y-87056411D01*
X132795824Y-86931689D01*
X132822268Y-86901054D01*
X132924168Y-86783001D01*
X132928195Y-86778336D01*
X133028258Y-86602192D01*
X133051481Y-86532383D01*
X133090256Y-86415819D01*
X133092203Y-86409967D01*
X133117593Y-86208983D01*
X133117998Y-86180000D01*
X133098229Y-85978385D01*
X133096448Y-85972486D01*
X133096447Y-85972481D01*
X133041458Y-85790349D01*
X133039677Y-85784450D01*
X132984691Y-85681036D01*
X132947465Y-85611023D01*
X132947463Y-85611020D01*
X132944571Y-85605581D01*
X132940681Y-85600811D01*
X132940678Y-85600807D01*
X132820428Y-85453366D01*
X132820425Y-85453363D01*
X132816533Y-85448591D01*
X132745624Y-85389930D01*
X132665191Y-85323390D01*
X132665188Y-85323388D01*
X132660441Y-85319461D01*
X132482240Y-85223108D01*
X132377249Y-85190608D01*
X132294605Y-85165025D01*
X132294602Y-85165024D01*
X132288718Y-85163203D01*
X132282593Y-85162559D01*
X132282592Y-85162559D01*
X132093375Y-85142671D01*
X132093374Y-85142671D01*
X132087247Y-85142027D01*
X132003846Y-85149617D01*
X131891638Y-85159829D01*
X131891635Y-85159830D01*
X131885499Y-85160388D01*
X131879593Y-85162126D01*
X131879589Y-85162127D01*
X131760561Y-85197159D01*
X131691159Y-85217585D01*
X131511630Y-85311440D01*
X131353751Y-85438379D01*
X131223534Y-85593565D01*
X131125939Y-85771089D01*
X131064685Y-85964188D01*
X131063999Y-85970305D01*
X131063998Y-85970309D01*
X131045209Y-86137820D01*
X131042103Y-86165507D01*
X114301000Y-86165507D01*
X114301000Y-83625507D01*
X131042103Y-83625507D01*
X131059055Y-83827379D01*
X131060754Y-83833304D01*
X131085547Y-83919766D01*
X131114894Y-84022113D01*
X131117713Y-84027598D01*
X131204676Y-84196810D01*
X131204679Y-84196815D01*
X131207494Y-84202292D01*
X131333327Y-84361054D01*
X131487600Y-84492351D01*
X131664439Y-84591183D01*
X131857105Y-84653784D01*
X132058262Y-84677770D01*
X132064397Y-84677298D01*
X132064399Y-84677298D01*
X132254105Y-84662701D01*
X132254110Y-84662700D01*
X132260246Y-84662228D01*
X132266176Y-84660572D01*
X132266178Y-84660572D01*
X132357806Y-84634989D01*
X132455366Y-84607750D01*
X132484394Y-84593087D01*
X132630686Y-84519190D01*
X132630688Y-84519189D01*
X132636187Y-84516411D01*
X132795824Y-84391689D01*
X132822268Y-84361054D01*
X132924168Y-84243001D01*
X132928195Y-84238336D01*
X133028258Y-84062192D01*
X133092203Y-83869967D01*
X133117593Y-83668983D01*
X133117998Y-83640000D01*
X133098229Y-83438385D01*
X133096448Y-83432486D01*
X133096447Y-83432481D01*
X133041458Y-83250349D01*
X133039677Y-83244450D01*
X132944571Y-83065581D01*
X132940681Y-83060811D01*
X132940678Y-83060807D01*
X132820428Y-82913366D01*
X132820425Y-82913363D01*
X132816533Y-82908591D01*
X132799518Y-82894515D01*
X132665191Y-82783390D01*
X132665188Y-82783388D01*
X132660441Y-82779461D01*
X132482240Y-82683108D01*
X132374407Y-82649728D01*
X132294605Y-82625025D01*
X132294602Y-82625024D01*
X132288718Y-82623203D01*
X132282593Y-82622559D01*
X132282592Y-82622559D01*
X132093375Y-82602671D01*
X132093374Y-82602671D01*
X132087247Y-82602027D01*
X132003846Y-82609617D01*
X131891638Y-82619829D01*
X131891635Y-82619830D01*
X131885499Y-82620388D01*
X131879593Y-82622126D01*
X131879589Y-82622127D01*
X131734417Y-82664853D01*
X131691159Y-82677585D01*
X131511630Y-82771440D01*
X131353751Y-82898379D01*
X131223534Y-83053565D01*
X131125939Y-83231089D01*
X131064685Y-83424188D01*
X131063999Y-83430305D01*
X131063998Y-83430309D01*
X131062404Y-83444519D01*
X131042103Y-83625507D01*
X114301000Y-83625507D01*
X114301000Y-81085507D01*
X131042103Y-81085507D01*
X131059055Y-81287379D01*
X131060754Y-81293304D01*
X131111074Y-81468790D01*
X131114894Y-81482113D01*
X131117713Y-81487598D01*
X131204676Y-81656810D01*
X131204679Y-81656815D01*
X131207494Y-81662292D01*
X131333327Y-81821054D01*
X131487600Y-81952351D01*
X131664439Y-82051183D01*
X131857105Y-82113784D01*
X132058262Y-82137770D01*
X132064397Y-82137298D01*
X132064399Y-82137298D01*
X132254105Y-82122701D01*
X132254110Y-82122700D01*
X132260246Y-82122228D01*
X132266176Y-82120572D01*
X132266178Y-82120572D01*
X132357806Y-82094989D01*
X132455366Y-82067750D01*
X132484394Y-82053087D01*
X132630686Y-81979190D01*
X132630688Y-81979189D01*
X132636187Y-81976411D01*
X132795824Y-81851689D01*
X132809758Y-81835547D01*
X132924168Y-81703001D01*
X132928195Y-81698336D01*
X133028258Y-81522192D01*
X133044948Y-81472022D01*
X133090256Y-81335819D01*
X133092203Y-81329967D01*
X133117593Y-81128983D01*
X133117864Y-81109580D01*
X133117949Y-81103522D01*
X133117949Y-81103518D01*
X133117998Y-81100000D01*
X133098229Y-80898385D01*
X133096448Y-80892486D01*
X133096447Y-80892481D01*
X133041458Y-80710349D01*
X133039677Y-80704450D01*
X132944571Y-80525581D01*
X132940681Y-80520811D01*
X132940678Y-80520807D01*
X132820428Y-80373366D01*
X132820425Y-80373363D01*
X132816533Y-80368591D01*
X132809899Y-80363103D01*
X132665191Y-80243390D01*
X132665188Y-80243388D01*
X132660441Y-80239461D01*
X132482240Y-80143108D01*
X132385479Y-80113156D01*
X132294605Y-80085025D01*
X132294602Y-80085024D01*
X132288718Y-80083203D01*
X132282593Y-80082559D01*
X132282592Y-80082559D01*
X132093375Y-80062671D01*
X132093374Y-80062671D01*
X132087247Y-80062027D01*
X132003846Y-80069617D01*
X131891638Y-80079829D01*
X131891635Y-80079830D01*
X131885499Y-80080388D01*
X131879593Y-80082126D01*
X131879589Y-80082127D01*
X131734417Y-80124853D01*
X131691159Y-80137585D01*
X131511630Y-80231440D01*
X131353751Y-80358379D01*
X131223534Y-80513565D01*
X131125939Y-80691089D01*
X131064685Y-80884188D01*
X131063999Y-80890305D01*
X131063998Y-80890309D01*
X131062404Y-80904519D01*
X131042103Y-81085507D01*
X114301000Y-81085507D01*
X114301000Y-78545507D01*
X131042103Y-78545507D01*
X131059055Y-78747379D01*
X131114894Y-78942113D01*
X131117713Y-78947598D01*
X131204676Y-79116810D01*
X131204679Y-79116815D01*
X131207494Y-79122292D01*
X131333327Y-79281054D01*
X131487600Y-79412351D01*
X131664439Y-79511183D01*
X131857105Y-79573784D01*
X132058262Y-79597770D01*
X132064397Y-79597298D01*
X132064399Y-79597298D01*
X132254105Y-79582701D01*
X132254110Y-79582700D01*
X132260246Y-79582228D01*
X132266176Y-79580572D01*
X132266178Y-79580572D01*
X132449420Y-79529410D01*
X132455366Y-79527750D01*
X132484394Y-79513087D01*
X132630686Y-79439190D01*
X132630688Y-79439189D01*
X132636187Y-79436411D01*
X132795824Y-79311689D01*
X132822268Y-79281054D01*
X132924168Y-79163001D01*
X132928195Y-79158336D01*
X133028258Y-78982192D01*
X133092203Y-78789967D01*
X133117593Y-78588983D01*
X133117998Y-78560000D01*
X133098229Y-78358385D01*
X133096448Y-78352486D01*
X133096447Y-78352481D01*
X133041458Y-78170349D01*
X133039677Y-78164450D01*
X132944571Y-77985581D01*
X132940681Y-77980811D01*
X132940678Y-77980807D01*
X132820428Y-77833366D01*
X132820425Y-77833363D01*
X132816533Y-77828591D01*
X132799518Y-77814515D01*
X132665191Y-77703390D01*
X132665188Y-77703388D01*
X132660441Y-77699461D01*
X132482240Y-77603108D01*
X132374406Y-77569728D01*
X132315246Y-77530477D01*
X132286699Y-77465472D01*
X132297828Y-77395353D01*
X132345099Y-77342382D01*
X132379054Y-77327656D01*
X132534919Y-77285892D01*
X132545211Y-77282146D01*
X132747825Y-77187665D01*
X132757315Y-77182187D01*
X132816386Y-77140825D01*
X132824760Y-77130349D01*
X132817691Y-77116901D01*
X132092812Y-76392022D01*
X132078868Y-76384408D01*
X132077035Y-76384539D01*
X132070420Y-76388790D01*
X131341587Y-77117623D01*
X131335157Y-77129397D01*
X131344453Y-77141412D01*
X131402685Y-77182187D01*
X131412175Y-77187665D01*
X131614789Y-77282146D01*
X131625078Y-77285891D01*
X131781036Y-77327680D01*
X131841658Y-77364632D01*
X131872680Y-77428493D01*
X131864251Y-77498987D01*
X131819048Y-77553734D01*
X131784000Y-77570261D01*
X131691159Y-77597585D01*
X131511630Y-77691440D01*
X131353751Y-77818379D01*
X131223534Y-77973565D01*
X131125939Y-78151089D01*
X131064685Y-78344188D01*
X131063999Y-78350305D01*
X131063998Y-78350309D01*
X131062404Y-78364519D01*
X131042103Y-78545507D01*
X114301000Y-78545507D01*
X114301000Y-76025475D01*
X130734859Y-76025475D01*
X130754344Y-76248184D01*
X130756247Y-76258979D01*
X130814108Y-76474919D01*
X130817854Y-76485211D01*
X130912335Y-76687825D01*
X130917813Y-76697315D01*
X130959175Y-76756386D01*
X130969651Y-76764760D01*
X130983099Y-76757691D01*
X131707978Y-76032812D01*
X131714356Y-76021132D01*
X132444408Y-76021132D01*
X132444539Y-76022965D01*
X132448790Y-76029580D01*
X133177623Y-76758413D01*
X133189397Y-76764843D01*
X133201412Y-76755547D01*
X133242187Y-76697315D01*
X133247665Y-76687825D01*
X133342146Y-76485211D01*
X133345892Y-76474919D01*
X133403753Y-76258979D01*
X133405656Y-76248184D01*
X133425141Y-76025475D01*
X133425141Y-76014525D01*
X133405656Y-75791816D01*
X133403753Y-75781021D01*
X133345892Y-75565081D01*
X133342146Y-75554789D01*
X133247665Y-75352175D01*
X133242187Y-75342685D01*
X133200825Y-75283614D01*
X133190349Y-75275240D01*
X133176901Y-75282309D01*
X132452022Y-76007188D01*
X132444408Y-76021132D01*
X131714356Y-76021132D01*
X131715592Y-76018868D01*
X131715461Y-76017035D01*
X131711210Y-76010420D01*
X130982377Y-75281587D01*
X130970603Y-75275157D01*
X130958588Y-75284453D01*
X130917813Y-75342685D01*
X130912335Y-75352175D01*
X130817854Y-75554789D01*
X130814108Y-75565081D01*
X130756247Y-75781021D01*
X130754344Y-75791816D01*
X130734859Y-76014525D01*
X130734859Y-76025475D01*
X114301000Y-76025475D01*
X114301000Y-74332248D01*
X131047000Y-74332248D01*
X131058633Y-74390731D01*
X131102948Y-74457052D01*
X131169269Y-74501367D01*
X131181438Y-74503788D01*
X131181439Y-74503788D01*
X131221684Y-74511793D01*
X131227752Y-74513000D01*
X131572939Y-74513000D01*
X131641060Y-74533002D01*
X131687553Y-74586658D01*
X131697657Y-74656932D01*
X131668163Y-74721512D01*
X131619523Y-74754999D01*
X131619771Y-74755531D01*
X131616608Y-74757006D01*
X131616034Y-74757401D01*
X131614789Y-74757854D01*
X131412175Y-74852335D01*
X131402685Y-74857813D01*
X131343614Y-74899175D01*
X131335240Y-74909651D01*
X131342309Y-74923099D01*
X132067188Y-75647978D01*
X132081132Y-75655592D01*
X132082965Y-75655461D01*
X132089580Y-75651210D01*
X132818413Y-74922377D01*
X132824843Y-74910603D01*
X132815547Y-74898588D01*
X132757315Y-74857813D01*
X132747825Y-74852335D01*
X132545211Y-74757854D01*
X132543966Y-74757401D01*
X132543494Y-74757054D01*
X132540229Y-74755531D01*
X132540535Y-74754875D01*
X132486795Y-74715306D01*
X132461457Y-74648985D01*
X132475998Y-74579493D01*
X132525801Y-74528895D01*
X132587061Y-74513000D01*
X132932248Y-74513000D01*
X132938316Y-74511793D01*
X132978561Y-74503788D01*
X132978562Y-74503788D01*
X132990731Y-74501367D01*
X133057052Y-74457052D01*
X133101367Y-74390731D01*
X133113000Y-74332248D01*
X133113000Y-72627752D01*
X133104128Y-72583149D01*
X133103788Y-72581439D01*
X133103788Y-72581438D01*
X133101367Y-72569269D01*
X133057052Y-72502948D01*
X132990731Y-72458633D01*
X132978562Y-72456212D01*
X132978561Y-72456212D01*
X132938316Y-72448207D01*
X132932248Y-72447000D01*
X131227752Y-72447000D01*
X131221684Y-72448207D01*
X131181439Y-72456212D01*
X131181438Y-72456212D01*
X131169269Y-72458633D01*
X131102948Y-72502948D01*
X131058633Y-72569269D01*
X131056212Y-72581438D01*
X131056212Y-72581439D01*
X131055872Y-72583149D01*
X131047000Y-72627752D01*
X131047000Y-74332248D01*
X114301000Y-74332248D01*
X114301000Y-71091669D01*
X115404712Y-71091669D01*
X115409358Y-71184999D01*
X115412114Y-71240344D01*
X115420902Y-71416879D01*
X115421543Y-71420610D01*
X115421544Y-71420618D01*
X115448045Y-71574839D01*
X115476045Y-71737789D01*
X115477133Y-71741428D01*
X115477134Y-71741431D01*
X115565987Y-72038533D01*
X115569341Y-72049749D01*
X115570854Y-72053220D01*
X115570856Y-72053226D01*
X115597205Y-72113679D01*
X115699439Y-72348242D01*
X115701362Y-72351514D01*
X115701364Y-72351517D01*
X115750967Y-72435894D01*
X115864455Y-72628944D01*
X115866756Y-72631959D01*
X116059698Y-72884775D01*
X116059703Y-72884781D01*
X116061998Y-72887788D01*
X116289208Y-73121025D01*
X116542792Y-73325276D01*
X116819078Y-73497583D01*
X117114063Y-73635451D01*
X117423474Y-73736881D01*
X117742830Y-73800405D01*
X117746602Y-73800692D01*
X117746610Y-73800693D01*
X118063728Y-73824815D01*
X118063733Y-73824815D01*
X118067505Y-73825102D01*
X118392795Y-73810615D01*
X118713989Y-73757154D01*
X119026434Y-73665493D01*
X119325604Y-73536959D01*
X119328882Y-73535055D01*
X119328888Y-73535052D01*
X119492708Y-73439897D01*
X119607165Y-73373415D01*
X119867040Y-73177230D01*
X120101464Y-72951245D01*
X120103862Y-72948300D01*
X120304643Y-72701678D01*
X120304647Y-72701672D01*
X120307040Y-72698733D01*
X120480792Y-72423354D01*
X120486356Y-72411609D01*
X135963182Y-72411609D01*
X135964389Y-72417677D01*
X135968013Y-72435894D01*
X135974815Y-72470092D01*
X136019130Y-72536413D01*
X136085451Y-72580728D01*
X136097620Y-72583149D01*
X136097621Y-72583149D01*
X136137866Y-72591154D01*
X136143934Y-72592361D01*
X137883430Y-72592361D01*
X137889498Y-72591154D01*
X137929743Y-72583149D01*
X137929744Y-72583149D01*
X137941913Y-72580728D01*
X138008234Y-72536413D01*
X138052549Y-72470092D01*
X138059352Y-72435894D01*
X138062975Y-72417677D01*
X138064182Y-72411609D01*
X138064182Y-72128613D01*
X138084184Y-72060492D01*
X138137840Y-72013999D01*
X138208114Y-72003895D01*
X138272694Y-72033389D01*
X138306925Y-72081209D01*
X138335452Y-72151464D01*
X138340095Y-72160655D01*
X138451376Y-72342249D01*
X138457459Y-72350560D01*
X138596895Y-72511528D01*
X138604262Y-72518744D01*
X138768116Y-72654777D01*
X138776563Y-72660692D01*
X138960438Y-72768140D01*
X138969724Y-72772590D01*
X139168683Y-72848564D01*
X139178581Y-72851440D01*
X139281932Y-72872467D01*
X139295981Y-72871271D01*
X139299682Y-72860926D01*
X139299682Y-72860378D01*
X139807682Y-72860378D01*
X139811746Y-72874220D01*
X139825160Y-72876254D01*
X139831866Y-72875395D01*
X139841944Y-72873253D01*
X140045937Y-72812052D01*
X140055524Y-72808294D01*
X140246777Y-72714600D01*
X140255627Y-72709325D01*
X140429010Y-72585653D01*
X140436882Y-72579000D01*
X140587734Y-72428673D01*
X140594412Y-72420826D01*
X140718685Y-72247881D01*
X140723995Y-72239044D01*
X140818352Y-72048128D01*
X140822151Y-72038533D01*
X140863275Y-71903180D01*
X140902216Y-71843816D01*
X140967070Y-71814929D01*
X141037246Y-71825691D01*
X141090464Y-71872684D01*
X141104952Y-71905078D01*
X141112226Y-71930447D01*
X141115041Y-71935924D01*
X141115042Y-71935927D01*
X141189707Y-72081209D01*
X141206394Y-72113679D01*
X141334359Y-72275131D01*
X141339052Y-72279125D01*
X141339053Y-72279126D01*
X141413223Y-72342249D01*
X141491246Y-72408652D01*
X141496624Y-72411658D01*
X141496626Y-72411659D01*
X141665700Y-72506151D01*
X141671080Y-72509158D01*
X141676940Y-72511062D01*
X141678945Y-72511938D01*
X141733360Y-72557539D01*
X141754500Y-72627399D01*
X141754500Y-84060290D01*
X141754020Y-84071272D01*
X141750736Y-84108807D01*
X141753590Y-84119456D01*
X141760491Y-84145210D01*
X141762870Y-84155942D01*
X141769412Y-84193045D01*
X141774923Y-84202590D01*
X141776115Y-84205866D01*
X141777592Y-84209034D01*
X141780446Y-84219684D01*
X141786770Y-84228715D01*
X141802055Y-84250544D01*
X141807961Y-84259815D01*
X141821293Y-84282906D01*
X141826806Y-84292455D01*
X141835251Y-84299541D01*
X141855682Y-84316685D01*
X141863785Y-84324111D01*
X142867291Y-85327618D01*
X142901317Y-85389930D01*
X142903118Y-85433158D01*
X142894318Y-85500000D01*
X142914956Y-85656762D01*
X142975464Y-85802841D01*
X143071718Y-85928282D01*
X143197159Y-86024536D01*
X143343238Y-86085044D01*
X143500000Y-86105682D01*
X143508188Y-86104604D01*
X143540957Y-86100290D01*
X143656762Y-86085044D01*
X143802841Y-86024536D01*
X143928282Y-85928282D01*
X144024536Y-85802841D01*
X144052091Y-85736317D01*
X144096639Y-85681036D01*
X144164003Y-85658615D01*
X144232794Y-85676173D01*
X144281172Y-85728135D01*
X144294500Y-85784535D01*
X144294500Y-86100290D01*
X144294020Y-86111272D01*
X144290736Y-86148807D01*
X144300491Y-86185210D01*
X144302870Y-86195942D01*
X144309412Y-86233045D01*
X144314923Y-86242590D01*
X144316115Y-86245866D01*
X144317592Y-86249034D01*
X144320446Y-86259684D01*
X144326770Y-86268715D01*
X144342055Y-86290544D01*
X144347961Y-86299815D01*
X144361293Y-86322906D01*
X144366806Y-86332455D01*
X144375251Y-86339541D01*
X144395682Y-86356685D01*
X144403785Y-86364111D01*
X148755895Y-90716222D01*
X148763321Y-90724325D01*
X148787545Y-90753194D01*
X148820184Y-90772038D01*
X148829452Y-90777942D01*
X148860316Y-90799553D01*
X148870962Y-90802406D01*
X148874130Y-90803883D01*
X148877407Y-90805076D01*
X148886955Y-90810588D01*
X148916508Y-90815799D01*
X148924069Y-90817132D01*
X148934803Y-90819512D01*
X148971193Y-90829263D01*
X148982169Y-90828303D01*
X148982172Y-90828303D01*
X149008731Y-90825979D01*
X149019712Y-90825500D01*
X150430714Y-90825500D01*
X150498835Y-90845502D01*
X150530677Y-90874796D01*
X150571718Y-90928282D01*
X150697159Y-91024536D01*
X150843238Y-91085044D01*
X151000000Y-91105682D01*
X151008188Y-91104604D01*
X151148574Y-91086122D01*
X151156762Y-91085044D01*
X151302841Y-91024536D01*
X151428282Y-90928282D01*
X151524536Y-90802841D01*
X151585044Y-90656762D01*
X151605682Y-90500000D01*
X151585044Y-90343238D01*
X151524536Y-90197159D01*
X151428282Y-90071718D01*
X151302841Y-89975464D01*
X151156762Y-89914956D01*
X151000000Y-89894318D01*
X150843238Y-89914956D01*
X150697159Y-89975464D01*
X150571718Y-90071718D01*
X150566695Y-90078264D01*
X150530677Y-90125204D01*
X150473339Y-90167071D01*
X150430714Y-90174500D01*
X149187017Y-90174500D01*
X149118896Y-90154498D01*
X149097922Y-90137595D01*
X147665834Y-88705507D01*
X153902103Y-88705507D01*
X153919055Y-88907379D01*
X153974894Y-89102113D01*
X153977713Y-89107598D01*
X154064676Y-89276810D01*
X154064679Y-89276815D01*
X154067494Y-89282292D01*
X154193327Y-89441054D01*
X154347600Y-89572351D01*
X154524439Y-89671183D01*
X154530299Y-89673087D01*
X154646783Y-89710935D01*
X154705389Y-89751008D01*
X154733026Y-89816405D01*
X154720919Y-89886362D01*
X154672913Y-89938668D01*
X154640458Y-89952475D01*
X154485081Y-89994108D01*
X154474789Y-89997854D01*
X154272175Y-90092335D01*
X154262685Y-90097813D01*
X154203614Y-90139175D01*
X154195240Y-90149651D01*
X154202309Y-90163099D01*
X154927188Y-90887978D01*
X154941132Y-90895592D01*
X154942965Y-90895461D01*
X154949580Y-90891210D01*
X155678413Y-90162377D01*
X155684843Y-90150603D01*
X155675547Y-90138588D01*
X155617315Y-90097813D01*
X155607825Y-90092335D01*
X155405211Y-89997854D01*
X155394919Y-89994108D01*
X155239298Y-89952410D01*
X155178675Y-89915458D01*
X155147654Y-89851598D01*
X155156082Y-89781103D01*
X155201285Y-89726356D01*
X155238025Y-89709345D01*
X155309424Y-89689410D01*
X155309433Y-89689407D01*
X155315366Y-89687750D01*
X155344394Y-89673087D01*
X155490686Y-89599190D01*
X155490688Y-89599189D01*
X155496187Y-89596411D01*
X155655824Y-89471689D01*
X155682268Y-89441054D01*
X155784168Y-89323001D01*
X155788195Y-89318336D01*
X155888258Y-89142192D01*
X155952203Y-88949967D01*
X155977593Y-88748983D01*
X155977998Y-88720000D01*
X155958229Y-88518385D01*
X155956448Y-88512486D01*
X155956447Y-88512481D01*
X155901458Y-88330349D01*
X155899677Y-88324450D01*
X155804571Y-88145581D01*
X155800681Y-88140811D01*
X155800678Y-88140807D01*
X155680428Y-87993366D01*
X155680425Y-87993363D01*
X155676533Y-87988591D01*
X155659518Y-87974515D01*
X155525191Y-87863390D01*
X155525188Y-87863388D01*
X155520441Y-87859461D01*
X155342240Y-87763108D01*
X155245479Y-87733156D01*
X155154605Y-87705025D01*
X155154602Y-87705024D01*
X155148718Y-87703203D01*
X155142593Y-87702559D01*
X155142592Y-87702559D01*
X154953375Y-87682671D01*
X154953374Y-87682671D01*
X154947247Y-87682027D01*
X154863846Y-87689617D01*
X154751638Y-87699829D01*
X154751635Y-87699830D01*
X154745499Y-87700388D01*
X154739593Y-87702126D01*
X154739589Y-87702127D01*
X154594417Y-87744853D01*
X154551159Y-87757585D01*
X154371630Y-87851440D01*
X154213751Y-87978379D01*
X154083534Y-88133565D01*
X153985939Y-88311089D01*
X153924685Y-88504188D01*
X153923999Y-88510305D01*
X153923998Y-88510309D01*
X153922404Y-88524519D01*
X153902103Y-88705507D01*
X147665834Y-88705507D01*
X145125833Y-86165507D01*
X153902103Y-86165507D01*
X153905458Y-86205458D01*
X153912982Y-86295054D01*
X153919055Y-86367379D01*
X153920754Y-86373304D01*
X153961890Y-86516762D01*
X153974894Y-86562113D01*
X153977713Y-86567598D01*
X154064676Y-86736810D01*
X154064679Y-86736815D01*
X154067494Y-86742292D01*
X154193327Y-86901054D01*
X154198021Y-86905049D01*
X154261041Y-86958683D01*
X154347600Y-87032351D01*
X154524439Y-87131183D01*
X154717105Y-87193784D01*
X154918262Y-87217770D01*
X154924397Y-87217298D01*
X154924399Y-87217298D01*
X155114105Y-87202701D01*
X155114110Y-87202700D01*
X155120246Y-87202228D01*
X155126176Y-87200572D01*
X155126178Y-87200572D01*
X155217806Y-87174989D01*
X155315366Y-87147750D01*
X155344394Y-87133087D01*
X155490686Y-87059190D01*
X155490688Y-87059189D01*
X155496187Y-87056411D01*
X155655824Y-86931689D01*
X155682268Y-86901054D01*
X155784168Y-86783001D01*
X155788195Y-86778336D01*
X155888258Y-86602192D01*
X155911481Y-86532383D01*
X155950256Y-86415819D01*
X155952203Y-86409967D01*
X155977593Y-86208983D01*
X155977998Y-86180000D01*
X155958229Y-85978385D01*
X155956448Y-85972486D01*
X155956447Y-85972481D01*
X155901458Y-85790349D01*
X155899677Y-85784450D01*
X155844691Y-85681036D01*
X155807465Y-85611023D01*
X155807463Y-85611020D01*
X155804571Y-85605581D01*
X155800681Y-85600811D01*
X155800678Y-85600807D01*
X155680428Y-85453366D01*
X155680425Y-85453363D01*
X155676533Y-85448591D01*
X155605624Y-85389930D01*
X155525191Y-85323390D01*
X155525188Y-85323388D01*
X155520441Y-85319461D01*
X155342240Y-85223108D01*
X155237249Y-85190608D01*
X155154605Y-85165025D01*
X155154602Y-85165024D01*
X155148718Y-85163203D01*
X155142593Y-85162559D01*
X155142592Y-85162559D01*
X154953375Y-85142671D01*
X154953374Y-85142671D01*
X154947247Y-85142027D01*
X154863846Y-85149617D01*
X154751638Y-85159829D01*
X154751635Y-85159830D01*
X154745499Y-85160388D01*
X154739593Y-85162126D01*
X154739589Y-85162127D01*
X154620561Y-85197159D01*
X154551159Y-85217585D01*
X154371630Y-85311440D01*
X154213751Y-85438379D01*
X154083534Y-85593565D01*
X153985939Y-85771089D01*
X153924685Y-85964188D01*
X153923999Y-85970305D01*
X153923998Y-85970309D01*
X153905209Y-86137820D01*
X153902103Y-86165507D01*
X145125833Y-86165507D01*
X144982405Y-86022079D01*
X144948379Y-85959767D01*
X144945500Y-85932984D01*
X144945500Y-83625507D01*
X153902103Y-83625507D01*
X153919055Y-83827379D01*
X153920754Y-83833304D01*
X153945547Y-83919766D01*
X153974894Y-84022113D01*
X153977713Y-84027598D01*
X154064676Y-84196810D01*
X154064679Y-84196815D01*
X154067494Y-84202292D01*
X154193327Y-84361054D01*
X154347600Y-84492351D01*
X154524439Y-84591183D01*
X154717105Y-84653784D01*
X154918262Y-84677770D01*
X154924397Y-84677298D01*
X154924399Y-84677298D01*
X155114105Y-84662701D01*
X155114110Y-84662700D01*
X155120246Y-84662228D01*
X155126176Y-84660572D01*
X155126178Y-84660572D01*
X155217806Y-84634989D01*
X155315366Y-84607750D01*
X155344394Y-84593087D01*
X155490686Y-84519190D01*
X155490688Y-84519189D01*
X155496187Y-84516411D01*
X155655824Y-84391689D01*
X155682268Y-84361054D01*
X155784168Y-84243001D01*
X155788195Y-84238336D01*
X155888258Y-84062192D01*
X155952203Y-83869967D01*
X155977593Y-83668983D01*
X155977998Y-83640000D01*
X155958229Y-83438385D01*
X155956448Y-83432486D01*
X155956447Y-83432481D01*
X155901458Y-83250349D01*
X155899677Y-83244450D01*
X155804571Y-83065581D01*
X155800681Y-83060811D01*
X155800678Y-83060807D01*
X155680428Y-82913366D01*
X155680425Y-82913363D01*
X155676533Y-82908591D01*
X155659518Y-82894515D01*
X155525191Y-82783390D01*
X155525188Y-82783388D01*
X155520441Y-82779461D01*
X155342240Y-82683108D01*
X155234406Y-82649728D01*
X155175246Y-82610477D01*
X155146699Y-82545472D01*
X155157828Y-82475353D01*
X155205099Y-82422382D01*
X155239054Y-82407656D01*
X155394919Y-82365892D01*
X155405211Y-82362146D01*
X155607825Y-82267665D01*
X155617315Y-82262187D01*
X155676386Y-82220825D01*
X155684760Y-82210349D01*
X155677691Y-82196901D01*
X154952812Y-81472022D01*
X154938868Y-81464408D01*
X154937035Y-81464539D01*
X154930420Y-81468790D01*
X154201587Y-82197623D01*
X154195157Y-82209397D01*
X154204453Y-82221412D01*
X154262685Y-82262187D01*
X154272175Y-82267665D01*
X154474789Y-82362146D01*
X154485078Y-82365891D01*
X154641036Y-82407680D01*
X154701658Y-82444632D01*
X154732680Y-82508493D01*
X154724251Y-82578987D01*
X154679048Y-82633734D01*
X154644000Y-82650261D01*
X154551159Y-82677585D01*
X154371630Y-82771440D01*
X154213751Y-82898379D01*
X154083534Y-83053565D01*
X153985939Y-83231089D01*
X153924685Y-83424188D01*
X153923999Y-83430305D01*
X153923998Y-83430309D01*
X153922404Y-83444519D01*
X153902103Y-83625507D01*
X144945500Y-83625507D01*
X144945500Y-81105475D01*
X153594859Y-81105475D01*
X153614344Y-81328184D01*
X153616247Y-81338979D01*
X153674108Y-81554919D01*
X153677854Y-81565211D01*
X153772335Y-81767825D01*
X153777813Y-81777315D01*
X153819175Y-81836386D01*
X153829651Y-81844760D01*
X153843099Y-81837691D01*
X154567978Y-81112812D01*
X154574356Y-81101132D01*
X155304408Y-81101132D01*
X155304539Y-81102965D01*
X155308790Y-81109580D01*
X156037623Y-81838413D01*
X156049397Y-81844843D01*
X156061412Y-81835547D01*
X156102187Y-81777315D01*
X156107665Y-81767825D01*
X156202146Y-81565211D01*
X156205892Y-81554919D01*
X156263753Y-81338979D01*
X156265656Y-81328184D01*
X156285141Y-81105475D01*
X156285141Y-81094525D01*
X156265656Y-80871816D01*
X156263753Y-80861021D01*
X156205892Y-80645081D01*
X156202146Y-80634789D01*
X156107665Y-80432175D01*
X156102187Y-80422685D01*
X156060825Y-80363614D01*
X156050349Y-80355240D01*
X156036901Y-80362309D01*
X155312022Y-81087188D01*
X155304408Y-81101132D01*
X154574356Y-81101132D01*
X154575592Y-81098868D01*
X154575461Y-81097035D01*
X154571210Y-81090420D01*
X153842377Y-80361587D01*
X153830603Y-80355157D01*
X153818588Y-80364453D01*
X153777813Y-80422685D01*
X153772335Y-80432175D01*
X153677854Y-80634789D01*
X153674108Y-80645081D01*
X153616247Y-80861021D01*
X153614344Y-80871816D01*
X153594859Y-81094525D01*
X153594859Y-81105475D01*
X144945500Y-81105475D01*
X144945500Y-78545507D01*
X153902103Y-78545507D01*
X153919055Y-78747379D01*
X153974894Y-78942113D01*
X153977713Y-78947598D01*
X154064676Y-79116810D01*
X154064679Y-79116815D01*
X154067494Y-79122292D01*
X154193327Y-79281054D01*
X154347600Y-79412351D01*
X154524439Y-79511183D01*
X154530299Y-79513087D01*
X154646783Y-79550935D01*
X154705389Y-79591008D01*
X154733026Y-79656405D01*
X154720919Y-79726362D01*
X154672913Y-79778668D01*
X154640458Y-79792475D01*
X154485081Y-79834108D01*
X154474789Y-79837854D01*
X154272175Y-79932335D01*
X154262685Y-79937813D01*
X154203614Y-79979175D01*
X154195240Y-79989651D01*
X154202309Y-80003099D01*
X154927188Y-80727978D01*
X154941132Y-80735592D01*
X154942965Y-80735461D01*
X154949580Y-80731210D01*
X155678413Y-80002377D01*
X155684843Y-79990603D01*
X155675547Y-79978588D01*
X155617315Y-79937813D01*
X155607825Y-79932335D01*
X155405211Y-79837854D01*
X155394919Y-79834108D01*
X155239298Y-79792410D01*
X155178675Y-79755458D01*
X155147654Y-79691598D01*
X155156082Y-79621103D01*
X155201285Y-79566356D01*
X155238025Y-79549345D01*
X155309424Y-79529410D01*
X155309433Y-79529407D01*
X155315366Y-79527750D01*
X155344394Y-79513087D01*
X155490686Y-79439190D01*
X155490688Y-79439189D01*
X155496187Y-79436411D01*
X155655824Y-79311689D01*
X155682268Y-79281054D01*
X155784168Y-79163001D01*
X155788195Y-79158336D01*
X155888258Y-78982192D01*
X155952203Y-78789967D01*
X155977593Y-78588983D01*
X155977998Y-78560000D01*
X155958229Y-78358385D01*
X155956448Y-78352486D01*
X155956447Y-78352481D01*
X155901458Y-78170349D01*
X155899677Y-78164450D01*
X155804571Y-77985581D01*
X155800681Y-77980811D01*
X155800678Y-77980807D01*
X155680428Y-77833366D01*
X155680425Y-77833363D01*
X155676533Y-77828591D01*
X155659518Y-77814515D01*
X155525191Y-77703390D01*
X155525188Y-77703388D01*
X155520441Y-77699461D01*
X155342240Y-77603108D01*
X155234407Y-77569728D01*
X155154605Y-77545025D01*
X155154602Y-77545024D01*
X155148718Y-77543203D01*
X155142593Y-77542559D01*
X155142592Y-77542559D01*
X154953375Y-77522671D01*
X154953374Y-77522671D01*
X154947247Y-77522027D01*
X154863846Y-77529617D01*
X154751638Y-77539829D01*
X154751635Y-77539830D01*
X154745499Y-77540388D01*
X154739593Y-77542126D01*
X154739589Y-77542127D01*
X154594417Y-77584853D01*
X154551159Y-77597585D01*
X154371630Y-77691440D01*
X154213751Y-77818379D01*
X154083534Y-77973565D01*
X153985939Y-78151089D01*
X153924685Y-78344188D01*
X153923999Y-78350305D01*
X153923998Y-78350309D01*
X153922404Y-78364519D01*
X153902103Y-78545507D01*
X144945500Y-78545507D01*
X144945500Y-76005507D01*
X153902103Y-76005507D01*
X153919055Y-76207379D01*
X153920754Y-76213304D01*
X153971074Y-76388790D01*
X153974894Y-76402113D01*
X153977713Y-76407598D01*
X154064676Y-76576810D01*
X154064679Y-76576815D01*
X154067494Y-76582292D01*
X154193327Y-76741054D01*
X154347600Y-76872351D01*
X154524439Y-76971183D01*
X154717105Y-77033784D01*
X154918262Y-77057770D01*
X154924397Y-77057298D01*
X154924399Y-77057298D01*
X155114105Y-77042701D01*
X155114110Y-77042700D01*
X155120246Y-77042228D01*
X155126176Y-77040572D01*
X155126178Y-77040572D01*
X155217806Y-77014989D01*
X155315366Y-76987750D01*
X155344394Y-76973087D01*
X155490686Y-76899190D01*
X155490688Y-76899189D01*
X155496187Y-76896411D01*
X155655824Y-76771689D01*
X155669758Y-76755547D01*
X155784168Y-76623001D01*
X155788195Y-76618336D01*
X155888258Y-76442192D01*
X155904948Y-76392022D01*
X155950256Y-76255819D01*
X155952203Y-76249967D01*
X155977593Y-76048983D01*
X155977864Y-76029580D01*
X155977949Y-76023522D01*
X155977949Y-76023518D01*
X155977998Y-76020000D01*
X155958229Y-75818385D01*
X155956448Y-75812486D01*
X155956447Y-75812481D01*
X155901458Y-75630349D01*
X155899677Y-75624450D01*
X155804571Y-75445581D01*
X155800681Y-75440811D01*
X155800678Y-75440807D01*
X155680428Y-75293366D01*
X155680425Y-75293363D01*
X155676533Y-75288591D01*
X155669899Y-75283103D01*
X155525191Y-75163390D01*
X155525188Y-75163388D01*
X155520441Y-75159461D01*
X155342240Y-75063108D01*
X155245479Y-75033156D01*
X155154605Y-75005025D01*
X155154602Y-75005024D01*
X155148718Y-75003203D01*
X155142593Y-75002559D01*
X155142592Y-75002559D01*
X154953375Y-74982671D01*
X154953374Y-74982671D01*
X154947247Y-74982027D01*
X154863846Y-74989617D01*
X154751638Y-74999829D01*
X154751635Y-74999830D01*
X154745499Y-75000388D01*
X154739593Y-75002126D01*
X154739589Y-75002127D01*
X154594417Y-75044853D01*
X154551159Y-75057585D01*
X154371630Y-75151440D01*
X154213751Y-75278379D01*
X154083534Y-75433565D01*
X153985939Y-75611089D01*
X153924685Y-75804188D01*
X153923999Y-75810305D01*
X153923998Y-75810309D01*
X153922404Y-75824519D01*
X153902103Y-76005507D01*
X144945500Y-76005507D01*
X144945500Y-74332248D01*
X153907000Y-74332248D01*
X153918633Y-74390731D01*
X153962948Y-74457052D01*
X154029269Y-74501367D01*
X154041438Y-74503788D01*
X154041439Y-74503788D01*
X154081684Y-74511793D01*
X154087752Y-74513000D01*
X155792248Y-74513000D01*
X155798316Y-74511793D01*
X155838561Y-74503788D01*
X155838562Y-74503788D01*
X155850731Y-74501367D01*
X155917052Y-74457052D01*
X155961367Y-74390731D01*
X155973000Y-74332248D01*
X155973000Y-72627752D01*
X155964128Y-72583149D01*
X155963788Y-72581439D01*
X155963788Y-72581438D01*
X155961367Y-72569269D01*
X155917052Y-72502948D01*
X155850731Y-72458633D01*
X155838562Y-72456212D01*
X155838561Y-72456212D01*
X155798316Y-72448207D01*
X155792248Y-72447000D01*
X154087752Y-72447000D01*
X154081684Y-72448207D01*
X154041439Y-72456212D01*
X154041438Y-72456212D01*
X154029269Y-72458633D01*
X153962948Y-72502948D01*
X153918633Y-72569269D01*
X153916212Y-72581438D01*
X153916212Y-72581439D01*
X153915872Y-72583149D01*
X153907000Y-72627752D01*
X153907000Y-74332248D01*
X144945500Y-74332248D01*
X144945500Y-72638750D01*
X144965502Y-72570629D01*
X145015892Y-72526966D01*
X145015407Y-72526006D01*
X145043257Y-72511938D01*
X145199292Y-72433119D01*
X145215027Y-72420826D01*
X145356783Y-72310074D01*
X145361633Y-72306285D01*
X145419674Y-72239044D01*
X145492222Y-72154995D01*
X145492222Y-72154994D01*
X145496246Y-72150333D01*
X145506363Y-72132525D01*
X145547283Y-72060492D01*
X145598005Y-71971205D01*
X145663033Y-71775724D01*
X145688853Y-71571335D01*
X145689265Y-71541861D01*
X145687820Y-71527123D01*
X146118202Y-71527123D01*
X146135441Y-71732414D01*
X146137140Y-71738339D01*
X146183077Y-71898539D01*
X146192226Y-71930447D01*
X146195041Y-71935924D01*
X146195042Y-71935927D01*
X146269707Y-72081209D01*
X146286394Y-72113679D01*
X146414359Y-72275131D01*
X146419052Y-72279125D01*
X146419053Y-72279126D01*
X146493223Y-72342249D01*
X146571246Y-72408652D01*
X146576624Y-72411658D01*
X146576626Y-72411659D01*
X146642021Y-72448207D01*
X146751080Y-72509158D01*
X146834962Y-72536413D01*
X146941153Y-72570917D01*
X146941157Y-72570918D01*
X146947011Y-72572820D01*
X147151576Y-72597212D01*
X147157711Y-72596740D01*
X147157713Y-72596740D01*
X147230307Y-72591154D01*
X147356982Y-72581407D01*
X147362912Y-72579751D01*
X147362914Y-72579751D01*
X147549479Y-72527661D01*
X147549478Y-72527661D01*
X147555407Y-72526006D01*
X147560896Y-72523233D01*
X147560902Y-72523231D01*
X147733798Y-72435894D01*
X147739292Y-72433119D01*
X147755027Y-72420826D01*
X147896783Y-72310074D01*
X147901633Y-72306285D01*
X147959674Y-72239044D01*
X148032222Y-72154995D01*
X148032222Y-72154994D01*
X148036246Y-72150333D01*
X148046363Y-72132525D01*
X148087283Y-72060492D01*
X148138005Y-71971205D01*
X148146953Y-71944305D01*
X148162178Y-71898539D01*
X148202660Y-71840215D01*
X148268248Y-71813036D01*
X148338119Y-71825631D01*
X148390088Y-71874002D01*
X148404653Y-71910612D01*
X148412246Y-71944305D01*
X148415327Y-71954136D01*
X148495452Y-72151464D01*
X148500095Y-72160655D01*
X148611376Y-72342249D01*
X148617459Y-72350560D01*
X148756895Y-72511528D01*
X148764262Y-72518744D01*
X148928116Y-72654777D01*
X148936563Y-72660692D01*
X149120438Y-72768140D01*
X149129724Y-72772590D01*
X149328683Y-72848564D01*
X149338581Y-72851440D01*
X149441932Y-72872467D01*
X149455981Y-72871271D01*
X149459682Y-72860926D01*
X149459682Y-72860378D01*
X149967682Y-72860378D01*
X149971746Y-72874220D01*
X149985160Y-72876254D01*
X149991866Y-72875395D01*
X150001944Y-72873253D01*
X150205937Y-72812052D01*
X150215524Y-72808294D01*
X150406777Y-72714600D01*
X150415627Y-72709325D01*
X150589010Y-72585653D01*
X150596882Y-72579000D01*
X150747734Y-72428673D01*
X150754412Y-72420826D01*
X150878685Y-72247881D01*
X150883995Y-72239044D01*
X150978352Y-72048128D01*
X150982151Y-72038533D01*
X151044059Y-71834771D01*
X151046237Y-71824698D01*
X151047668Y-71813823D01*
X151045457Y-71799639D01*
X151032299Y-71795861D01*
X149985797Y-71795861D01*
X149970558Y-71800336D01*
X149969353Y-71801726D01*
X149967682Y-71809409D01*
X149967682Y-72860378D01*
X149459682Y-72860378D01*
X149459682Y-71269746D01*
X149967682Y-71269746D01*
X149972157Y-71284985D01*
X149973547Y-71286190D01*
X149981230Y-71287861D01*
X151032026Y-71287861D01*
X151045557Y-71283888D01*
X151046862Y-71274808D01*
X151004896Y-71107736D01*
X151001576Y-71097985D01*
X150998830Y-71091669D01*
X166204712Y-71091669D01*
X166209358Y-71184999D01*
X166212114Y-71240344D01*
X166220902Y-71416879D01*
X166221543Y-71420610D01*
X166221544Y-71420618D01*
X166248045Y-71574839D01*
X166276045Y-71737789D01*
X166277133Y-71741428D01*
X166277134Y-71741431D01*
X166365987Y-72038533D01*
X166369341Y-72049749D01*
X166370854Y-72053220D01*
X166370856Y-72053226D01*
X166397205Y-72113679D01*
X166499439Y-72348242D01*
X166501362Y-72351514D01*
X166501364Y-72351517D01*
X166550967Y-72435894D01*
X166664455Y-72628944D01*
X166666756Y-72631959D01*
X166859698Y-72884775D01*
X166859703Y-72884781D01*
X166861998Y-72887788D01*
X167089208Y-73121025D01*
X167342792Y-73325276D01*
X167619078Y-73497583D01*
X167914063Y-73635451D01*
X168223474Y-73736881D01*
X168542830Y-73800405D01*
X168546602Y-73800692D01*
X168546610Y-73800693D01*
X168863728Y-73824815D01*
X168863733Y-73824815D01*
X168867505Y-73825102D01*
X169192795Y-73810615D01*
X169513989Y-73757154D01*
X169826434Y-73665493D01*
X170125604Y-73536959D01*
X170128882Y-73535055D01*
X170128888Y-73535052D01*
X170292708Y-73439897D01*
X170407165Y-73373415D01*
X170667040Y-73177230D01*
X170901464Y-72951245D01*
X170903862Y-72948300D01*
X171104643Y-72701678D01*
X171104647Y-72701672D01*
X171107040Y-72698733D01*
X171280792Y-72423354D01*
X171420202Y-72129095D01*
X171523251Y-71820218D01*
X171588446Y-71501199D01*
X171614843Y-71176658D01*
X171615288Y-71134171D01*
X171615413Y-71122221D01*
X171615413Y-71122214D01*
X171615436Y-71120000D01*
X171612804Y-71076331D01*
X171596069Y-70798755D01*
X171596069Y-70798751D01*
X171595841Y-70794977D01*
X171591399Y-70770651D01*
X171543775Y-70509887D01*
X171537342Y-70474663D01*
X171440784Y-70163696D01*
X171307567Y-69866582D01*
X171139621Y-69587624D01*
X171137294Y-69584640D01*
X171137289Y-69584633D01*
X170941713Y-69333858D01*
X170941711Y-69333856D01*
X170939377Y-69330863D01*
X170709738Y-69100018D01*
X170454029Y-68898433D01*
X170175954Y-68729029D01*
X170057453Y-68675150D01*
X169882994Y-68595827D01*
X169882986Y-68595824D01*
X169879542Y-68594258D01*
X169569085Y-68496073D01*
X169427071Y-68469368D01*
X169252805Y-68436597D01*
X169252800Y-68436596D01*
X169249081Y-68435897D01*
X168924166Y-68414601D01*
X168920386Y-68414809D01*
X168920385Y-68414809D01*
X168823156Y-68420160D01*
X168599045Y-68432494D01*
X168595318Y-68433155D01*
X168595314Y-68433155D01*
X168336625Y-68479001D01*
X168278429Y-68489315D01*
X168274804Y-68490420D01*
X168274799Y-68490421D01*
X168073196Y-68551866D01*
X167966961Y-68584244D01*
X167963497Y-68585775D01*
X167963490Y-68585778D01*
X167779938Y-68666926D01*
X167669153Y-68715903D01*
X167665899Y-68717839D01*
X167665893Y-68717842D01*
X167643780Y-68730998D01*
X167389319Y-68882386D01*
X167131513Y-69081282D01*
X167128812Y-69083941D01*
X167128805Y-69083947D01*
X166902177Y-69307044D01*
X166899469Y-69309710D01*
X166897105Y-69312677D01*
X166897102Y-69312680D01*
X166882613Y-69330863D01*
X166696548Y-69564360D01*
X166525690Y-69841544D01*
X166389369Y-70137247D01*
X166388210Y-70140848D01*
X166388207Y-70140854D01*
X166307364Y-70391897D01*
X166289560Y-70447185D01*
X166288841Y-70450901D01*
X166288839Y-70450909D01*
X166228428Y-70763151D01*
X166228427Y-70763160D01*
X166227709Y-70766870D01*
X166227442Y-70770646D01*
X166227441Y-70770651D01*
X166210771Y-71006090D01*
X166204712Y-71091669D01*
X150998830Y-71091669D01*
X150916654Y-70902675D01*
X150911787Y-70893600D01*
X150796108Y-70714787D01*
X150789818Y-70706618D01*
X150646488Y-70549101D01*
X150638955Y-70542076D01*
X150471821Y-70410083D01*
X150463234Y-70404378D01*
X150276799Y-70301460D01*
X150267387Y-70297230D01*
X150066641Y-70226141D01*
X150056670Y-70223507D01*
X149985519Y-70210833D01*
X149972222Y-70212293D01*
X149967682Y-70226850D01*
X149967682Y-71269746D01*
X149459682Y-71269746D01*
X149459682Y-70224963D01*
X149455764Y-70211619D01*
X149441488Y-70209632D01*
X149403006Y-70215521D01*
X149392970Y-70217912D01*
X149190550Y-70284073D01*
X149181041Y-70288070D01*
X148992145Y-70386403D01*
X148983420Y-70391897D01*
X148813115Y-70519766D01*
X148805408Y-70526609D01*
X148658272Y-70680578D01*
X148651786Y-70688588D01*
X148531780Y-70864510D01*
X148526682Y-70873484D01*
X148437020Y-71066644D01*
X148433457Y-71076331D01*
X148404694Y-71180046D01*
X148367215Y-71240344D01*
X148303087Y-71270807D01*
X148232668Y-71261764D01*
X148178318Y-71216085D01*
X148162655Y-71182794D01*
X148161477Y-71178893D01*
X148149617Y-71139610D01*
X148052900Y-70957710D01*
X147976888Y-70864510D01*
X147926588Y-70802836D01*
X147926585Y-70802833D01*
X147922693Y-70798061D01*
X147884990Y-70766870D01*
X147768707Y-70670672D01*
X147768703Y-70670670D01*
X147763957Y-70666743D01*
X147582737Y-70568758D01*
X147385936Y-70507838D01*
X147379811Y-70507194D01*
X147379810Y-70507194D01*
X147187180Y-70486948D01*
X147187178Y-70486948D01*
X147181051Y-70486304D01*
X147094211Y-70494207D01*
X146982024Y-70504416D01*
X146982021Y-70504417D01*
X146975885Y-70504975D01*
X146778254Y-70563141D01*
X146595684Y-70658587D01*
X146590883Y-70662447D01*
X146590880Y-70662449D01*
X146456304Y-70770651D01*
X146435129Y-70787676D01*
X146302706Y-70945491D01*
X146299738Y-70950889D01*
X146299735Y-70950894D01*
X146218872Y-71097985D01*
X146203458Y-71126023D01*
X146141166Y-71322393D01*
X146140480Y-71328510D01*
X146140479Y-71328514D01*
X146130993Y-71413089D01*
X146118202Y-71527123D01*
X145687820Y-71527123D01*
X145669162Y-71336831D01*
X145609617Y-71139610D01*
X145512900Y-70957710D01*
X145436888Y-70864510D01*
X145386588Y-70802836D01*
X145386585Y-70802833D01*
X145382693Y-70798061D01*
X145344990Y-70766870D01*
X145228707Y-70670672D01*
X145228703Y-70670670D01*
X145223957Y-70666743D01*
X145042737Y-70568758D01*
X144845936Y-70507838D01*
X144839811Y-70507194D01*
X144839810Y-70507194D01*
X144647180Y-70486948D01*
X144647178Y-70486948D01*
X144641051Y-70486304D01*
X144554211Y-70494207D01*
X144442024Y-70504416D01*
X144442021Y-70504417D01*
X144435885Y-70504975D01*
X144238254Y-70563141D01*
X144055684Y-70658587D01*
X144050883Y-70662447D01*
X144050880Y-70662449D01*
X143916304Y-70770651D01*
X143895129Y-70787676D01*
X143762706Y-70945491D01*
X143759738Y-70950889D01*
X143759735Y-70950894D01*
X143678872Y-71097985D01*
X143663458Y-71126023D01*
X143601166Y-71322393D01*
X143600480Y-71328510D01*
X143600479Y-71328514D01*
X143590993Y-71413089D01*
X143578202Y-71527123D01*
X143595441Y-71732414D01*
X143597140Y-71738339D01*
X143643077Y-71898539D01*
X143652226Y-71930447D01*
X143655041Y-71935924D01*
X143655042Y-71935927D01*
X143729707Y-72081209D01*
X143746394Y-72113679D01*
X143874359Y-72275131D01*
X143879052Y-72279125D01*
X143879053Y-72279126D01*
X143953223Y-72342249D01*
X144031246Y-72408652D01*
X144036624Y-72411658D01*
X144036626Y-72411659D01*
X144205700Y-72506151D01*
X144211080Y-72509158D01*
X144216940Y-72511062D01*
X144218945Y-72511938D01*
X144273360Y-72557539D01*
X144294500Y-72627399D01*
X144294500Y-85215465D01*
X144274498Y-85283586D01*
X144220842Y-85330079D01*
X144150568Y-85340183D01*
X144085988Y-85310689D01*
X144052091Y-85263683D01*
X144035284Y-85223108D01*
X144024536Y-85197159D01*
X143928282Y-85071718D01*
X143802841Y-84975464D01*
X143656762Y-84914956D01*
X143500000Y-84894318D01*
X143433159Y-84903118D01*
X143363012Y-84892179D01*
X143327619Y-84867292D01*
X142442405Y-83982079D01*
X142408380Y-83919766D01*
X142405500Y-83892983D01*
X142405500Y-72638750D01*
X142425502Y-72570629D01*
X142475892Y-72526966D01*
X142475407Y-72526006D01*
X142503257Y-72511938D01*
X142659292Y-72433119D01*
X142675027Y-72420826D01*
X142816783Y-72310074D01*
X142821633Y-72306285D01*
X142879674Y-72239044D01*
X142952222Y-72154995D01*
X142952222Y-72154994D01*
X142956246Y-72150333D01*
X142966363Y-72132525D01*
X143007283Y-72060492D01*
X143058005Y-71971205D01*
X143123033Y-71775724D01*
X143148853Y-71571335D01*
X143149265Y-71541861D01*
X143129162Y-71336831D01*
X143069617Y-71139610D01*
X142972900Y-70957710D01*
X142896888Y-70864510D01*
X142846588Y-70802836D01*
X142846585Y-70802833D01*
X142842693Y-70798061D01*
X142804990Y-70766870D01*
X142688707Y-70670672D01*
X142688703Y-70670670D01*
X142683957Y-70666743D01*
X142502737Y-70568758D01*
X142305936Y-70507838D01*
X142299811Y-70507194D01*
X142299810Y-70507194D01*
X142107180Y-70486948D01*
X142107178Y-70486948D01*
X142101051Y-70486304D01*
X142014211Y-70494207D01*
X141902024Y-70504416D01*
X141902021Y-70504417D01*
X141895885Y-70504975D01*
X141698254Y-70563141D01*
X141515684Y-70658587D01*
X141510883Y-70662447D01*
X141510880Y-70662449D01*
X141376304Y-70770651D01*
X141355129Y-70787676D01*
X141222706Y-70945491D01*
X141219738Y-70950889D01*
X141219735Y-70950894D01*
X141138872Y-71097985D01*
X141123458Y-71126023D01*
X141121596Y-71131893D01*
X141104750Y-71184999D01*
X141065087Y-71243883D01*
X140999884Y-71271975D01*
X140929845Y-71260358D01*
X140877205Y-71212718D01*
X140862444Y-71177596D01*
X140844896Y-71107736D01*
X140841576Y-71097985D01*
X140756654Y-70902675D01*
X140751787Y-70893600D01*
X140636108Y-70714787D01*
X140629818Y-70706618D01*
X140486488Y-70549101D01*
X140478955Y-70542076D01*
X140311821Y-70410083D01*
X140303234Y-70404378D01*
X140116799Y-70301460D01*
X140107387Y-70297230D01*
X139906641Y-70226141D01*
X139896670Y-70223507D01*
X139825519Y-70210833D01*
X139812222Y-70212293D01*
X139807682Y-70226850D01*
X139807682Y-72860378D01*
X139299682Y-72860378D01*
X139299682Y-70224963D01*
X139295764Y-70211619D01*
X139281488Y-70209632D01*
X139243006Y-70215521D01*
X139232970Y-70217912D01*
X139030550Y-70284073D01*
X139021041Y-70288070D01*
X138832145Y-70386403D01*
X138823420Y-70391897D01*
X138653115Y-70519766D01*
X138645408Y-70526609D01*
X138498272Y-70680578D01*
X138491786Y-70688588D01*
X138371780Y-70864510D01*
X138366682Y-70873484D01*
X138304470Y-71007508D01*
X138257646Y-71060875D01*
X138189402Y-71080456D01*
X138121407Y-71060032D01*
X138075247Y-71006090D01*
X138064182Y-70954458D01*
X138064182Y-70672113D01*
X138052549Y-70613630D01*
X138008234Y-70547309D01*
X137941913Y-70502994D01*
X137929744Y-70500573D01*
X137929743Y-70500573D01*
X137889498Y-70492568D01*
X137883430Y-70491361D01*
X136143934Y-70491361D01*
X136137866Y-70492568D01*
X136097621Y-70500573D01*
X136097620Y-70500573D01*
X136085451Y-70502994D01*
X136019130Y-70547309D01*
X135974815Y-70613630D01*
X135963182Y-70672113D01*
X135963182Y-72411609D01*
X120486356Y-72411609D01*
X120620202Y-72129095D01*
X120723251Y-71820218D01*
X120788446Y-71501199D01*
X120814843Y-71176658D01*
X120815288Y-71134171D01*
X120815413Y-71122221D01*
X120815413Y-71122214D01*
X120815436Y-71120000D01*
X120812804Y-71076331D01*
X120796069Y-70798755D01*
X120796069Y-70798751D01*
X120795841Y-70794977D01*
X120791399Y-70770651D01*
X120743775Y-70509887D01*
X120737342Y-70474663D01*
X120640784Y-70163696D01*
X120507567Y-69866582D01*
X120339621Y-69587624D01*
X120337294Y-69584640D01*
X120337289Y-69584633D01*
X120141713Y-69333858D01*
X120141711Y-69333856D01*
X120139377Y-69330863D01*
X119909738Y-69100018D01*
X119654029Y-68898433D01*
X119375954Y-68729029D01*
X119257453Y-68675150D01*
X119082994Y-68595827D01*
X119082986Y-68595824D01*
X119079542Y-68594258D01*
X118769085Y-68496073D01*
X118627071Y-68469368D01*
X118452805Y-68436597D01*
X118452800Y-68436596D01*
X118449081Y-68435897D01*
X118124166Y-68414601D01*
X118120386Y-68414809D01*
X118120385Y-68414809D01*
X118023156Y-68420160D01*
X117799045Y-68432494D01*
X117795318Y-68433155D01*
X117795314Y-68433155D01*
X117536625Y-68479001D01*
X117478429Y-68489315D01*
X117474804Y-68490420D01*
X117474799Y-68490421D01*
X117273196Y-68551866D01*
X117166961Y-68584244D01*
X117163497Y-68585775D01*
X117163490Y-68585778D01*
X116979938Y-68666926D01*
X116869153Y-68715903D01*
X116865899Y-68717839D01*
X116865893Y-68717842D01*
X116843780Y-68730998D01*
X116589319Y-68882386D01*
X116331513Y-69081282D01*
X116328812Y-69083941D01*
X116328805Y-69083947D01*
X116102177Y-69307044D01*
X116099469Y-69309710D01*
X116097105Y-69312677D01*
X116097102Y-69312680D01*
X116082613Y-69330863D01*
X115896548Y-69564360D01*
X115725690Y-69841544D01*
X115589369Y-70137247D01*
X115588210Y-70140848D01*
X115588207Y-70140854D01*
X115507364Y-70391897D01*
X115489560Y-70447185D01*
X115488841Y-70450901D01*
X115488839Y-70450909D01*
X115428428Y-70763151D01*
X115428427Y-70763160D01*
X115427709Y-70766870D01*
X115427442Y-70770646D01*
X115427441Y-70770651D01*
X115410771Y-71006090D01*
X115404712Y-71091669D01*
X114301000Y-71091669D01*
X114301000Y-67437000D01*
X114321002Y-67368879D01*
X114374658Y-67322386D01*
X114427000Y-67311000D01*
X172593000Y-67311000D01*
X172661121Y-67331002D01*
G37*
G04 #@! TD.AperFunction*
M02*
