M48
; DRILL file {KiCad (6.0.8)} date Fri Dec  2 13:55:45 2022
; FORMAT={-:-/ absolute / metric / decimal}
; #@! TF.CreationDate,2022-12-02T13:55:45+01:00
; #@! TF.GenerationSoftware,Kicad,Pcbnew,(6.0.8)
; #@! TF.FileFunction,Plated,1,2,PTH
FMAT,2
METRIC
; #@! TA.AperFunction,Plated,PTH,ViaDrill
T1C0.400
; #@! TA.AperFunction,Plated,PTH,ComponentDrill
T2C0.800
; #@! TA.AperFunction,Plated,PTH,ComponentDrill
T3C0.900
; #@! TA.AperFunction,Plated,PTH,ComponentDrill
T4C1.000
; #@! TA.AperFunction,Plated,PTH,ComponentDrill
T5C1.100
; #@! TA.AperFunction,Plated,PTH,ComponentDrill
T6C1.520
; #@! TA.AperFunction,Plated,PTH,ComponentDrill
T7C2.500
%
G90
G05
T1
X123.19Y-114.3
X124.46Y-124.46
X125.73Y-124.46
X129.54Y-114.3
X129.54Y-124.46
X129.54Y-132.08
X130.764Y-114.904
X130.81Y-132.08
X132.08Y-116.84
X133.955Y-94.585
X133.955Y-110.045
X134.62Y-130.81
X139.7Y-86.36
X143.0Y-109.5
X143.5Y-85.5
X143.5Y-117.0
X151.0Y-90.5
X154.94Y-111.76
X154.94Y-119.38
X154.94Y-123.19
X157.48Y-111.76
X159.0Y-132.08
X160.02Y-123.19
X161.0Y-132.0
X163.83Y-124.46
X165.1Y-132.08
X166.37Y-133.35
X166.421Y-115.709
X167.64Y-125.73
X168.91Y-99.06
T2
X125.73Y-119.38
X129.23Y-119.38
X136.68Y-123.19
X140.18Y-123.19
X147.32Y-123.19
X149.82Y-123.19
X160.02Y-119.38
X163.52Y-119.38
T3
X132.08Y-73.48
X132.08Y-76.02
X132.08Y-78.56
X132.08Y-81.1
X132.08Y-83.64
X132.08Y-86.18
X132.08Y-88.72
X132.08Y-91.26
X154.94Y-73.48
X154.94Y-76.02
X154.94Y-78.56
X154.94Y-81.1
X154.94Y-83.64
X154.94Y-86.18
X154.94Y-88.72
X154.94Y-91.26
T4
X137.014Y-71.542
X139.554Y-71.542
X142.094Y-71.542
X144.634Y-71.542
X147.174Y-71.542
X149.714Y-71.542
T5
X138.43Y-106.68
X148.59Y-106.68
T6
X123.19Y-91.44
X123.19Y-96.52
X123.19Y-101.6
X123.19Y-106.68
X140.97Y-133.35
X146.05Y-133.35
X163.83Y-91.44
X163.83Y-96.52
X163.83Y-101.6
X163.83Y-106.68
T7
X118.11Y-71.12
X118.11Y-137.16
X168.91Y-71.12
X168.91Y-137.16
T0
M30
