G04 #@! TF.GenerationSoftware,KiCad,Pcbnew,(6.0.8)*
G04 #@! TF.CreationDate,2022-12-02T13:55:40+01:00*
G04 #@! TF.ProjectId,xy-systeem,78792d73-7973-4746-9565-6d2e6b696361,rev?*
G04 #@! TF.SameCoordinates,Original*
G04 #@! TF.FileFunction,Soldermask,Top*
G04 #@! TF.FilePolarity,Negative*
%FSLAX46Y46*%
G04 Gerber Fmt 4.6, Leading zero omitted, Abs format (unit mm)*
G04 Created by KiCad (PCBNEW (6.0.8)) date 2022-12-02 13:55:40*
%MOMM*%
%LPD*%
G01*
G04 APERTURE LIST*
G04 Aperture macros list*
%AMRoundRect*
0 Rectangle with rounded corners*
0 $1 Rounding radius*
0 $2 $3 $4 $5 $6 $7 $8 $9 X,Y pos of 4 corners*
0 Add a 4 corners polygon primitive as box body*
4,1,4,$2,$3,$4,$5,$6,$7,$8,$9,$2,$3,0*
0 Add four circle primitives for the rounded corners*
1,1,$1+$1,$2,$3*
1,1,$1+$1,$4,$5*
1,1,$1+$1,$6,$7*
1,1,$1+$1,$8,$9*
0 Add four rect primitives between the rounded corners*
20,1,$1+$1,$2,$3,$4,$5,0*
20,1,$1+$1,$4,$5,$6,$7,0*
20,1,$1+$1,$6,$7,$8,$9,0*
20,1,$1+$1,$8,$9,$2,$3,0*%
G04 Aperture macros list end*
%ADD10C,5.000000*%
%ADD11R,0.800000X0.300000*%
%ADD12R,0.300000X0.800000*%
%ADD13R,3.800000X3.800000*%
%ADD14R,2.200000X2.200000*%
%ADD15O,2.200000X2.200000*%
%ADD16RoundRect,0.250000X-0.450000X0.350000X-0.450000X-0.350000X0.450000X-0.350000X0.450000X0.350000X0*%
%ADD17R,2.000000X1.500000*%
%ADD18R,2.000000X3.800000*%
%ADD19RoundRect,0.250000X-0.475000X0.337500X-0.475000X-0.337500X0.475000X-0.337500X0.475000X0.337500X0*%
%ADD20R,1.600000X1.600000*%
%ADD21C,1.600000*%
%ADD22R,1.700000X1.700000*%
%ADD23O,1.700000X1.700000*%
%ADD24RoundRect,0.250000X0.475000X-0.337500X0.475000X0.337500X-0.475000X0.337500X-0.475000X-0.337500X0*%
%ADD25R,3.000000X3.000000*%
%ADD26C,3.000000*%
%ADD27C,1.665000*%
%ADD28R,1.665000X1.665000*%
%ADD29RoundRect,0.250000X-0.325000X-0.450000X0.325000X-0.450000X0.325000X0.450000X-0.325000X0.450000X0*%
%ADD30RoundRect,0.250000X-0.350000X-0.450000X0.350000X-0.450000X0.350000X0.450000X-0.350000X0.450000X0*%
%ADD31RoundRect,0.250000X0.350000X0.450000X-0.350000X0.450000X-0.350000X-0.450000X0.350000X-0.450000X0*%
G04 APERTURE END LIST*
D10*
X168910000Y-137160000D03*
D11*
X158790000Y-126770000D03*
X158790000Y-127270000D03*
X158790000Y-127770000D03*
X158790000Y-128270000D03*
X158790000Y-128770000D03*
X158790000Y-129270000D03*
X158790000Y-129770000D03*
D12*
X159790000Y-130770000D03*
X160290000Y-130770000D03*
X160790000Y-130770000D03*
X161290000Y-130770000D03*
X161790000Y-130770000D03*
X162290000Y-130770000D03*
X162790000Y-130770000D03*
D11*
X163790000Y-129770000D03*
X163790000Y-129270000D03*
X163790000Y-128770000D03*
X163790000Y-128270000D03*
X163790000Y-127770000D03*
X163790000Y-127270000D03*
X163790000Y-126770000D03*
D12*
X162790000Y-125770000D03*
X162290000Y-125770000D03*
X161790000Y-125770000D03*
X161290000Y-125770000D03*
X160790000Y-125770000D03*
X160290000Y-125770000D03*
X159790000Y-125770000D03*
D13*
X161290000Y-128270000D03*
D14*
X138430000Y-106680000D03*
D15*
X148590000Y-106680000D03*
D16*
X151130000Y-86630000D03*
X151130000Y-88630000D03*
D17*
X141650000Y-116800000D03*
X141650000Y-114500000D03*
D18*
X135350000Y-114500000D03*
D17*
X141650000Y-112200000D03*
D19*
X129540000Y-133582500D03*
X129540000Y-135657500D03*
X127000000Y-133582500D03*
X127000000Y-135657500D03*
X152400000Y-113262500D03*
X152400000Y-115337500D03*
D10*
X118110000Y-71120000D03*
D20*
X125730000Y-119380000D03*
D21*
X129230000Y-119380000D03*
D22*
X137013682Y-71541861D03*
D23*
X139553682Y-71541861D03*
X142093682Y-71541861D03*
X144633682Y-71541861D03*
X147173682Y-71541861D03*
X149713682Y-71541861D03*
D24*
X166370000Y-130577500D03*
X166370000Y-128502500D03*
D25*
X123190000Y-91440000D03*
D26*
X123190000Y-96520000D03*
X123190000Y-101600000D03*
X123190000Y-106680000D03*
D27*
X132080000Y-91260000D03*
X132080000Y-88720000D03*
X132080000Y-86180000D03*
X132080000Y-83640000D03*
X132080000Y-81100000D03*
X132080000Y-78560000D03*
X132080000Y-76020000D03*
D28*
X132080000Y-73480000D03*
X154940000Y-73480000D03*
D27*
X154940000Y-76020000D03*
X154940000Y-78560000D03*
X154940000Y-81100000D03*
X154940000Y-83640000D03*
X154940000Y-86180000D03*
X154940000Y-88720000D03*
X154940000Y-91260000D03*
D10*
X118110000Y-137160000D03*
D19*
X124460000Y-133582500D03*
X124460000Y-135657500D03*
D25*
X140970000Y-133350000D03*
D26*
X146050000Y-133350000D03*
D19*
X147320000Y-113262500D03*
X147320000Y-115337500D03*
D24*
X156210000Y-130577500D03*
X156210000Y-128502500D03*
D20*
X147320000Y-123190000D03*
D21*
X149820000Y-123190000D03*
D20*
X140180000Y-123190000D03*
D21*
X136680000Y-123190000D03*
D10*
X168910000Y-71120000D03*
D19*
X158750000Y-133582500D03*
X158750000Y-135657500D03*
D20*
X160020000Y-119380000D03*
D21*
X163520000Y-119380000D03*
D11*
X124500000Y-126770000D03*
X124500000Y-127270000D03*
X124500000Y-127770000D03*
X124500000Y-128270000D03*
X124500000Y-128770000D03*
X124500000Y-129270000D03*
X124500000Y-129770000D03*
D12*
X125500000Y-130770000D03*
X126000000Y-130770000D03*
X126500000Y-130770000D03*
X127000000Y-130770000D03*
X127500000Y-130770000D03*
X128000000Y-130770000D03*
X128500000Y-130770000D03*
D11*
X129500000Y-129770000D03*
X129500000Y-129270000D03*
X129500000Y-128770000D03*
X129500000Y-128270000D03*
X129500000Y-127770000D03*
X129500000Y-127270000D03*
X129500000Y-126770000D03*
D12*
X128500000Y-125770000D03*
X128000000Y-125770000D03*
X127500000Y-125770000D03*
X127000000Y-125770000D03*
X126500000Y-125770000D03*
X126000000Y-125770000D03*
X125500000Y-125770000D03*
D13*
X127000000Y-128270000D03*
D19*
X161290000Y-133582500D03*
X161290000Y-135657500D03*
D29*
X150105000Y-134620000D03*
X152155000Y-134620000D03*
D19*
X149860000Y-113262500D03*
X149860000Y-115337500D03*
D30*
X150130000Y-132080000D03*
X152130000Y-132080000D03*
D24*
X121920000Y-130577500D03*
X121920000Y-128502500D03*
D19*
X163830000Y-133582500D03*
X163830000Y-135657500D03*
D24*
X132080000Y-130577500D03*
X132080000Y-128502500D03*
D25*
X163830000Y-106680000D03*
D26*
X163830000Y-101600000D03*
X163830000Y-96520000D03*
X163830000Y-91440000D03*
D31*
X148320000Y-82550000D03*
X146320000Y-82550000D03*
M02*
