G04 #@! TF.GenerationSoftware,KiCad,Pcbnew,(6.0.8)*
G04 #@! TF.CreationDate,2022-12-02T13:55:39+01:00*
G04 #@! TF.ProjectId,xy-systeem,78792d73-7973-4746-9565-6d2e6b696361,rev?*
G04 #@! TF.SameCoordinates,Original*
G04 #@! TF.FileFunction,Paste,Top*
G04 #@! TF.FilePolarity,Positive*
%FSLAX46Y46*%
G04 Gerber Fmt 4.6, Leading zero omitted, Abs format (unit mm)*
G04 Created by KiCad (PCBNEW (6.0.8)) date 2022-12-02 13:55:39*
%MOMM*%
%LPD*%
G01*
G04 APERTURE LIST*
G04 Aperture macros list*
%AMRoundRect*
0 Rectangle with rounded corners*
0 $1 Rounding radius*
0 $2 $3 $4 $5 $6 $7 $8 $9 X,Y pos of 4 corners*
0 Add a 4 corners polygon primitive as box body*
4,1,4,$2,$3,$4,$5,$6,$7,$8,$9,$2,$3,0*
0 Add four circle primitives for the rounded corners*
1,1,$1+$1,$2,$3*
1,1,$1+$1,$4,$5*
1,1,$1+$1,$6,$7*
1,1,$1+$1,$8,$9*
0 Add four rect primitives between the rounded corners*
20,1,$1+$1,$2,$3,$4,$5,0*
20,1,$1+$1,$4,$5,$6,$7,0*
20,1,$1+$1,$6,$7,$8,$9,0*
20,1,$1+$1,$8,$9,$2,$3,0*%
G04 Aperture macros list end*
%ADD10R,0.800000X0.300000*%
%ADD11R,0.300000X0.800000*%
%ADD12R,3.800000X3.800000*%
%ADD13RoundRect,0.250000X-0.450000X0.350000X-0.450000X-0.350000X0.450000X-0.350000X0.450000X0.350000X0*%
%ADD14R,2.000000X1.500000*%
%ADD15R,2.000000X3.800000*%
%ADD16RoundRect,0.250000X-0.475000X0.337500X-0.475000X-0.337500X0.475000X-0.337500X0.475000X0.337500X0*%
%ADD17RoundRect,0.250000X0.475000X-0.337500X0.475000X0.337500X-0.475000X0.337500X-0.475000X-0.337500X0*%
%ADD18RoundRect,0.250000X-0.325000X-0.450000X0.325000X-0.450000X0.325000X0.450000X-0.325000X0.450000X0*%
%ADD19RoundRect,0.250000X-0.350000X-0.450000X0.350000X-0.450000X0.350000X0.450000X-0.350000X0.450000X0*%
%ADD20RoundRect,0.250000X0.350000X0.450000X-0.350000X0.450000X-0.350000X-0.450000X0.350000X-0.450000X0*%
G04 APERTURE END LIST*
D10*
X158790000Y-126770000D03*
X158790000Y-127270000D03*
X158790000Y-127770000D03*
X158790000Y-128270000D03*
X158790000Y-128770000D03*
X158790000Y-129270000D03*
X158790000Y-129770000D03*
D11*
X159790000Y-130770000D03*
X160290000Y-130770000D03*
X160790000Y-130770000D03*
X161290000Y-130770000D03*
X161790000Y-130770000D03*
X162290000Y-130770000D03*
X162790000Y-130770000D03*
D10*
X163790000Y-129770000D03*
X163790000Y-129270000D03*
X163790000Y-128770000D03*
X163790000Y-128270000D03*
X163790000Y-127770000D03*
X163790000Y-127270000D03*
X163790000Y-126770000D03*
D11*
X162790000Y-125770000D03*
X162290000Y-125770000D03*
X161790000Y-125770000D03*
X161290000Y-125770000D03*
X160790000Y-125770000D03*
X160290000Y-125770000D03*
X159790000Y-125770000D03*
D12*
X161290000Y-128270000D03*
D13*
X151130000Y-86630000D03*
X151130000Y-88630000D03*
D14*
X141650000Y-116800000D03*
X141650000Y-114500000D03*
D15*
X135350000Y-114500000D03*
D14*
X141650000Y-112200000D03*
D16*
X129540000Y-133582500D03*
X129540000Y-135657500D03*
X127000000Y-133582500D03*
X127000000Y-135657500D03*
X152400000Y-113262500D03*
X152400000Y-115337500D03*
D17*
X166370000Y-130577500D03*
X166370000Y-128502500D03*
D16*
X124460000Y-133582500D03*
X124460000Y-135657500D03*
X147320000Y-113262500D03*
X147320000Y-115337500D03*
D17*
X156210000Y-130577500D03*
X156210000Y-128502500D03*
D16*
X158750000Y-133582500D03*
X158750000Y-135657500D03*
D10*
X124500000Y-126770000D03*
X124500000Y-127270000D03*
X124500000Y-127770000D03*
X124500000Y-128270000D03*
X124500000Y-128770000D03*
X124500000Y-129270000D03*
X124500000Y-129770000D03*
D11*
X125500000Y-130770000D03*
X126000000Y-130770000D03*
X126500000Y-130770000D03*
X127000000Y-130770000D03*
X127500000Y-130770000D03*
X128000000Y-130770000D03*
X128500000Y-130770000D03*
D10*
X129500000Y-129770000D03*
X129500000Y-129270000D03*
X129500000Y-128770000D03*
X129500000Y-128270000D03*
X129500000Y-127770000D03*
X129500000Y-127270000D03*
X129500000Y-126770000D03*
D11*
X128500000Y-125770000D03*
X128000000Y-125770000D03*
X127500000Y-125770000D03*
X127000000Y-125770000D03*
X126500000Y-125770000D03*
X126000000Y-125770000D03*
X125500000Y-125770000D03*
D12*
X127000000Y-128270000D03*
D16*
X161290000Y-133582500D03*
X161290000Y-135657500D03*
D18*
X150105000Y-134620000D03*
X152155000Y-134620000D03*
D16*
X149860000Y-113262500D03*
X149860000Y-115337500D03*
D19*
X150130000Y-132080000D03*
X152130000Y-132080000D03*
D17*
X121920000Y-130577500D03*
X121920000Y-128502500D03*
D16*
X163830000Y-133582500D03*
X163830000Y-135657500D03*
D17*
X132080000Y-130577500D03*
X132080000Y-128502500D03*
D20*
X148320000Y-82550000D03*
X146320000Y-82550000D03*
M02*
