G04 #@! TF.GenerationSoftware,KiCad,Pcbnew,(6.0.8)*
G04 #@! TF.CreationDate,2022-12-02T13:55:39+01:00*
G04 #@! TF.ProjectId,xy-systeem,78792d73-7973-4746-9565-6d2e6b696361,rev?*
G04 #@! TF.SameCoordinates,Original*
G04 #@! TF.FileFunction,Legend,Top*
G04 #@! TF.FilePolarity,Positive*
%FSLAX46Y46*%
G04 Gerber Fmt 4.6, Leading zero omitted, Abs format (unit mm)*
G04 Created by KiCad (PCBNEW (6.0.8)) date 2022-12-02 13:55:39*
%MOMM*%
%LPD*%
G01*
G04 APERTURE LIST*
G04 Aperture macros list*
%AMRoundRect*
0 Rectangle with rounded corners*
0 $1 Rounding radius*
0 $2 $3 $4 $5 $6 $7 $8 $9 X,Y pos of 4 corners*
0 Add a 4 corners polygon primitive as box body*
4,1,4,$2,$3,$4,$5,$6,$7,$8,$9,$2,$3,0*
0 Add four circle primitives for the rounded corners*
1,1,$1+$1,$2,$3*
1,1,$1+$1,$4,$5*
1,1,$1+$1,$6,$7*
1,1,$1+$1,$8,$9*
0 Add four rect primitives between the rounded corners*
20,1,$1+$1,$2,$3,$4,$5,0*
20,1,$1+$1,$4,$5,$6,$7,0*
20,1,$1+$1,$6,$7,$8,$9,0*
20,1,$1+$1,$8,$9,$2,$3,0*%
G04 Aperture macros list end*
%ADD10C,0.300000*%
%ADD11C,0.150000*%
%ADD12C,0.250000*%
%ADD13C,0.120000*%
%ADD14C,0.100000*%
%ADD15C,5.000000*%
%ADD16R,0.800000X0.300000*%
%ADD17R,0.300000X0.800000*%
%ADD18R,3.800000X3.800000*%
%ADD19R,2.200000X2.200000*%
%ADD20O,2.200000X2.200000*%
%ADD21RoundRect,0.250000X-0.450000X0.350000X-0.450000X-0.350000X0.450000X-0.350000X0.450000X0.350000X0*%
%ADD22R,2.000000X1.500000*%
%ADD23R,2.000000X3.800000*%
%ADD24RoundRect,0.250000X-0.475000X0.337500X-0.475000X-0.337500X0.475000X-0.337500X0.475000X0.337500X0*%
%ADD25R,1.600000X1.600000*%
%ADD26C,1.600000*%
%ADD27R,1.700000X1.700000*%
%ADD28O,1.700000X1.700000*%
%ADD29RoundRect,0.250000X0.475000X-0.337500X0.475000X0.337500X-0.475000X0.337500X-0.475000X-0.337500X0*%
%ADD30R,3.000000X3.000000*%
%ADD31C,3.000000*%
%ADD32C,1.665000*%
%ADD33R,1.665000X1.665000*%
%ADD34RoundRect,0.250000X-0.325000X-0.450000X0.325000X-0.450000X0.325000X0.450000X-0.325000X0.450000X0*%
%ADD35RoundRect,0.250000X-0.350000X-0.450000X0.350000X-0.450000X0.350000X0.450000X-0.350000X0.450000X0*%
%ADD36RoundRect,0.250000X0.350000X0.450000X-0.350000X0.450000X-0.350000X-0.450000X0.350000X-0.450000X0*%
G04 APERTURE END LIST*
D10*
X116232857Y-101492857D02*
X116447142Y-101564285D01*
X116518571Y-101635714D01*
X116590000Y-101778571D01*
X116590000Y-101992857D01*
X116518571Y-102135714D01*
X116447142Y-102207142D01*
X116304285Y-102278571D01*
X115732857Y-102278571D01*
X115732857Y-100778571D01*
X116232857Y-100778571D01*
X116375714Y-100850000D01*
X116447142Y-100921428D01*
X116518571Y-101064285D01*
X116518571Y-101207142D01*
X116447142Y-101350000D01*
X116375714Y-101421428D01*
X116232857Y-101492857D01*
X115732857Y-101492857D01*
X118018571Y-102278571D02*
X117161428Y-102278571D01*
X117590000Y-102278571D02*
X117590000Y-100778571D01*
X117447142Y-100992857D01*
X117304285Y-101135714D01*
X117161428Y-101207142D01*
X169108571Y-101850000D02*
X169822857Y-101850000D01*
X168965714Y-102278571D02*
X169465714Y-100778571D01*
X169965714Y-102278571D01*
X170394285Y-100921428D02*
X170465714Y-100850000D01*
X170608571Y-100778571D01*
X170965714Y-100778571D01*
X171108571Y-100850000D01*
X171180000Y-100921428D01*
X171251428Y-101064285D01*
X171251428Y-101207142D01*
X171180000Y-101421428D01*
X170322857Y-102278571D01*
X171251428Y-102278571D01*
X169572857Y-91332857D02*
X169787142Y-91404285D01*
X169858571Y-91475714D01*
X169930000Y-91618571D01*
X169930000Y-91832857D01*
X169858571Y-91975714D01*
X169787142Y-92047142D01*
X169644285Y-92118571D01*
X169072857Y-92118571D01*
X169072857Y-90618571D01*
X169572857Y-90618571D01*
X169715714Y-90690000D01*
X169787142Y-90761428D01*
X169858571Y-90904285D01*
X169858571Y-91047142D01*
X169787142Y-91190000D01*
X169715714Y-91261428D01*
X169572857Y-91332857D01*
X169072857Y-91332857D01*
X170501428Y-90761428D02*
X170572857Y-90690000D01*
X170715714Y-90618571D01*
X171072857Y-90618571D01*
X171215714Y-90690000D01*
X171287142Y-90761428D01*
X171358571Y-90904285D01*
X171358571Y-91047142D01*
X171287142Y-91261428D01*
X170430000Y-92118571D01*
X171358571Y-92118571D01*
X163564285Y-80688571D02*
X162850000Y-80688571D01*
X162850000Y-79188571D01*
X164707142Y-79688571D02*
X164707142Y-80688571D01*
X164064285Y-79688571D02*
X164064285Y-80474285D01*
X164135714Y-80617142D01*
X164278571Y-80688571D01*
X164492857Y-80688571D01*
X164635714Y-80617142D01*
X164707142Y-80545714D01*
X166064285Y-80617142D02*
X165921428Y-80688571D01*
X165635714Y-80688571D01*
X165492857Y-80617142D01*
X165421428Y-80545714D01*
X165350000Y-80402857D01*
X165350000Y-79974285D01*
X165421428Y-79831428D01*
X165492857Y-79760000D01*
X165635714Y-79688571D01*
X165921428Y-79688571D01*
X166064285Y-79760000D01*
X167350000Y-80688571D02*
X167350000Y-79902857D01*
X167278571Y-79760000D01*
X167135714Y-79688571D01*
X166850000Y-79688571D01*
X166707142Y-79760000D01*
X167350000Y-80617142D02*
X167207142Y-80688571D01*
X166850000Y-80688571D01*
X166707142Y-80617142D01*
X166635714Y-80474285D01*
X166635714Y-80331428D01*
X166707142Y-80188571D01*
X166850000Y-80117142D01*
X167207142Y-80117142D01*
X167350000Y-80045714D01*
X145439303Y-139750677D02*
X144582160Y-139750677D01*
X145010732Y-139750677D02*
X145010732Y-138250677D01*
X144867875Y-138464963D01*
X144725017Y-138607820D01*
X144582160Y-138679248D01*
X146010732Y-138393534D02*
X146082160Y-138322106D01*
X146225017Y-138250677D01*
X146582160Y-138250677D01*
X146725017Y-138322106D01*
X146796446Y-138393534D01*
X146867875Y-138536391D01*
X146867875Y-138679248D01*
X146796446Y-138893534D01*
X145939303Y-139750677D01*
X146867875Y-139750677D01*
X147296446Y-138250677D02*
X147796446Y-139750677D01*
X148296446Y-138250677D01*
D11*
X136561904Y-75452380D02*
X136561904Y-74957142D01*
X136866666Y-75223809D01*
X136866666Y-75109523D01*
X136904761Y-75033333D01*
X136942857Y-74995238D01*
X137019047Y-74957142D01*
X137209523Y-74957142D01*
X137285714Y-74995238D01*
X137323809Y-75033333D01*
X137361904Y-75109523D01*
X137361904Y-75338095D01*
X137323809Y-75414285D01*
X137285714Y-75452380D01*
X136828571Y-74690476D02*
X137361904Y-74500000D01*
X136828571Y-74309523D01*
X136561904Y-74080952D02*
X136561904Y-73585714D01*
X136866666Y-73852380D01*
X136866666Y-73738095D01*
X136904761Y-73661904D01*
X136942857Y-73623809D01*
X137019047Y-73585714D01*
X137209523Y-73585714D01*
X137285714Y-73623809D01*
X137323809Y-73661904D01*
X137361904Y-73738095D01*
X137361904Y-73966666D01*
X137323809Y-74042857D01*
X137285714Y-74080952D01*
D10*
X120027142Y-79188571D02*
X120027142Y-80260000D01*
X119955714Y-80474285D01*
X119812857Y-80617142D01*
X119598571Y-80688571D01*
X119455714Y-80688571D01*
X121312857Y-80617142D02*
X121170000Y-80688571D01*
X120884285Y-80688571D01*
X120741428Y-80617142D01*
X120670000Y-80474285D01*
X120670000Y-79902857D01*
X120741428Y-79760000D01*
X120884285Y-79688571D01*
X121170000Y-79688571D01*
X121312857Y-79760000D01*
X121384285Y-79902857D01*
X121384285Y-80045714D01*
X120670000Y-80188571D01*
X122241428Y-80688571D02*
X122098571Y-80617142D01*
X122027142Y-80474285D01*
X122027142Y-79188571D01*
X122598571Y-79688571D02*
X123170000Y-79688571D01*
X122812857Y-79188571D02*
X122812857Y-80474285D01*
X122884285Y-80617142D01*
X123027142Y-80688571D01*
X123170000Y-80688571D01*
X124241428Y-80617142D02*
X124098571Y-80688571D01*
X123812857Y-80688571D01*
X123670000Y-80617142D01*
X123598571Y-80474285D01*
X123598571Y-79902857D01*
X123670000Y-79760000D01*
X123812857Y-79688571D01*
X124098571Y-79688571D01*
X124241428Y-79760000D01*
X124312857Y-79902857D01*
X124312857Y-80045714D01*
X123598571Y-80188571D01*
D11*
X147578189Y-75596656D02*
X146778189Y-75596656D01*
X146778189Y-75063323D02*
X146778189Y-74910942D01*
X146816285Y-74834752D01*
X146892475Y-74758561D01*
X147044856Y-74720466D01*
X147311523Y-74720466D01*
X147463904Y-74758561D01*
X147540094Y-74834752D01*
X147578189Y-74910942D01*
X147578189Y-75063323D01*
X147540094Y-75139514D01*
X147463904Y-75215704D01*
X147311523Y-75253799D01*
X147044856Y-75253799D01*
X146892475Y-75215704D01*
X146816285Y-75139514D01*
X146778189Y-75063323D01*
X147654380Y-74568085D02*
X147654380Y-73958561D01*
X146778189Y-73615704D02*
X146778189Y-73539514D01*
X146816285Y-73463323D01*
X146854380Y-73425228D01*
X146930570Y-73387133D01*
X147082951Y-73349037D01*
X147273427Y-73349037D01*
X147425808Y-73387133D01*
X147501999Y-73425228D01*
X147540094Y-73463323D01*
X147578189Y-73539514D01*
X147578189Y-73615704D01*
X147540094Y-73691895D01*
X147501999Y-73729990D01*
X147425808Y-73768085D01*
X147273427Y-73806180D01*
X147082951Y-73806180D01*
X146930570Y-73768085D01*
X146854380Y-73729990D01*
X146816285Y-73691895D01*
X146778189Y-73615704D01*
D10*
X139986830Y-138360064D02*
X139843973Y-138288635D01*
X139629688Y-138288635D01*
X139415402Y-138360064D01*
X139272545Y-138502921D01*
X139201116Y-138645778D01*
X139129688Y-138931492D01*
X139129688Y-139145778D01*
X139201116Y-139431492D01*
X139272545Y-139574349D01*
X139415402Y-139717206D01*
X139629688Y-139788635D01*
X139772545Y-139788635D01*
X139986830Y-139717206D01*
X140058259Y-139645778D01*
X140058259Y-139145778D01*
X139772545Y-139145778D01*
X140701116Y-139788635D02*
X140701116Y-138288635D01*
X141558259Y-139788635D01*
X141558259Y-138288635D01*
X142272545Y-139788635D02*
X142272545Y-138288635D01*
X142629688Y-138288635D01*
X142843973Y-138360064D01*
X142986830Y-138502921D01*
X143058259Y-138645778D01*
X143129688Y-138931492D01*
X143129688Y-139145778D01*
X143058259Y-139431492D01*
X142986830Y-139574349D01*
X142843973Y-139717206D01*
X142629688Y-139788635D01*
X142272545Y-139788635D01*
X169108571Y-106930000D02*
X169822857Y-106930000D01*
X168965714Y-107358571D02*
X169465714Y-105858571D01*
X169965714Y-107358571D01*
X171251428Y-107358571D02*
X170394285Y-107358571D01*
X170822857Y-107358571D02*
X170822857Y-105858571D01*
X170680000Y-106072857D01*
X170537142Y-106215714D01*
X170394285Y-106287142D01*
X116232857Y-106572857D02*
X116447142Y-106644285D01*
X116518571Y-106715714D01*
X116590000Y-106858571D01*
X116590000Y-107072857D01*
X116518571Y-107215714D01*
X116447142Y-107287142D01*
X116304285Y-107358571D01*
X115732857Y-107358571D01*
X115732857Y-105858571D01*
X116232857Y-105858571D01*
X116375714Y-105930000D01*
X116447142Y-106001428D01*
X116518571Y-106144285D01*
X116518571Y-106287142D01*
X116447142Y-106430000D01*
X116375714Y-106501428D01*
X116232857Y-106572857D01*
X115732857Y-106572857D01*
X117161428Y-106001428D02*
X117232857Y-105930000D01*
X117375714Y-105858571D01*
X117732857Y-105858571D01*
X117875714Y-105930000D01*
X117947142Y-106001428D01*
X118018571Y-106144285D01*
X118018571Y-106287142D01*
X117947142Y-106501428D01*
X117090000Y-107358571D01*
X118018571Y-107358571D01*
X117705714Y-82442857D02*
X117920000Y-82514285D01*
X117991428Y-82585714D01*
X118062857Y-82728571D01*
X118062857Y-82942857D01*
X117991428Y-83085714D01*
X117920000Y-83157142D01*
X117777142Y-83228571D01*
X117205714Y-83228571D01*
X117205714Y-81728571D01*
X117705714Y-81728571D01*
X117848571Y-81800000D01*
X117920000Y-81871428D01*
X117991428Y-82014285D01*
X117991428Y-82157142D01*
X117920000Y-82300000D01*
X117848571Y-82371428D01*
X117705714Y-82442857D01*
X117205714Y-82442857D01*
X118920000Y-83228571D02*
X118777142Y-83157142D01*
X118705714Y-83085714D01*
X118634285Y-82942857D01*
X118634285Y-82514285D01*
X118705714Y-82371428D01*
X118777142Y-82300000D01*
X118920000Y-82228571D01*
X119134285Y-82228571D01*
X119277142Y-82300000D01*
X119348571Y-82371428D01*
X119420000Y-82514285D01*
X119420000Y-82942857D01*
X119348571Y-83085714D01*
X119277142Y-83157142D01*
X119134285Y-83228571D01*
X118920000Y-83228571D01*
X120705714Y-82228571D02*
X120705714Y-83228571D01*
X120062857Y-82228571D02*
X120062857Y-83014285D01*
X120134285Y-83157142D01*
X120277142Y-83228571D01*
X120491428Y-83228571D01*
X120634285Y-83157142D01*
X120705714Y-83085714D01*
X121420000Y-83228571D02*
X121420000Y-82228571D01*
X121420000Y-82371428D02*
X121491428Y-82300000D01*
X121634285Y-82228571D01*
X121848571Y-82228571D01*
X121991428Y-82300000D01*
X122062857Y-82442857D01*
X122062857Y-83228571D01*
X122062857Y-82442857D02*
X122134285Y-82300000D01*
X122277142Y-82228571D01*
X122491428Y-82228571D01*
X122634285Y-82300000D01*
X122705714Y-82442857D01*
X122705714Y-83228571D01*
X124062857Y-83228571D02*
X124062857Y-82442857D01*
X123991428Y-82300000D01*
X123848571Y-82228571D01*
X123562857Y-82228571D01*
X123420000Y-82300000D01*
X124062857Y-83157142D02*
X123920000Y-83228571D01*
X123562857Y-83228571D01*
X123420000Y-83157142D01*
X123348571Y-83014285D01*
X123348571Y-82871428D01*
X123420000Y-82728571D01*
X123562857Y-82657142D01*
X123920000Y-82657142D01*
X124062857Y-82585714D01*
X124777142Y-82228571D02*
X124777142Y-83228571D01*
X124777142Y-82371428D02*
X124848571Y-82300000D01*
X124991428Y-82228571D01*
X125205714Y-82228571D01*
X125348571Y-82300000D01*
X125420000Y-82442857D01*
X125420000Y-83228571D01*
X126062857Y-83157142D02*
X126205714Y-83228571D01*
X126491428Y-83228571D01*
X126634285Y-83157142D01*
X126705714Y-83014285D01*
X126705714Y-82942857D01*
X126634285Y-82800000D01*
X126491428Y-82728571D01*
X126277142Y-82728571D01*
X126134285Y-82657142D01*
X126062857Y-82514285D01*
X126062857Y-82442857D01*
X126134285Y-82300000D01*
X126277142Y-82228571D01*
X126491428Y-82228571D01*
X126634285Y-82300000D01*
X115768571Y-96770000D02*
X116482857Y-96770000D01*
X115625714Y-97198571D02*
X116125714Y-95698571D01*
X116625714Y-97198571D01*
X117054285Y-95841428D02*
X117125714Y-95770000D01*
X117268571Y-95698571D01*
X117625714Y-95698571D01*
X117768571Y-95770000D01*
X117840000Y-95841428D01*
X117911428Y-95984285D01*
X117911428Y-96127142D01*
X117840000Y-96341428D01*
X116982857Y-97198571D01*
X117911428Y-97198571D01*
X121975714Y-88308571D02*
X121975714Y-86808571D01*
X122475714Y-87880000D01*
X122975714Y-86808571D01*
X122975714Y-88308571D01*
X124475714Y-88308571D02*
X123618571Y-88308571D01*
X124047142Y-88308571D02*
X124047142Y-86808571D01*
X123904285Y-87022857D01*
X123761428Y-87165714D01*
X123618571Y-87237142D01*
X169572857Y-96412857D02*
X169787142Y-96484285D01*
X169858571Y-96555714D01*
X169930000Y-96698571D01*
X169930000Y-96912857D01*
X169858571Y-97055714D01*
X169787142Y-97127142D01*
X169644285Y-97198571D01*
X169072857Y-97198571D01*
X169072857Y-95698571D01*
X169572857Y-95698571D01*
X169715714Y-95770000D01*
X169787142Y-95841428D01*
X169858571Y-95984285D01*
X169858571Y-96127142D01*
X169787142Y-96270000D01*
X169715714Y-96341428D01*
X169572857Y-96412857D01*
X169072857Y-96412857D01*
X171358571Y-97198571D02*
X170501428Y-97198571D01*
X170930000Y-97198571D02*
X170930000Y-95698571D01*
X170787142Y-95912857D01*
X170644285Y-96055714D01*
X170501428Y-96127142D01*
D11*
X142361904Y-74633333D02*
X141980952Y-74900000D01*
X142361904Y-75090476D02*
X141561904Y-75090476D01*
X141561904Y-74785714D01*
X141600000Y-74709523D01*
X141638095Y-74671428D01*
X141714285Y-74633333D01*
X141828571Y-74633333D01*
X141904761Y-74671428D01*
X141942857Y-74709523D01*
X141980952Y-74785714D01*
X141980952Y-75090476D01*
X141561904Y-74366666D02*
X142361904Y-73833333D01*
X141561904Y-73833333D02*
X142361904Y-74366666D01*
X139100000Y-75109523D02*
X139061904Y-75185714D01*
X139061904Y-75300000D01*
X139100000Y-75414285D01*
X139176190Y-75490476D01*
X139252380Y-75528571D01*
X139404761Y-75566666D01*
X139519047Y-75566666D01*
X139671428Y-75528571D01*
X139747619Y-75490476D01*
X139823809Y-75414285D01*
X139861904Y-75300000D01*
X139861904Y-75223809D01*
X139823809Y-75109523D01*
X139785714Y-75071428D01*
X139519047Y-75071428D01*
X139519047Y-75223809D01*
X139861904Y-74728571D02*
X139061904Y-74728571D01*
X139861904Y-74271428D01*
X139061904Y-74271428D01*
X139861904Y-73890476D02*
X139061904Y-73890476D01*
X139061904Y-73700000D01*
X139100000Y-73585714D01*
X139176190Y-73509523D01*
X139252380Y-73471428D01*
X139404761Y-73433333D01*
X139519047Y-73433333D01*
X139671428Y-73471428D01*
X139747619Y-73509523D01*
X139823809Y-73585714D01*
X139861904Y-73700000D01*
X139861904Y-73890476D01*
D10*
X162615714Y-88308571D02*
X162615714Y-86808571D01*
X163115714Y-87880000D01*
X163615714Y-86808571D01*
X163615714Y-88308571D01*
X164258571Y-86951428D02*
X164330000Y-86880000D01*
X164472857Y-86808571D01*
X164830000Y-86808571D01*
X164972857Y-86880000D01*
X165044285Y-86951428D01*
X165115714Y-87094285D01*
X165115714Y-87237142D01*
X165044285Y-87451428D01*
X164187142Y-88308571D01*
X165115714Y-88308571D01*
D11*
X144061904Y-75109523D02*
X144061904Y-74652380D01*
X144861904Y-74880952D02*
X144061904Y-74880952D01*
X144061904Y-74461904D02*
X144861904Y-73928571D01*
X144061904Y-73928571D02*
X144861904Y-74461904D01*
D10*
X115768571Y-91690000D02*
X116482857Y-91690000D01*
X115625714Y-92118571D02*
X116125714Y-90618571D01*
X116625714Y-92118571D01*
X117911428Y-92118571D02*
X117054285Y-92118571D01*
X117482857Y-92118571D02*
X117482857Y-90618571D01*
X117340000Y-90832857D01*
X117197142Y-90975714D01*
X117054285Y-91047142D01*
D11*
X149600000Y-75109523D02*
X149561904Y-75185714D01*
X149561904Y-75300000D01*
X149600000Y-75414285D01*
X149676190Y-75490476D01*
X149752380Y-75528571D01*
X149904761Y-75566666D01*
X150019047Y-75566666D01*
X150171428Y-75528571D01*
X150247619Y-75490476D01*
X150323809Y-75414285D01*
X150361904Y-75300000D01*
X150361904Y-75223809D01*
X150323809Y-75109523D01*
X150285714Y-75071428D01*
X150019047Y-75071428D01*
X150019047Y-75223809D01*
X150361904Y-74728571D02*
X149561904Y-74728571D01*
X150361904Y-74271428D01*
X149561904Y-74271428D01*
X150361904Y-73890476D02*
X149561904Y-73890476D01*
X149561904Y-73700000D01*
X149600000Y-73585714D01*
X149676190Y-73509523D01*
X149752380Y-73471428D01*
X149904761Y-73433333D01*
X150019047Y-73433333D01*
X150171428Y-73471428D01*
X150247619Y-73509523D01*
X150323809Y-73585714D01*
X150361904Y-73700000D01*
X150361904Y-73890476D01*
D10*
X160278571Y-81728571D02*
X160778571Y-83228571D01*
X161278571Y-81728571D01*
X162421428Y-83228571D02*
X162421428Y-82442857D01*
X162350000Y-82300000D01*
X162207142Y-82228571D01*
X161921428Y-82228571D01*
X161778571Y-82300000D01*
X162421428Y-83157142D02*
X162278571Y-83228571D01*
X161921428Y-83228571D01*
X161778571Y-83157142D01*
X161707142Y-83014285D01*
X161707142Y-82871428D01*
X161778571Y-82728571D01*
X161921428Y-82657142D01*
X162278571Y-82657142D01*
X162421428Y-82585714D01*
X163135714Y-82228571D02*
X163135714Y-83228571D01*
X163135714Y-82371428D02*
X163207142Y-82300000D01*
X163350000Y-82228571D01*
X163564285Y-82228571D01*
X163707142Y-82300000D01*
X163778571Y-82442857D01*
X163778571Y-83228571D01*
X166350000Y-83228571D02*
X165635714Y-83228571D01*
X165635714Y-81728571D01*
X167492857Y-83228571D02*
X167492857Y-82442857D01*
X167421428Y-82300000D01*
X167278571Y-82228571D01*
X166992857Y-82228571D01*
X166850000Y-82300000D01*
X167492857Y-83157142D02*
X167350000Y-83228571D01*
X166992857Y-83228571D01*
X166850000Y-83157142D01*
X166778571Y-83014285D01*
X166778571Y-82871428D01*
X166850000Y-82728571D01*
X166992857Y-82657142D01*
X167350000Y-82657142D01*
X167492857Y-82585714D01*
X168778571Y-83157142D02*
X168635714Y-83228571D01*
X168350000Y-83228571D01*
X168207142Y-83157142D01*
X168135714Y-83014285D01*
X168135714Y-82442857D01*
X168207142Y-82300000D01*
X168350000Y-82228571D01*
X168635714Y-82228571D01*
X168778571Y-82300000D01*
X168850000Y-82442857D01*
X168850000Y-82585714D01*
X168135714Y-82728571D01*
X169492857Y-83228571D02*
X169492857Y-82228571D01*
X169492857Y-82514285D02*
X169564285Y-82371428D01*
X169635714Y-82300000D01*
X169778571Y-82228571D01*
X169921428Y-82228571D01*
D11*
X142771904Y-107132380D02*
X142771904Y-106132380D01*
X143010000Y-106132380D01*
X143152857Y-106180000D01*
X143248095Y-106275238D01*
X143295714Y-106370476D01*
X143343333Y-106560952D01*
X143343333Y-106703809D01*
X143295714Y-106894285D01*
X143248095Y-106989523D01*
X143152857Y-107084761D01*
X143010000Y-107132380D01*
X142771904Y-107132380D01*
X144295714Y-107132380D02*
X143724285Y-107132380D01*
X144010000Y-107132380D02*
X144010000Y-106132380D01*
X143914761Y-106275238D01*
X143819523Y-106370476D01*
X143724285Y-106418095D01*
X149452380Y-87796666D02*
X148976190Y-88130000D01*
X149452380Y-88368095D02*
X148452380Y-88368095D01*
X148452380Y-87987142D01*
X148500000Y-87891904D01*
X148547619Y-87844285D01*
X148642857Y-87796666D01*
X148785714Y-87796666D01*
X148880952Y-87844285D01*
X148928571Y-87891904D01*
X148976190Y-87987142D01*
X148976190Y-88368095D01*
X148547619Y-87415714D02*
X148500000Y-87368095D01*
X148452380Y-87272857D01*
X148452380Y-87034761D01*
X148500000Y-86939523D01*
X148547619Y-86891904D01*
X148642857Y-86844285D01*
X148738095Y-86844285D01*
X148880952Y-86891904D01*
X149452380Y-87463333D01*
X149452380Y-86844285D01*
X137738095Y-114452380D02*
X137738095Y-115261904D01*
X137785714Y-115357142D01*
X137833333Y-115404761D01*
X137928571Y-115452380D01*
X138119047Y-115452380D01*
X138214285Y-115404761D01*
X138261904Y-115357142D01*
X138309523Y-115261904D01*
X138309523Y-114452380D01*
X138738095Y-114547619D02*
X138785714Y-114500000D01*
X138880952Y-114452380D01*
X139119047Y-114452380D01*
X139214285Y-114500000D01*
X139261904Y-114547619D01*
X139309523Y-114642857D01*
X139309523Y-114738095D01*
X139261904Y-114880952D01*
X138690476Y-115452380D01*
X139309523Y-115452380D01*
X129373333Y-137517142D02*
X129325714Y-137564761D01*
X129182857Y-137612380D01*
X129087619Y-137612380D01*
X128944761Y-137564761D01*
X128849523Y-137469523D01*
X128801904Y-137374285D01*
X128754285Y-137183809D01*
X128754285Y-137040952D01*
X128801904Y-136850476D01*
X128849523Y-136755238D01*
X128944761Y-136660000D01*
X129087619Y-136612380D01*
X129182857Y-136612380D01*
X129325714Y-136660000D01*
X129373333Y-136707619D01*
X129706666Y-136612380D02*
X130373333Y-136612380D01*
X129944761Y-137612380D01*
X126833333Y-137517142D02*
X126785714Y-137564761D01*
X126642857Y-137612380D01*
X126547619Y-137612380D01*
X126404761Y-137564761D01*
X126309523Y-137469523D01*
X126261904Y-137374285D01*
X126214285Y-137183809D01*
X126214285Y-137040952D01*
X126261904Y-136850476D01*
X126309523Y-136755238D01*
X126404761Y-136660000D01*
X126547619Y-136612380D01*
X126642857Y-136612380D01*
X126785714Y-136660000D01*
X126833333Y-136707619D01*
X127309523Y-137612380D02*
X127500000Y-137612380D01*
X127595238Y-137564761D01*
X127642857Y-137517142D01*
X127738095Y-137374285D01*
X127785714Y-137183809D01*
X127785714Y-136802857D01*
X127738095Y-136707619D01*
X127690476Y-136660000D01*
X127595238Y-136612380D01*
X127404761Y-136612380D01*
X127309523Y-136660000D01*
X127261904Y-136707619D01*
X127214285Y-136802857D01*
X127214285Y-137040952D01*
X127261904Y-137136190D01*
X127309523Y-137183809D01*
X127404761Y-137231428D01*
X127595238Y-137231428D01*
X127690476Y-137183809D01*
X127738095Y-137136190D01*
X127785714Y-137040952D01*
X152233333Y-112117142D02*
X152185714Y-112164761D01*
X152042857Y-112212380D01*
X151947619Y-112212380D01*
X151804761Y-112164761D01*
X151709523Y-112069523D01*
X151661904Y-111974285D01*
X151614285Y-111783809D01*
X151614285Y-111640952D01*
X151661904Y-111450476D01*
X151709523Y-111355238D01*
X151804761Y-111260000D01*
X151947619Y-111212380D01*
X152042857Y-111212380D01*
X152185714Y-111260000D01*
X152233333Y-111307619D01*
X152614285Y-111307619D02*
X152661904Y-111260000D01*
X152757142Y-111212380D01*
X152995238Y-111212380D01*
X153090476Y-111260000D01*
X153138095Y-111307619D01*
X153185714Y-111402857D01*
X153185714Y-111498095D01*
X153138095Y-111640952D01*
X152566666Y-112212380D01*
X153185714Y-112212380D01*
X126837142Y-114487142D02*
X126789523Y-114534761D01*
X126646666Y-114582380D01*
X126551428Y-114582380D01*
X126408571Y-114534761D01*
X126313333Y-114439523D01*
X126265714Y-114344285D01*
X126218095Y-114153809D01*
X126218095Y-114010952D01*
X126265714Y-113820476D01*
X126313333Y-113725238D01*
X126408571Y-113630000D01*
X126551428Y-113582380D01*
X126646666Y-113582380D01*
X126789523Y-113630000D01*
X126837142Y-113677619D01*
X127789523Y-114582380D02*
X127218095Y-114582380D01*
X127503809Y-114582380D02*
X127503809Y-113582380D01*
X127408571Y-113725238D01*
X127313333Y-113820476D01*
X127218095Y-113868095D01*
X128408571Y-113582380D02*
X128503809Y-113582380D01*
X128599047Y-113630000D01*
X128646666Y-113677619D01*
X128694285Y-113772857D01*
X128741904Y-113963333D01*
X128741904Y-114201428D01*
X128694285Y-114391904D01*
X128646666Y-114487142D01*
X128599047Y-114534761D01*
X128503809Y-114582380D01*
X128408571Y-114582380D01*
X128313333Y-114534761D01*
X128265714Y-114487142D01*
X128218095Y-114391904D01*
X128170476Y-114201428D01*
X128170476Y-113963333D01*
X128218095Y-113772857D01*
X128265714Y-113677619D01*
X128313333Y-113630000D01*
X128408571Y-113582380D01*
X165727142Y-132437142D02*
X165679523Y-132484761D01*
X165536666Y-132532380D01*
X165441428Y-132532380D01*
X165298571Y-132484761D01*
X165203333Y-132389523D01*
X165155714Y-132294285D01*
X165108095Y-132103809D01*
X165108095Y-131960952D01*
X165155714Y-131770476D01*
X165203333Y-131675238D01*
X165298571Y-131580000D01*
X165441428Y-131532380D01*
X165536666Y-131532380D01*
X165679523Y-131580000D01*
X165727142Y-131627619D01*
X166679523Y-132532380D02*
X166108095Y-132532380D01*
X166393809Y-132532380D02*
X166393809Y-131532380D01*
X166298571Y-131675238D01*
X166203333Y-131770476D01*
X166108095Y-131818095D01*
X167060476Y-131627619D02*
X167108095Y-131580000D01*
X167203333Y-131532380D01*
X167441428Y-131532380D01*
X167536666Y-131580000D01*
X167584285Y-131627619D01*
X167631904Y-131722857D01*
X167631904Y-131818095D01*
X167584285Y-131960952D01*
X167012857Y-132532380D01*
X167631904Y-132532380D01*
X124293333Y-137517142D02*
X124245714Y-137564761D01*
X124102857Y-137612380D01*
X124007619Y-137612380D01*
X123864761Y-137564761D01*
X123769523Y-137469523D01*
X123721904Y-137374285D01*
X123674285Y-137183809D01*
X123674285Y-137040952D01*
X123721904Y-136850476D01*
X123769523Y-136755238D01*
X123864761Y-136660000D01*
X124007619Y-136612380D01*
X124102857Y-136612380D01*
X124245714Y-136660000D01*
X124293333Y-136707619D01*
X124864761Y-137040952D02*
X124769523Y-136993333D01*
X124721904Y-136945714D01*
X124674285Y-136850476D01*
X124674285Y-136802857D01*
X124721904Y-136707619D01*
X124769523Y-136660000D01*
X124864761Y-136612380D01*
X125055238Y-136612380D01*
X125150476Y-136660000D01*
X125198095Y-136707619D01*
X125245714Y-136802857D01*
X125245714Y-136850476D01*
X125198095Y-136945714D01*
X125150476Y-136993333D01*
X125055238Y-137040952D01*
X124864761Y-137040952D01*
X124769523Y-137088571D01*
X124721904Y-137136190D01*
X124674285Y-137231428D01*
X124674285Y-137421904D01*
X124721904Y-137517142D01*
X124769523Y-137564761D01*
X124864761Y-137612380D01*
X125055238Y-137612380D01*
X125150476Y-137564761D01*
X125198095Y-137517142D01*
X125245714Y-137421904D01*
X125245714Y-137231428D01*
X125198095Y-137136190D01*
X125150476Y-137088571D01*
X125055238Y-137040952D01*
X147153333Y-112117142D02*
X147105714Y-112164761D01*
X146962857Y-112212380D01*
X146867619Y-112212380D01*
X146724761Y-112164761D01*
X146629523Y-112069523D01*
X146581904Y-111974285D01*
X146534285Y-111783809D01*
X146534285Y-111640952D01*
X146581904Y-111450476D01*
X146629523Y-111355238D01*
X146724761Y-111260000D01*
X146867619Y-111212380D01*
X146962857Y-111212380D01*
X147105714Y-111260000D01*
X147153333Y-111307619D01*
X148058095Y-111212380D02*
X147581904Y-111212380D01*
X147534285Y-111688571D01*
X147581904Y-111640952D01*
X147677142Y-111593333D01*
X147915238Y-111593333D01*
X148010476Y-111640952D01*
X148058095Y-111688571D01*
X148105714Y-111783809D01*
X148105714Y-112021904D01*
X148058095Y-112117142D01*
X148010476Y-112164761D01*
X147915238Y-112212380D01*
X147677142Y-112212380D01*
X147581904Y-112164761D01*
X147534285Y-112117142D01*
X155567142Y-132437142D02*
X155519523Y-132484761D01*
X155376666Y-132532380D01*
X155281428Y-132532380D01*
X155138571Y-132484761D01*
X155043333Y-132389523D01*
X154995714Y-132294285D01*
X154948095Y-132103809D01*
X154948095Y-131960952D01*
X154995714Y-131770476D01*
X155043333Y-131675238D01*
X155138571Y-131580000D01*
X155281428Y-131532380D01*
X155376666Y-131532380D01*
X155519523Y-131580000D01*
X155567142Y-131627619D01*
X156519523Y-132532380D02*
X155948095Y-132532380D01*
X156233809Y-132532380D02*
X156233809Y-131532380D01*
X156138571Y-131675238D01*
X156043333Y-131770476D01*
X155948095Y-131818095D01*
X156852857Y-131532380D02*
X157519523Y-131532380D01*
X157090952Y-132532380D01*
X148403333Y-119147142D02*
X148355714Y-119194761D01*
X148212857Y-119242380D01*
X148117619Y-119242380D01*
X147974761Y-119194761D01*
X147879523Y-119099523D01*
X147831904Y-119004285D01*
X147784285Y-118813809D01*
X147784285Y-118670952D01*
X147831904Y-118480476D01*
X147879523Y-118385238D01*
X147974761Y-118290000D01*
X148117619Y-118242380D01*
X148212857Y-118242380D01*
X148355714Y-118290000D01*
X148403333Y-118337619D01*
X149260476Y-118575714D02*
X149260476Y-119242380D01*
X149022380Y-118194761D02*
X148784285Y-118909047D01*
X149403333Y-118909047D01*
X133833333Y-126857142D02*
X133785714Y-126904761D01*
X133642857Y-126952380D01*
X133547619Y-126952380D01*
X133404761Y-126904761D01*
X133309523Y-126809523D01*
X133261904Y-126714285D01*
X133214285Y-126523809D01*
X133214285Y-126380952D01*
X133261904Y-126190476D01*
X133309523Y-126095238D01*
X133404761Y-126000000D01*
X133547619Y-125952380D01*
X133642857Y-125952380D01*
X133785714Y-126000000D01*
X133833333Y-126047619D01*
X134785714Y-126952380D02*
X134214285Y-126952380D01*
X134500000Y-126952380D02*
X134500000Y-125952380D01*
X134404761Y-126095238D01*
X134309523Y-126190476D01*
X134214285Y-126238095D01*
X159107142Y-139072857D02*
X159154761Y-139120476D01*
X159202380Y-139263333D01*
X159202380Y-139358571D01*
X159154761Y-139501428D01*
X159059523Y-139596666D01*
X158964285Y-139644285D01*
X158773809Y-139691904D01*
X158630952Y-139691904D01*
X158440476Y-139644285D01*
X158345238Y-139596666D01*
X158250000Y-139501428D01*
X158202380Y-139358571D01*
X158202380Y-139263333D01*
X158250000Y-139120476D01*
X158297619Y-139072857D01*
X159202380Y-138120476D02*
X159202380Y-138691904D01*
X159202380Y-138406190D02*
X158202380Y-138406190D01*
X158345238Y-138501428D01*
X158440476Y-138596666D01*
X158488095Y-138691904D01*
X158535714Y-137263333D02*
X159202380Y-137263333D01*
X158154761Y-137501428D02*
X158869047Y-137739523D01*
X158869047Y-137120476D01*
X161127142Y-114487142D02*
X161079523Y-114534761D01*
X160936666Y-114582380D01*
X160841428Y-114582380D01*
X160698571Y-114534761D01*
X160603333Y-114439523D01*
X160555714Y-114344285D01*
X160508095Y-114153809D01*
X160508095Y-114010952D01*
X160555714Y-113820476D01*
X160603333Y-113725238D01*
X160698571Y-113630000D01*
X160841428Y-113582380D01*
X160936666Y-113582380D01*
X161079523Y-113630000D01*
X161127142Y-113677619D01*
X162079523Y-114582380D02*
X161508095Y-114582380D01*
X161793809Y-114582380D02*
X161793809Y-113582380D01*
X161698571Y-113725238D01*
X161603333Y-113820476D01*
X161508095Y-113868095D01*
X162936666Y-113582380D02*
X162746190Y-113582380D01*
X162650952Y-113630000D01*
X162603333Y-113677619D01*
X162508095Y-113820476D01*
X162460476Y-114010952D01*
X162460476Y-114391904D01*
X162508095Y-114487142D01*
X162555714Y-114534761D01*
X162650952Y-114582380D01*
X162841428Y-114582380D01*
X162936666Y-114534761D01*
X162984285Y-114487142D01*
X163031904Y-114391904D01*
X163031904Y-114153809D01*
X162984285Y-114058571D01*
X162936666Y-114010952D01*
X162841428Y-113963333D01*
X162650952Y-113963333D01*
X162555714Y-114010952D01*
X162508095Y-114058571D01*
X162460476Y-114153809D01*
X161647142Y-139072857D02*
X161694761Y-139120476D01*
X161742380Y-139263333D01*
X161742380Y-139358571D01*
X161694761Y-139501428D01*
X161599523Y-139596666D01*
X161504285Y-139644285D01*
X161313809Y-139691904D01*
X161170952Y-139691904D01*
X160980476Y-139644285D01*
X160885238Y-139596666D01*
X160790000Y-139501428D01*
X160742380Y-139358571D01*
X160742380Y-139263333D01*
X160790000Y-139120476D01*
X160837619Y-139072857D01*
X161742380Y-138120476D02*
X161742380Y-138691904D01*
X161742380Y-138406190D02*
X160742380Y-138406190D01*
X160885238Y-138501428D01*
X160980476Y-138596666D01*
X161028095Y-138691904D01*
X160742380Y-137215714D02*
X160742380Y-137691904D01*
X161218571Y-137739523D01*
X161170952Y-137691904D01*
X161123333Y-137596666D01*
X161123333Y-137358571D01*
X161170952Y-137263333D01*
X161218571Y-137215714D01*
X161313809Y-137168095D01*
X161551904Y-137168095D01*
X161647142Y-137215714D01*
X161694761Y-137263333D01*
X161742380Y-137358571D01*
X161742380Y-137596666D01*
X161694761Y-137691904D01*
X161647142Y-137739523D01*
X150325606Y-137069890D02*
X150325606Y-136069890D01*
X150563702Y-136069890D01*
X150706559Y-136117510D01*
X150801797Y-136212748D01*
X150849416Y-136307986D01*
X150897035Y-136498462D01*
X150897035Y-136641319D01*
X150849416Y-136831795D01*
X150801797Y-136927033D01*
X150706559Y-137022271D01*
X150563702Y-137069890D01*
X150325606Y-137069890D01*
X151277987Y-136165129D02*
X151325606Y-136117510D01*
X151420844Y-136069890D01*
X151658940Y-136069890D01*
X151754178Y-136117510D01*
X151801797Y-136165129D01*
X151849416Y-136260367D01*
X151849416Y-136355605D01*
X151801797Y-136498462D01*
X151230368Y-137069890D01*
X151849416Y-137069890D01*
X149693333Y-112117142D02*
X149645714Y-112164761D01*
X149502857Y-112212380D01*
X149407619Y-112212380D01*
X149264761Y-112164761D01*
X149169523Y-112069523D01*
X149121904Y-111974285D01*
X149074285Y-111783809D01*
X149074285Y-111640952D01*
X149121904Y-111450476D01*
X149169523Y-111355238D01*
X149264761Y-111260000D01*
X149407619Y-111212380D01*
X149502857Y-111212380D01*
X149645714Y-111260000D01*
X149693333Y-111307619D01*
X150026666Y-111212380D02*
X150645714Y-111212380D01*
X150312380Y-111593333D01*
X150455238Y-111593333D01*
X150550476Y-111640952D01*
X150598095Y-111688571D01*
X150645714Y-111783809D01*
X150645714Y-112021904D01*
X150598095Y-112117142D01*
X150550476Y-112164761D01*
X150455238Y-112212380D01*
X150169523Y-112212380D01*
X150074285Y-112164761D01*
X150026666Y-112117142D01*
X151010352Y-130780781D02*
X150677019Y-130304591D01*
X150438923Y-130780781D02*
X150438923Y-129780781D01*
X150819876Y-129780781D01*
X150915114Y-129828401D01*
X150962733Y-129876020D01*
X151010352Y-129971258D01*
X151010352Y-130114115D01*
X150962733Y-130209353D01*
X150915114Y-130256972D01*
X150819876Y-130304591D01*
X150438923Y-130304591D01*
X151962733Y-130780781D02*
X151391304Y-130780781D01*
X151677019Y-130780781D02*
X151677019Y-129780781D01*
X151581780Y-129923639D01*
X151486542Y-130018877D01*
X151391304Y-130066496D01*
X121277142Y-132437142D02*
X121229523Y-132484761D01*
X121086666Y-132532380D01*
X120991428Y-132532380D01*
X120848571Y-132484761D01*
X120753333Y-132389523D01*
X120705714Y-132294285D01*
X120658095Y-132103809D01*
X120658095Y-131960952D01*
X120705714Y-131770476D01*
X120753333Y-131675238D01*
X120848571Y-131580000D01*
X120991428Y-131532380D01*
X121086666Y-131532380D01*
X121229523Y-131580000D01*
X121277142Y-131627619D01*
X122229523Y-132532380D02*
X121658095Y-132532380D01*
X121943809Y-132532380D02*
X121943809Y-131532380D01*
X121848571Y-131675238D01*
X121753333Y-131770476D01*
X121658095Y-131818095D01*
X123181904Y-132532380D02*
X122610476Y-132532380D01*
X122896190Y-132532380D02*
X122896190Y-131532380D01*
X122800952Y-131675238D01*
X122705714Y-131770476D01*
X122610476Y-131818095D01*
X164185524Y-139047551D02*
X164233143Y-139095170D01*
X164280762Y-139238027D01*
X164280762Y-139333265D01*
X164233143Y-139476122D01*
X164137905Y-139571360D01*
X164042667Y-139618979D01*
X163852191Y-139666598D01*
X163709334Y-139666598D01*
X163518858Y-139618979D01*
X163423620Y-139571360D01*
X163328382Y-139476122D01*
X163280762Y-139333265D01*
X163280762Y-139238027D01*
X163328382Y-139095170D01*
X163376001Y-139047551D01*
X164280762Y-138095170D02*
X164280762Y-138666598D01*
X164280762Y-138380884D02*
X163280762Y-138380884D01*
X163423620Y-138476122D01*
X163518858Y-138571360D01*
X163566477Y-138666598D01*
X163280762Y-137761836D02*
X163280762Y-137142789D01*
X163661715Y-137476122D01*
X163661715Y-137333265D01*
X163709334Y-137238027D01*
X163756953Y-137190408D01*
X163852191Y-137142789D01*
X164090286Y-137142789D01*
X164185524Y-137190408D01*
X164233143Y-137238027D01*
X164280762Y-137333265D01*
X164280762Y-137618979D01*
X164233143Y-137714217D01*
X164185524Y-137761836D01*
X131913333Y-132437142D02*
X131865714Y-132484761D01*
X131722857Y-132532380D01*
X131627619Y-132532380D01*
X131484761Y-132484761D01*
X131389523Y-132389523D01*
X131341904Y-132294285D01*
X131294285Y-132103809D01*
X131294285Y-131960952D01*
X131341904Y-131770476D01*
X131389523Y-131675238D01*
X131484761Y-131580000D01*
X131627619Y-131532380D01*
X131722857Y-131532380D01*
X131865714Y-131580000D01*
X131913333Y-131627619D01*
X132770476Y-131532380D02*
X132580000Y-131532380D01*
X132484761Y-131580000D01*
X132437142Y-131627619D01*
X132341904Y-131770476D01*
X132294285Y-131960952D01*
X132294285Y-132341904D01*
X132341904Y-132437142D01*
X132389523Y-132484761D01*
X132484761Y-132532380D01*
X132675238Y-132532380D01*
X132770476Y-132484761D01*
X132818095Y-132437142D01*
X132865714Y-132341904D01*
X132865714Y-132103809D01*
X132818095Y-132008571D01*
X132770476Y-131960952D01*
X132675238Y-131913333D01*
X132484761Y-131913333D01*
X132389523Y-131960952D01*
X132341904Y-132008571D01*
X132294285Y-132103809D01*
X147153333Y-84652380D02*
X146820000Y-84176190D01*
X146581904Y-84652380D02*
X146581904Y-83652380D01*
X146962857Y-83652380D01*
X147058095Y-83700000D01*
X147105714Y-83747619D01*
X147153333Y-83842857D01*
X147153333Y-83985714D01*
X147105714Y-84080952D01*
X147058095Y-84128571D01*
X146962857Y-84176190D01*
X146581904Y-84176190D01*
X147486666Y-83652380D02*
X148105714Y-83652380D01*
X147772380Y-84033333D01*
X147915238Y-84033333D01*
X148010476Y-84080952D01*
X148058095Y-84128571D01*
X148105714Y-84223809D01*
X148105714Y-84461904D01*
X148058095Y-84557142D01*
X148010476Y-84604761D01*
X147915238Y-84652380D01*
X147629523Y-84652380D01*
X147534285Y-84604761D01*
X147486666Y-84557142D01*
D12*
X158515000Y-126020000D02*
G75*
G03*
X158515000Y-126020000I-125000J0D01*
G01*
D13*
X141570000Y-105210000D02*
X141570000Y-108150000D01*
X146230000Y-105210000D02*
X140790000Y-105210000D01*
X146230000Y-108150000D02*
X146230000Y-105210000D01*
X147250000Y-106680000D02*
X146230000Y-106680000D01*
X140790000Y-108150000D02*
X146230000Y-108150000D01*
X141690000Y-105210000D02*
X141690000Y-108150000D01*
X141810000Y-105210000D02*
X141810000Y-108150000D01*
X140790000Y-105210000D02*
X140790000Y-108150000D01*
X139770000Y-106680000D02*
X140790000Y-106680000D01*
X151865000Y-87402936D02*
X151865000Y-87857064D01*
X150395000Y-87402936D02*
X150395000Y-87857064D01*
X136590000Y-117910000D02*
X136590000Y-116650000D01*
X140350000Y-111090000D02*
X136590000Y-111090000D01*
X136590000Y-111090000D02*
X136590000Y-112350000D01*
X142600000Y-117910000D02*
X136590000Y-117910000D01*
X130275000Y-134358748D02*
X130275000Y-134881252D01*
X128805000Y-134358748D02*
X128805000Y-134881252D01*
X127735000Y-134358748D02*
X127735000Y-134881252D01*
X126265000Y-134358748D02*
X126265000Y-134881252D01*
X151665000Y-114038748D02*
X151665000Y-114561252D01*
X153135000Y-114038748D02*
X153135000Y-114561252D01*
X130481000Y-116596000D02*
X130481000Y-122164000D01*
X128601000Y-120420000D02*
X128601000Y-123305000D01*
X127800000Y-115312000D02*
X127800000Y-123448000D01*
X127960000Y-115328000D02*
X127960000Y-123432000D01*
X130161000Y-116290000D02*
X130161000Y-118340000D01*
X129401000Y-115774000D02*
X129401000Y-118340000D01*
X128601000Y-115455000D02*
X128601000Y-118340000D01*
X129721000Y-120420000D02*
X129721000Y-122798000D01*
X130681000Y-116824000D02*
X130681000Y-121936000D01*
X128761000Y-120420000D02*
X128761000Y-123257000D01*
X130761000Y-116926000D02*
X130761000Y-121834000D01*
X130241000Y-116361000D02*
X130241000Y-118340000D01*
X127720000Y-115306000D02*
X127720000Y-123454000D01*
X128361000Y-120420000D02*
X128361000Y-123365000D01*
X130361000Y-116473000D02*
X130361000Y-122287000D01*
X128561000Y-120420000D02*
X128561000Y-123316000D01*
X130561000Y-116683000D02*
X130561000Y-122077000D01*
X130201000Y-116325000D02*
X130201000Y-118340000D01*
X129241000Y-120420000D02*
X129241000Y-123066000D01*
X128321000Y-120420000D02*
X128321000Y-123374000D01*
X131361000Y-118034000D02*
X131361000Y-120726000D01*
X130121000Y-116256000D02*
X130121000Y-118340000D01*
X128921000Y-115559000D02*
X128921000Y-118340000D01*
X128841000Y-115530000D02*
X128841000Y-118340000D01*
X130281000Y-116397000D02*
X130281000Y-122363000D01*
X129761000Y-115988000D02*
X129761000Y-118340000D01*
X129041000Y-115606000D02*
X129041000Y-118340000D01*
X129001000Y-115590000D02*
X129001000Y-118340000D01*
X131001000Y-117278000D02*
X131001000Y-121482000D01*
X128641000Y-115466000D02*
X128641000Y-118340000D01*
X130081000Y-116224000D02*
X130081000Y-118340000D01*
X123470302Y-116665000D02*
X123470302Y-117465000D01*
X129321000Y-115733000D02*
X129321000Y-118340000D01*
X128961000Y-115575000D02*
X128961000Y-118340000D01*
X129681000Y-115936000D02*
X129681000Y-118340000D01*
X131121000Y-117490000D02*
X131121000Y-121270000D01*
X128481000Y-120420000D02*
X128481000Y-123337000D01*
X129561000Y-120420000D02*
X129561000Y-122897000D01*
X128721000Y-115491000D02*
X128721000Y-118340000D01*
X130961000Y-117214000D02*
X130961000Y-121546000D01*
X128801000Y-120420000D02*
X128801000Y-123243000D01*
X129161000Y-115658000D02*
X129161000Y-118340000D01*
X130081000Y-120420000D02*
X130081000Y-122536000D01*
X130121000Y-120420000D02*
X130121000Y-122504000D01*
X128881000Y-115545000D02*
X128881000Y-118340000D01*
X130881000Y-117093000D02*
X130881000Y-121667000D01*
X128361000Y-115395000D02*
X128361000Y-118340000D01*
X131281000Y-117828000D02*
X131281000Y-120932000D01*
X129361000Y-120420000D02*
X129361000Y-123007000D01*
X128881000Y-120420000D02*
X128881000Y-123215000D01*
X129401000Y-120420000D02*
X129401000Y-122986000D01*
X128921000Y-120420000D02*
X128921000Y-123201000D01*
X129801000Y-116015000D02*
X129801000Y-118340000D01*
X129081000Y-120420000D02*
X129081000Y-123137000D01*
X129521000Y-120420000D02*
X129521000Y-122920000D01*
X129961000Y-120420000D02*
X129961000Y-122630000D01*
X131241000Y-117735000D02*
X131241000Y-121025000D01*
X128080000Y-115343000D02*
X128080000Y-123417000D01*
X131041000Y-117346000D02*
X131041000Y-121414000D01*
X129641000Y-120420000D02*
X129641000Y-122849000D01*
X127480000Y-115300000D02*
X127480000Y-123460000D01*
X128120000Y-115350000D02*
X128120000Y-123410000D01*
X128521000Y-115433000D02*
X128521000Y-118340000D01*
X130041000Y-120420000D02*
X130041000Y-122569000D01*
X127840000Y-115315000D02*
X127840000Y-123445000D01*
X129761000Y-120420000D02*
X129761000Y-122772000D01*
X127520000Y-115300000D02*
X127520000Y-123460000D01*
X129881000Y-116071000D02*
X129881000Y-118340000D01*
X129841000Y-120420000D02*
X129841000Y-122718000D01*
X128401000Y-120420000D02*
X128401000Y-123356000D01*
X128201000Y-115363000D02*
X128201000Y-118340000D01*
X127920000Y-115323000D02*
X127920000Y-123437000D01*
X131321000Y-117927000D02*
X131321000Y-120833000D01*
X128441000Y-120420000D02*
X128441000Y-123347000D01*
X129081000Y-115623000D02*
X129081000Y-118340000D01*
X130241000Y-120420000D02*
X130241000Y-122399000D01*
X128641000Y-120420000D02*
X128641000Y-123294000D01*
X128681000Y-120420000D02*
X128681000Y-123282000D01*
X131561000Y-118847000D02*
X131561000Y-119913000D01*
X131481000Y-118432000D02*
X131481000Y-120328000D01*
X130321000Y-116435000D02*
X130321000Y-122325000D01*
X129601000Y-115887000D02*
X129601000Y-118340000D01*
X128681000Y-115478000D02*
X128681000Y-118340000D01*
X130801000Y-116980000D02*
X130801000Y-121780000D01*
X129201000Y-120420000D02*
X129201000Y-123084000D01*
X130001000Y-116160000D02*
X130001000Y-118340000D01*
X128801000Y-115517000D02*
X128801000Y-118340000D01*
X129121000Y-120420000D02*
X129121000Y-123120000D01*
X130601000Y-116729000D02*
X130601000Y-122031000D01*
X129681000Y-120420000D02*
X129681000Y-122824000D01*
X128521000Y-120420000D02*
X128521000Y-123327000D01*
X127600000Y-115301000D02*
X127600000Y-123459000D01*
X129001000Y-120420000D02*
X129001000Y-123170000D01*
X130161000Y-120420000D02*
X130161000Y-122470000D01*
X127760000Y-115309000D02*
X127760000Y-123451000D01*
X130841000Y-117035000D02*
X130841000Y-121725000D01*
X129921000Y-116100000D02*
X129921000Y-118340000D01*
X130201000Y-120420000D02*
X130201000Y-122435000D01*
X128281000Y-115378000D02*
X128281000Y-118340000D01*
X128841000Y-120420000D02*
X128841000Y-123230000D01*
X128961000Y-120420000D02*
X128961000Y-123185000D01*
X130041000Y-116191000D02*
X130041000Y-118340000D01*
X129241000Y-115694000D02*
X129241000Y-118340000D01*
X129481000Y-120420000D02*
X129481000Y-122942000D01*
X131161000Y-117567000D02*
X131161000Y-121193000D01*
X130441000Y-116554000D02*
X130441000Y-122206000D01*
X128721000Y-120420000D02*
X128721000Y-123269000D01*
X130001000Y-120420000D02*
X130001000Y-122600000D01*
X129121000Y-115640000D02*
X129121000Y-118340000D01*
X129881000Y-120420000D02*
X129881000Y-122689000D01*
X127880000Y-115319000D02*
X127880000Y-123441000D01*
X129321000Y-120420000D02*
X129321000Y-123027000D01*
X129561000Y-115863000D02*
X129561000Y-118340000D01*
X128000000Y-115332000D02*
X128000000Y-123428000D01*
X128401000Y-115404000D02*
X128401000Y-118340000D01*
X127640000Y-115303000D02*
X127640000Y-123457000D01*
X130641000Y-116776000D02*
X130641000Y-121984000D01*
X129481000Y-115818000D02*
X129481000Y-118340000D01*
X131521000Y-118612000D02*
X131521000Y-120148000D01*
X127560000Y-115300000D02*
X127560000Y-123460000D01*
X128040000Y-115338000D02*
X128040000Y-123422000D01*
X129441000Y-120420000D02*
X129441000Y-122964000D01*
X128241000Y-115370000D02*
X128241000Y-118340000D01*
X128241000Y-120420000D02*
X128241000Y-123390000D01*
X129841000Y-116042000D02*
X129841000Y-118340000D01*
X129921000Y-120420000D02*
X129921000Y-122660000D01*
X128281000Y-120420000D02*
X128281000Y-123382000D01*
X129801000Y-120420000D02*
X129801000Y-122745000D01*
X128761000Y-115503000D02*
X128761000Y-118340000D01*
X131401000Y-118151000D02*
X131401000Y-120609000D01*
X128321000Y-115386000D02*
X128321000Y-118340000D01*
X129641000Y-115911000D02*
X129641000Y-118340000D01*
X130921000Y-117152000D02*
X130921000Y-121608000D01*
X128160000Y-115356000D02*
X128160000Y-123404000D01*
X130521000Y-116639000D02*
X130521000Y-122121000D01*
X129161000Y-120420000D02*
X129161000Y-123102000D01*
X129601000Y-120420000D02*
X129601000Y-122873000D01*
X129521000Y-115840000D02*
X129521000Y-118340000D01*
X123070302Y-117065000D02*
X123870302Y-117065000D01*
X129441000Y-115796000D02*
X129441000Y-118340000D01*
X130401000Y-116513000D02*
X130401000Y-122247000D01*
X128561000Y-115444000D02*
X128561000Y-118340000D01*
X129721000Y-115962000D02*
X129721000Y-118340000D01*
X129281000Y-115714000D02*
X129281000Y-118340000D01*
X131441000Y-118282000D02*
X131441000Y-120478000D01*
X129361000Y-115753000D02*
X129361000Y-118340000D01*
X130721000Y-116875000D02*
X130721000Y-121885000D01*
X128441000Y-115413000D02*
X128441000Y-118340000D01*
X129281000Y-120420000D02*
X129281000Y-123046000D01*
X127680000Y-115304000D02*
X127680000Y-123456000D01*
X131081000Y-117416000D02*
X131081000Y-121344000D01*
X131201000Y-117649000D02*
X131201000Y-121111000D01*
X129041000Y-120420000D02*
X129041000Y-123154000D01*
X129961000Y-116130000D02*
X129961000Y-118340000D01*
X128481000Y-115423000D02*
X128481000Y-118340000D01*
X128201000Y-120420000D02*
X128201000Y-123397000D01*
X129201000Y-115676000D02*
X129201000Y-118340000D01*
X131600000Y-119380000D02*
G75*
G03*
X131600000Y-119380000I-4120000J0D01*
G01*
X144253682Y-61441861D02*
X145013682Y-61441861D01*
X136633682Y-70431861D02*
X136633682Y-70101861D01*
X142473682Y-61441861D02*
X142473682Y-67441861D01*
X137393682Y-61441861D02*
X137393682Y-67441861D01*
X149333682Y-61441861D02*
X150093682Y-61441861D01*
X149333682Y-70498932D02*
X149333682Y-70101861D01*
X148443682Y-70101861D02*
X148443682Y-67441861D01*
X137173682Y-67441861D02*
X137173682Y-61441861D01*
X147553682Y-61441861D02*
X147553682Y-67441861D01*
X145903682Y-70101861D02*
X145903682Y-67441861D01*
X139173682Y-70498932D02*
X139173682Y-70101861D01*
X142473682Y-70498932D02*
X142473682Y-70101861D01*
X143363682Y-70101861D02*
X143363682Y-67441861D01*
X146793682Y-70498932D02*
X146793682Y-70101861D01*
X135683682Y-70101861D02*
X151043682Y-70101861D01*
X141713682Y-61441861D02*
X142473682Y-61441861D01*
X151043682Y-67441861D02*
X135683682Y-67441861D01*
X140823682Y-70101861D02*
X140823682Y-67441861D01*
X135683682Y-67441861D02*
X135683682Y-70101861D01*
X149333682Y-67441861D02*
X149333682Y-61441861D01*
X150093682Y-70498932D02*
X150093682Y-70101861D01*
X144253682Y-70498932D02*
X144253682Y-70101861D01*
X137393682Y-70431861D02*
X137393682Y-70101861D01*
X144253682Y-67441861D02*
X144253682Y-61441861D01*
X137293682Y-67441861D02*
X137293682Y-61441861D01*
X136813682Y-67441861D02*
X136813682Y-61441861D01*
X136693682Y-67441861D02*
X136693682Y-61441861D01*
X141713682Y-70498932D02*
X141713682Y-70101861D01*
X145013682Y-70498932D02*
X145013682Y-70101861D01*
X150093682Y-61441861D02*
X150093682Y-67441861D01*
X147553682Y-70498932D02*
X147553682Y-70101861D01*
X135743682Y-72811861D02*
X135743682Y-71541861D01*
X136633682Y-61441861D02*
X137393682Y-61441861D01*
X139173682Y-61441861D02*
X139933682Y-61441861D01*
X139933682Y-61441861D02*
X139933682Y-67441861D01*
X146793682Y-61441861D02*
X147553682Y-61441861D01*
X136933682Y-67441861D02*
X136933682Y-61441861D01*
X139933682Y-70498932D02*
X139933682Y-70101861D01*
X139173682Y-67441861D02*
X139173682Y-61441861D01*
X138283682Y-70101861D02*
X138283682Y-67441861D01*
X136633682Y-67441861D02*
X136633682Y-61441861D01*
X145013682Y-61441861D02*
X145013682Y-67441861D01*
X146793682Y-67441861D02*
X146793682Y-61441861D01*
X137053682Y-67441861D02*
X137053682Y-61441861D01*
X137013682Y-72811861D02*
X135743682Y-72811861D01*
X151043682Y-70101861D02*
X151043682Y-67441861D01*
X141713682Y-67441861D02*
X141713682Y-61441861D01*
X165635000Y-129801252D02*
X165635000Y-129278748D01*
X167105000Y-129801252D02*
X167105000Y-129278748D01*
X120650000Y-109220000D02*
X120650000Y-88900000D01*
X119380000Y-109220000D02*
X127000000Y-109220000D01*
X127000000Y-88900000D02*
X127000000Y-109220000D01*
X119380000Y-88900000D02*
X119380000Y-109220000D01*
X127000000Y-88900000D02*
X119380000Y-88900000D01*
D14*
X130010000Y-108900000D02*
X157010000Y-108900000D01*
X130010000Y-68900000D02*
X130010000Y-108900000D01*
X157010000Y-68900000D02*
X130010000Y-68900000D01*
X157010000Y-108900000D02*
X157010000Y-68900000D01*
X136080000Y-83640000D02*
X151080000Y-83640000D01*
X151080000Y-68900000D02*
X151080000Y-83640000D01*
X136080000Y-68900000D02*
X136080000Y-83640000D01*
D13*
X123725000Y-134358748D02*
X123725000Y-134881252D01*
X125195000Y-134358748D02*
X125195000Y-134881252D01*
X148590000Y-137160000D02*
X148590000Y-129540000D01*
X148590000Y-135890000D02*
X138430000Y-135890000D01*
X148590000Y-129540000D02*
X138430000Y-129540000D01*
X138430000Y-137160000D02*
X148590000Y-137160000D01*
X138430000Y-129540000D02*
X138430000Y-137160000D01*
X148055000Y-114038748D02*
X148055000Y-114561252D01*
X146585000Y-114038748D02*
X146585000Y-114561252D01*
X155475000Y-129801252D02*
X155475000Y-129278748D01*
X156945000Y-129801252D02*
X156945000Y-129278748D01*
X150531000Y-120612000D02*
X150531000Y-122150000D01*
X149731000Y-120172000D02*
X149731000Y-122150000D01*
X150331000Y-120474000D02*
X150331000Y-122150000D01*
X150891000Y-120925000D02*
X150891000Y-125455000D01*
X150251000Y-120424000D02*
X150251000Y-122150000D01*
X150411000Y-120526000D02*
X150411000Y-122150000D01*
X150211000Y-120400000D02*
X150211000Y-122150000D01*
X150091000Y-124230000D02*
X150091000Y-126046000D01*
X150131000Y-124230000D02*
X150131000Y-126024000D01*
X148570000Y-119960000D02*
X148570000Y-126420000D01*
X151491000Y-121758000D02*
X151491000Y-124622000D01*
X149250000Y-120031000D02*
X149250000Y-122150000D01*
X148650000Y-119960000D02*
X148650000Y-126420000D01*
X150011000Y-124230000D02*
X150011000Y-126086000D01*
X149411000Y-124230000D02*
X149411000Y-126311000D01*
X151691000Y-122250000D02*
X151691000Y-124130000D01*
X151131000Y-121195000D02*
X151131000Y-125185000D01*
X149010000Y-124230000D02*
X149010000Y-126391000D01*
X150371000Y-124230000D02*
X150371000Y-125880000D01*
X149451000Y-124230000D02*
X149451000Y-126300000D01*
X151091000Y-121146000D02*
X151091000Y-125234000D01*
X149851000Y-124230000D02*
X149851000Y-126160000D01*
X149571000Y-120116000D02*
X149571000Y-122150000D01*
X149411000Y-120069000D02*
X149411000Y-122150000D01*
X148970000Y-119984000D02*
X148970000Y-122150000D01*
X149130000Y-124230000D02*
X149130000Y-126372000D01*
X149531000Y-124230000D02*
X149531000Y-126276000D01*
X150731000Y-120774000D02*
X150731000Y-122150000D01*
X150571000Y-120642000D02*
X150571000Y-122150000D01*
X149451000Y-120080000D02*
X149451000Y-122150000D01*
X151291000Y-121414000D02*
X151291000Y-124966000D01*
X151531000Y-121840000D02*
X151531000Y-124540000D01*
X149651000Y-120143000D02*
X149651000Y-122150000D01*
X148890000Y-124230000D02*
X148890000Y-126405000D01*
X150611000Y-124230000D02*
X150611000Y-125706000D01*
X151811000Y-122788000D02*
X151811000Y-123592000D01*
X150011000Y-120294000D02*
X150011000Y-122150000D01*
X149771000Y-120188000D02*
X149771000Y-122150000D01*
X149611000Y-124230000D02*
X149611000Y-126251000D01*
X150691000Y-120740000D02*
X150691000Y-122150000D01*
X150971000Y-121008000D02*
X150971000Y-125372000D01*
X148770000Y-119966000D02*
X148770000Y-126414000D01*
X149491000Y-124230000D02*
X149491000Y-126288000D01*
X149771000Y-124230000D02*
X149771000Y-126192000D01*
X149971000Y-120274000D02*
X149971000Y-122150000D01*
X151571000Y-121928000D02*
X151571000Y-124452000D01*
X150451000Y-124230000D02*
X150451000Y-125826000D01*
X149090000Y-124230000D02*
X149090000Y-126379000D01*
X149291000Y-124230000D02*
X149291000Y-126340000D01*
X149130000Y-120008000D02*
X149130000Y-122150000D01*
X150731000Y-124230000D02*
X150731000Y-125606000D01*
X149050000Y-119995000D02*
X149050000Y-122150000D01*
X151171000Y-121246000D02*
X151171000Y-125134000D01*
X150451000Y-120554000D02*
X150451000Y-122150000D01*
X149651000Y-124230000D02*
X149651000Y-126237000D01*
X149891000Y-124230000D02*
X149891000Y-126142000D01*
X148610000Y-119960000D02*
X148610000Y-126420000D01*
X149050000Y-124230000D02*
X149050000Y-126385000D01*
X149371000Y-120059000D02*
X149371000Y-122150000D01*
X151771000Y-122557000D02*
X151771000Y-123823000D01*
X151211000Y-121300000D02*
X151211000Y-125080000D01*
X148850000Y-124230000D02*
X148850000Y-126408000D01*
X148930000Y-119979000D02*
X148930000Y-122150000D01*
X149691000Y-124230000D02*
X149691000Y-126223000D01*
X148850000Y-119972000D02*
X148850000Y-122150000D01*
X149571000Y-124230000D02*
X149571000Y-126264000D01*
X149210000Y-124230000D02*
X149210000Y-126357000D01*
X150571000Y-124230000D02*
X150571000Y-125738000D01*
X149170000Y-124230000D02*
X149170000Y-126365000D01*
X151371000Y-121540000D02*
X151371000Y-124840000D01*
X148930000Y-124230000D02*
X148930000Y-126401000D01*
X149731000Y-124230000D02*
X149731000Y-126208000D01*
X150491000Y-124230000D02*
X150491000Y-125797000D01*
X149331000Y-124230000D02*
X149331000Y-126331000D01*
X150851000Y-120885000D02*
X150851000Y-122150000D01*
X145069759Y-121351000D02*
X145699759Y-121351000D01*
X150811000Y-124230000D02*
X150811000Y-125533000D01*
X150171000Y-120378000D02*
X150171000Y-122150000D01*
X150211000Y-124230000D02*
X150211000Y-125980000D01*
X151651000Y-122131000D02*
X151651000Y-124249000D01*
X150371000Y-120500000D02*
X150371000Y-122150000D01*
X150131000Y-120356000D02*
X150131000Y-122150000D01*
X149210000Y-120023000D02*
X149210000Y-122150000D01*
X149291000Y-120040000D02*
X149291000Y-122150000D01*
X149891000Y-120238000D02*
X149891000Y-122150000D01*
X149691000Y-120157000D02*
X149691000Y-122150000D01*
X150611000Y-120674000D02*
X150611000Y-122150000D01*
X150291000Y-120448000D02*
X150291000Y-122150000D01*
X150651000Y-124230000D02*
X150651000Y-125674000D01*
X151051000Y-121098000D02*
X151051000Y-125282000D01*
X149331000Y-120049000D02*
X149331000Y-122150000D01*
X149250000Y-124230000D02*
X149250000Y-126349000D01*
X149010000Y-119989000D02*
X149010000Y-122150000D01*
X150051000Y-120314000D02*
X150051000Y-122150000D01*
X151731000Y-122388000D02*
X151731000Y-123992000D01*
X149971000Y-124230000D02*
X149971000Y-126106000D01*
X148690000Y-119962000D02*
X148690000Y-126418000D01*
X149931000Y-124230000D02*
X149931000Y-126124000D01*
X148810000Y-119968000D02*
X148810000Y-122150000D01*
X150771000Y-120810000D02*
X150771000Y-122150000D01*
X150291000Y-124230000D02*
X150291000Y-125932000D01*
X149811000Y-124230000D02*
X149811000Y-126176000D01*
X148970000Y-124230000D02*
X148970000Y-126396000D01*
X150811000Y-120847000D02*
X150811000Y-122150000D01*
X150851000Y-124230000D02*
X150851000Y-125495000D01*
X149371000Y-124230000D02*
X149371000Y-126321000D01*
X150411000Y-124230000D02*
X150411000Y-125854000D01*
X151011000Y-121053000D02*
X151011000Y-125327000D01*
X150651000Y-120706000D02*
X150651000Y-122150000D01*
X145384759Y-121036000D02*
X145384759Y-121666000D01*
X151411000Y-121609000D02*
X151411000Y-124771000D01*
X150931000Y-120966000D02*
X150931000Y-125414000D01*
X148810000Y-124230000D02*
X148810000Y-126412000D01*
X149851000Y-120220000D02*
X149851000Y-122150000D01*
X150331000Y-124230000D02*
X150331000Y-125906000D01*
X150051000Y-124230000D02*
X150051000Y-126066000D01*
X148890000Y-119975000D02*
X148890000Y-122150000D01*
X151331000Y-121476000D02*
X151331000Y-124904000D01*
X150171000Y-124230000D02*
X150171000Y-126002000D01*
X150491000Y-120583000D02*
X150491000Y-122150000D01*
X148730000Y-119963000D02*
X148730000Y-126417000D01*
X150531000Y-124230000D02*
X150531000Y-125768000D01*
X149811000Y-120204000D02*
X149811000Y-122150000D01*
X151251000Y-121356000D02*
X151251000Y-125024000D01*
X149531000Y-120104000D02*
X149531000Y-122150000D01*
X151611000Y-122025000D02*
X151611000Y-124355000D01*
X149090000Y-120001000D02*
X149090000Y-122150000D01*
X149931000Y-120256000D02*
X149931000Y-122150000D01*
X150251000Y-124230000D02*
X150251000Y-125956000D01*
X149170000Y-120015000D02*
X149170000Y-122150000D01*
X149491000Y-120092000D02*
X149491000Y-122150000D01*
X150771000Y-124230000D02*
X150771000Y-125570000D01*
X150091000Y-120334000D02*
X150091000Y-122150000D01*
X151451000Y-121681000D02*
X151451000Y-124699000D01*
X149611000Y-120129000D02*
X149611000Y-122150000D01*
X150691000Y-124230000D02*
X150691000Y-125640000D01*
X151840000Y-123190000D02*
G75*
G03*
X151840000Y-123190000I-3270000J0D01*
G01*
X135829000Y-122150000D02*
X135829000Y-120034000D01*
X137589000Y-127184000D02*
X137589000Y-124230000D01*
X135389000Y-125931000D02*
X135389000Y-120449000D01*
X137469000Y-127157000D02*
X137469000Y-124230000D01*
X135429000Y-125974000D02*
X135429000Y-120406000D01*
X134869000Y-125224000D02*
X134869000Y-121156000D01*
X137229000Y-127092000D02*
X137229000Y-124230000D01*
X137389000Y-127137000D02*
X137389000Y-124230000D01*
X136069000Y-122150000D02*
X136069000Y-119852000D01*
X135669000Y-126209000D02*
X135669000Y-124230000D01*
X137349000Y-127126000D02*
X137349000Y-124230000D01*
X134949000Y-125356000D02*
X134949000Y-121024000D01*
X135949000Y-122150000D02*
X135949000Y-119940000D01*
X135229000Y-125746000D02*
X135229000Y-120634000D01*
X135789000Y-122150000D02*
X135789000Y-120066000D01*
X136869000Y-126964000D02*
X136869000Y-124230000D01*
X136869000Y-122150000D02*
X136869000Y-119416000D01*
X138310000Y-127269000D02*
X138310000Y-119111000D01*
X136229000Y-126634000D02*
X136229000Y-124230000D01*
X135269000Y-125794000D02*
X135269000Y-120586000D01*
X142439698Y-125905000D02*
X142439698Y-125105000D01*
X137309000Y-127115000D02*
X137309000Y-124230000D01*
X137429000Y-122150000D02*
X137429000Y-119233000D01*
X134549000Y-124536000D02*
X134549000Y-121844000D01*
X137910000Y-127238000D02*
X137910000Y-119142000D01*
X137269000Y-122150000D02*
X137269000Y-119276000D01*
X135189000Y-125695000D02*
X135189000Y-120685000D01*
X137629000Y-122150000D02*
X137629000Y-119188000D01*
X135509000Y-126057000D02*
X135509000Y-120323000D01*
X137109000Y-127053000D02*
X137109000Y-124230000D01*
X136509000Y-126796000D02*
X136509000Y-124230000D01*
X137349000Y-122150000D02*
X137349000Y-119254000D01*
X138270000Y-127267000D02*
X138270000Y-119113000D01*
X137509000Y-127166000D02*
X137509000Y-124230000D01*
X142839698Y-125505000D02*
X142039698Y-125505000D01*
X136949000Y-122150000D02*
X136949000Y-119385000D01*
X137029000Y-127025000D02*
X137029000Y-124230000D01*
X135469000Y-126016000D02*
X135469000Y-120364000D01*
X137629000Y-127192000D02*
X137629000Y-124230000D01*
X137069000Y-122150000D02*
X137069000Y-119340000D01*
X136629000Y-126856000D02*
X136629000Y-124230000D01*
X136309000Y-126683000D02*
X136309000Y-124230000D01*
X136989000Y-127011000D02*
X136989000Y-124230000D01*
X137790000Y-127220000D02*
X137790000Y-119160000D01*
X134349000Y-123723000D02*
X134349000Y-122657000D01*
X136149000Y-126582000D02*
X136149000Y-124230000D01*
X138190000Y-127264000D02*
X138190000Y-119116000D01*
X136109000Y-126555000D02*
X136109000Y-124230000D01*
X137309000Y-122150000D02*
X137309000Y-119265000D01*
X135749000Y-122150000D02*
X135749000Y-120100000D01*
X137870000Y-127232000D02*
X137870000Y-119148000D01*
X136069000Y-126528000D02*
X136069000Y-124230000D01*
X136349000Y-122150000D02*
X136349000Y-119673000D01*
X134429000Y-124138000D02*
X134429000Y-122242000D01*
X137189000Y-127079000D02*
X137189000Y-124230000D01*
X134909000Y-125292000D02*
X134909000Y-121088000D01*
X136669000Y-122150000D02*
X136669000Y-119504000D01*
X136749000Y-126912000D02*
X136749000Y-124230000D01*
X137750000Y-127214000D02*
X137750000Y-119166000D01*
X137069000Y-127040000D02*
X137069000Y-124230000D01*
X135949000Y-126440000D02*
X135949000Y-124230000D01*
X136429000Y-122150000D02*
X136429000Y-119628000D01*
X134989000Y-125418000D02*
X134989000Y-120962000D01*
X136549000Y-122150000D02*
X136549000Y-119563000D01*
X135909000Y-126410000D02*
X135909000Y-124230000D01*
X137029000Y-122150000D02*
X137029000Y-119355000D01*
X134389000Y-123958000D02*
X134389000Y-122422000D01*
X138390000Y-127270000D02*
X138390000Y-119110000D01*
X135029000Y-125477000D02*
X135029000Y-120903000D01*
X135829000Y-126346000D02*
X135829000Y-124230000D01*
X138030000Y-127251000D02*
X138030000Y-119129000D01*
X136829000Y-126947000D02*
X136829000Y-124230000D01*
X137709000Y-122150000D02*
X137709000Y-119173000D01*
X136189000Y-126608000D02*
X136189000Y-124230000D01*
X138230000Y-127266000D02*
X138230000Y-119114000D01*
X136309000Y-122150000D02*
X136309000Y-119697000D01*
X137509000Y-122150000D02*
X137509000Y-119214000D01*
X136469000Y-126774000D02*
X136469000Y-124230000D01*
X137149000Y-122150000D02*
X137149000Y-119313000D01*
X135989000Y-126470000D02*
X135989000Y-124230000D01*
X134669000Y-124835000D02*
X134669000Y-121545000D01*
X134749000Y-125003000D02*
X134749000Y-121377000D01*
X136789000Y-126930000D02*
X136789000Y-124230000D01*
X135869000Y-126379000D02*
X135869000Y-124230000D01*
X137830000Y-127227000D02*
X137830000Y-119153000D01*
X137990000Y-127247000D02*
X137990000Y-119133000D01*
X135549000Y-126097000D02*
X135549000Y-120283000D01*
X137549000Y-127175000D02*
X137549000Y-124230000D01*
X136949000Y-126995000D02*
X136949000Y-124230000D01*
X135709000Y-122150000D02*
X135709000Y-120135000D01*
X136149000Y-122150000D02*
X136149000Y-119798000D01*
X136469000Y-122150000D02*
X136469000Y-119606000D01*
X135309000Y-125841000D02*
X135309000Y-120539000D01*
X136589000Y-122150000D02*
X136589000Y-119543000D01*
X136669000Y-126876000D02*
X136669000Y-124230000D01*
X138070000Y-127255000D02*
X138070000Y-119125000D01*
X136909000Y-122150000D02*
X136909000Y-119400000D01*
X134709000Y-124921000D02*
X134709000Y-121459000D01*
X136909000Y-126980000D02*
X136909000Y-124230000D01*
X137469000Y-122150000D02*
X137469000Y-119223000D01*
X138150000Y-127261000D02*
X138150000Y-119119000D01*
X136709000Y-126894000D02*
X136709000Y-124230000D01*
X137149000Y-127067000D02*
X137149000Y-124230000D01*
X136029000Y-126499000D02*
X136029000Y-124230000D01*
X135149000Y-125644000D02*
X135149000Y-120736000D01*
X136989000Y-122150000D02*
X136989000Y-119369000D01*
X138350000Y-127270000D02*
X138350000Y-119110000D01*
X136029000Y-122150000D02*
X136029000Y-119881000D01*
X135069000Y-125535000D02*
X135069000Y-120845000D01*
X136749000Y-122150000D02*
X136749000Y-119468000D01*
X136349000Y-126707000D02*
X136349000Y-124230000D01*
X136509000Y-122150000D02*
X136509000Y-119584000D01*
X135669000Y-122150000D02*
X135669000Y-120171000D01*
X138430000Y-127270000D02*
X138430000Y-119110000D01*
X135909000Y-122150000D02*
X135909000Y-119970000D01*
X137589000Y-122150000D02*
X137589000Y-119196000D01*
X137950000Y-127242000D02*
X137950000Y-119138000D01*
X136389000Y-126730000D02*
X136389000Y-124230000D01*
X134589000Y-124643000D02*
X134589000Y-121737000D01*
X134509000Y-124419000D02*
X134509000Y-121961000D01*
X136789000Y-122150000D02*
X136789000Y-119450000D01*
X137669000Y-122150000D02*
X137669000Y-119180000D01*
X137669000Y-127200000D02*
X137669000Y-124230000D01*
X134829000Y-125154000D02*
X134829000Y-121226000D01*
X134629000Y-124742000D02*
X134629000Y-121638000D01*
X137389000Y-122150000D02*
X137389000Y-119243000D01*
X137229000Y-122150000D02*
X137229000Y-119288000D01*
X135709000Y-126245000D02*
X135709000Y-124230000D01*
X138110000Y-127258000D02*
X138110000Y-119122000D01*
X136109000Y-122150000D02*
X136109000Y-119825000D01*
X135589000Y-126135000D02*
X135589000Y-120245000D01*
X136269000Y-126659000D02*
X136269000Y-124230000D01*
X136549000Y-126817000D02*
X136549000Y-124230000D01*
X135789000Y-126314000D02*
X135789000Y-124230000D01*
X136589000Y-126837000D02*
X136589000Y-124230000D01*
X136189000Y-122150000D02*
X136189000Y-119772000D01*
X137189000Y-122150000D02*
X137189000Y-119301000D01*
X136629000Y-122150000D02*
X136629000Y-119524000D01*
X136269000Y-122150000D02*
X136269000Y-119721000D01*
X135629000Y-126173000D02*
X135629000Y-120207000D01*
X136429000Y-126752000D02*
X136429000Y-124230000D01*
X135109000Y-125590000D02*
X135109000Y-120790000D01*
X137269000Y-127104000D02*
X137269000Y-124230000D01*
X135749000Y-126280000D02*
X135749000Y-124230000D01*
X136829000Y-122150000D02*
X136829000Y-119433000D01*
X137709000Y-127207000D02*
X137709000Y-124230000D01*
X135349000Y-125887000D02*
X135349000Y-120493000D01*
X136229000Y-122150000D02*
X136229000Y-119746000D01*
X134789000Y-125080000D02*
X134789000Y-121300000D01*
X137429000Y-127147000D02*
X137429000Y-124230000D01*
X137109000Y-122150000D02*
X137109000Y-119327000D01*
X134469000Y-124288000D02*
X134469000Y-122092000D01*
X136709000Y-122150000D02*
X136709000Y-119486000D01*
X137549000Y-122150000D02*
X137549000Y-119205000D01*
X135869000Y-122150000D02*
X135869000Y-120001000D01*
X135989000Y-122150000D02*
X135989000Y-119910000D01*
X136389000Y-122150000D02*
X136389000Y-119650000D01*
X142550000Y-123190000D02*
G75*
G03*
X142550000Y-123190000I-4120000J0D01*
G01*
X158015000Y-134358748D02*
X158015000Y-134881252D01*
X159485000Y-134358748D02*
X159485000Y-134881252D01*
X161930000Y-115303000D02*
X161930000Y-123457000D01*
X164411000Y-120420000D02*
X164411000Y-122504000D01*
X163371000Y-115623000D02*
X163371000Y-118340000D01*
X165451000Y-117567000D02*
X165451000Y-121193000D01*
X162771000Y-120420000D02*
X162771000Y-123337000D01*
X164331000Y-120420000D02*
X164331000Y-122569000D01*
X164771000Y-116596000D02*
X164771000Y-122164000D01*
X165691000Y-118151000D02*
X165691000Y-120609000D01*
X164171000Y-120420000D02*
X164171000Y-122689000D01*
X161810000Y-115300000D02*
X161810000Y-123460000D01*
X162851000Y-115444000D02*
X162851000Y-118340000D01*
X162010000Y-115306000D02*
X162010000Y-123454000D01*
X162170000Y-115319000D02*
X162170000Y-123441000D01*
X163531000Y-115694000D02*
X163531000Y-118340000D01*
X163651000Y-115753000D02*
X163651000Y-118340000D01*
X164291000Y-120420000D02*
X164291000Y-122600000D01*
X164851000Y-116683000D02*
X164851000Y-122077000D01*
X164451000Y-120420000D02*
X164451000Y-122470000D01*
X163971000Y-120420000D02*
X163971000Y-122824000D01*
X164371000Y-116224000D02*
X164371000Y-118340000D01*
X165291000Y-117278000D02*
X165291000Y-121482000D01*
X164411000Y-116256000D02*
X164411000Y-118340000D01*
X162971000Y-120420000D02*
X162971000Y-123282000D01*
X164091000Y-116015000D02*
X164091000Y-118340000D01*
X162971000Y-115478000D02*
X162971000Y-118340000D01*
X165331000Y-117346000D02*
X165331000Y-121414000D01*
X164091000Y-120420000D02*
X164091000Y-122745000D01*
X162811000Y-115433000D02*
X162811000Y-118340000D01*
X162491000Y-120420000D02*
X162491000Y-123397000D01*
X162691000Y-120420000D02*
X162691000Y-123356000D01*
X163491000Y-120420000D02*
X163491000Y-123084000D01*
X165131000Y-117035000D02*
X165131000Y-121725000D01*
X162130000Y-115315000D02*
X162130000Y-123445000D01*
X162330000Y-115338000D02*
X162330000Y-123422000D01*
X164051000Y-120420000D02*
X164051000Y-122772000D01*
X162731000Y-120420000D02*
X162731000Y-123347000D01*
X165531000Y-117735000D02*
X165531000Y-121025000D01*
X163691000Y-115774000D02*
X163691000Y-118340000D01*
X164251000Y-116130000D02*
X164251000Y-118340000D01*
X164371000Y-120420000D02*
X164371000Y-122536000D01*
X162370000Y-115343000D02*
X162370000Y-123417000D01*
X162891000Y-115455000D02*
X162891000Y-118340000D01*
X161970000Y-115304000D02*
X161970000Y-123456000D01*
X163011000Y-115491000D02*
X163011000Y-118340000D01*
X164571000Y-116397000D02*
X164571000Y-122363000D01*
X162931000Y-120420000D02*
X162931000Y-123294000D01*
X163411000Y-120420000D02*
X163411000Y-123120000D01*
X165731000Y-118282000D02*
X165731000Y-120478000D01*
X157360302Y-117065000D02*
X158160302Y-117065000D01*
X164531000Y-116361000D02*
X164531000Y-118340000D01*
X162450000Y-115356000D02*
X162450000Y-123404000D01*
X162931000Y-115466000D02*
X162931000Y-118340000D01*
X165091000Y-116980000D02*
X165091000Y-121780000D01*
X163771000Y-115818000D02*
X163771000Y-118340000D01*
X162531000Y-115370000D02*
X162531000Y-118340000D01*
X164891000Y-116729000D02*
X164891000Y-122031000D01*
X163571000Y-115714000D02*
X163571000Y-118340000D01*
X165411000Y-117490000D02*
X165411000Y-121270000D01*
X163651000Y-120420000D02*
X163651000Y-123007000D01*
X164011000Y-115962000D02*
X164011000Y-118340000D01*
X157760302Y-116665000D02*
X157760302Y-117465000D01*
X163371000Y-120420000D02*
X163371000Y-123137000D01*
X164211000Y-120420000D02*
X164211000Y-122660000D01*
X165651000Y-118034000D02*
X165651000Y-120726000D01*
X165011000Y-116875000D02*
X165011000Y-121885000D01*
X163251000Y-120420000D02*
X163251000Y-123185000D01*
X164491000Y-116325000D02*
X164491000Y-118340000D01*
X164131000Y-120420000D02*
X164131000Y-122718000D01*
X164051000Y-115988000D02*
X164051000Y-118340000D01*
X163411000Y-115640000D02*
X163411000Y-118340000D01*
X164971000Y-116824000D02*
X164971000Y-121936000D01*
X163491000Y-115676000D02*
X163491000Y-118340000D01*
X162571000Y-120420000D02*
X162571000Y-123382000D01*
X165211000Y-117152000D02*
X165211000Y-121608000D01*
X163691000Y-120420000D02*
X163691000Y-122986000D01*
X162050000Y-115309000D02*
X162050000Y-123451000D01*
X163291000Y-115590000D02*
X163291000Y-118340000D01*
X164731000Y-116554000D02*
X164731000Y-122206000D01*
X163291000Y-120420000D02*
X163291000Y-123170000D01*
X163091000Y-120420000D02*
X163091000Y-123243000D01*
X165051000Y-116926000D02*
X165051000Y-121834000D01*
X165251000Y-117214000D02*
X165251000Y-121546000D01*
X163091000Y-115517000D02*
X163091000Y-118340000D01*
X163931000Y-120420000D02*
X163931000Y-122849000D01*
X163171000Y-115545000D02*
X163171000Y-118340000D01*
X163211000Y-115559000D02*
X163211000Y-118340000D01*
X163011000Y-120420000D02*
X163011000Y-123269000D01*
X163331000Y-115606000D02*
X163331000Y-118340000D01*
X165811000Y-118612000D02*
X165811000Y-120148000D01*
X165851000Y-118847000D02*
X165851000Y-119913000D01*
X163131000Y-120420000D02*
X163131000Y-123230000D01*
X162651000Y-115395000D02*
X162651000Y-118340000D01*
X161770000Y-115300000D02*
X161770000Y-123460000D01*
X164331000Y-116191000D02*
X164331000Y-118340000D01*
X163811000Y-115840000D02*
X163811000Y-118340000D01*
X162731000Y-115413000D02*
X162731000Y-118340000D01*
X163131000Y-115530000D02*
X163131000Y-118340000D01*
X161850000Y-115300000D02*
X161850000Y-123460000D01*
X163211000Y-120420000D02*
X163211000Y-123201000D01*
X165771000Y-118432000D02*
X165771000Y-120328000D01*
X162531000Y-120420000D02*
X162531000Y-123390000D01*
X163851000Y-120420000D02*
X163851000Y-122897000D01*
X162771000Y-115423000D02*
X162771000Y-118340000D01*
X164451000Y-116290000D02*
X164451000Y-118340000D01*
X164611000Y-116435000D02*
X164611000Y-122325000D01*
X162611000Y-120420000D02*
X162611000Y-123374000D01*
X165571000Y-117828000D02*
X165571000Y-120932000D01*
X162491000Y-115363000D02*
X162491000Y-118340000D01*
X165611000Y-117927000D02*
X165611000Y-120833000D01*
X162691000Y-115404000D02*
X162691000Y-118340000D01*
X161890000Y-115301000D02*
X161890000Y-123459000D01*
X163811000Y-120420000D02*
X163811000Y-122920000D01*
X164931000Y-116776000D02*
X164931000Y-121984000D01*
X162851000Y-120420000D02*
X162851000Y-123316000D01*
X163891000Y-120420000D02*
X163891000Y-122873000D01*
X162250000Y-115328000D02*
X162250000Y-123432000D01*
X164651000Y-116473000D02*
X164651000Y-122287000D01*
X164131000Y-116042000D02*
X164131000Y-118340000D01*
X164251000Y-120420000D02*
X164251000Y-122630000D01*
X163891000Y-115887000D02*
X163891000Y-118340000D01*
X163571000Y-120420000D02*
X163571000Y-123046000D01*
X163251000Y-115575000D02*
X163251000Y-118340000D01*
X165491000Y-117649000D02*
X165491000Y-121111000D01*
X163931000Y-115911000D02*
X163931000Y-118340000D01*
X163051000Y-120420000D02*
X163051000Y-123257000D01*
X163731000Y-120420000D02*
X163731000Y-122964000D01*
X162290000Y-115332000D02*
X162290000Y-123428000D01*
X164691000Y-116513000D02*
X164691000Y-122247000D01*
X163731000Y-115796000D02*
X163731000Y-118340000D01*
X163451000Y-115658000D02*
X163451000Y-118340000D01*
X163531000Y-120420000D02*
X163531000Y-123066000D01*
X163771000Y-120420000D02*
X163771000Y-122942000D01*
X165371000Y-117416000D02*
X165371000Y-121344000D01*
X164491000Y-120420000D02*
X164491000Y-122435000D01*
X163451000Y-120420000D02*
X163451000Y-123102000D01*
X162090000Y-115312000D02*
X162090000Y-123448000D01*
X164531000Y-120420000D02*
X164531000Y-122399000D01*
X163611000Y-115733000D02*
X163611000Y-118340000D01*
X162571000Y-115378000D02*
X162571000Y-118340000D01*
X165171000Y-117093000D02*
X165171000Y-121667000D01*
X164011000Y-120420000D02*
X164011000Y-122798000D01*
X162811000Y-120420000D02*
X162811000Y-123327000D01*
X163331000Y-120420000D02*
X163331000Y-123154000D01*
X163851000Y-115863000D02*
X163851000Y-118340000D01*
X163171000Y-120420000D02*
X163171000Y-123215000D01*
X162611000Y-115386000D02*
X162611000Y-118340000D01*
X162891000Y-120420000D02*
X162891000Y-123305000D01*
X162651000Y-120420000D02*
X162651000Y-123365000D01*
X163971000Y-115936000D02*
X163971000Y-118340000D01*
X164811000Y-116639000D02*
X164811000Y-122121000D01*
X163611000Y-120420000D02*
X163611000Y-123027000D01*
X162410000Y-115350000D02*
X162410000Y-123410000D01*
X164171000Y-116071000D02*
X164171000Y-118340000D01*
X163051000Y-115503000D02*
X163051000Y-118340000D01*
X162210000Y-115323000D02*
X162210000Y-123437000D01*
X164291000Y-116160000D02*
X164291000Y-118340000D01*
X164211000Y-116100000D02*
X164211000Y-118340000D01*
X165890000Y-119380000D02*
G75*
G03*
X165890000Y-119380000I-4120000J0D01*
G01*
D12*
X124225000Y-126020000D02*
G75*
G03*
X124225000Y-126020000I-125000J0D01*
G01*
D13*
X162025000Y-134358748D02*
X162025000Y-134881252D01*
X160555000Y-134358748D02*
X160555000Y-134881252D01*
X152130000Y-133660000D02*
X149270000Y-133660000D01*
X149270000Y-133660000D02*
X149270000Y-135580000D01*
X149270000Y-135580000D02*
X152130000Y-135580000D01*
X150595000Y-114038748D02*
X150595000Y-114561252D01*
X149125000Y-114038748D02*
X149125000Y-114561252D01*
X150902936Y-132815000D02*
X151357064Y-132815000D01*
X150902936Y-131345000D02*
X151357064Y-131345000D01*
X121185000Y-129801252D02*
X121185000Y-129278748D01*
X122655000Y-129801252D02*
X122655000Y-129278748D01*
X164565000Y-134358748D02*
X164565000Y-134881252D01*
X163095000Y-134358748D02*
X163095000Y-134881252D01*
X131345000Y-129801252D02*
X131345000Y-129278748D01*
X132815000Y-129801252D02*
X132815000Y-129278748D01*
X160020000Y-109220000D02*
X167640000Y-109220000D01*
X167640000Y-88900000D02*
X160020000Y-88900000D01*
X160020000Y-109220000D02*
X160020000Y-88900000D01*
X167640000Y-109220000D02*
X167640000Y-88900000D01*
X166370000Y-88900000D02*
X166370000Y-109220000D01*
X147547064Y-83285000D02*
X147092936Y-83285000D01*
X147547064Y-81815000D02*
X147092936Y-81815000D01*
%LPC*%
D15*
X168910000Y-137160000D03*
D16*
X158790000Y-126770000D03*
X158790000Y-127270000D03*
X158790000Y-127770000D03*
X158790000Y-128270000D03*
X158790000Y-128770000D03*
X158790000Y-129270000D03*
X158790000Y-129770000D03*
D17*
X159790000Y-130770000D03*
X160290000Y-130770000D03*
X160790000Y-130770000D03*
X161290000Y-130770000D03*
X161790000Y-130770000D03*
X162290000Y-130770000D03*
X162790000Y-130770000D03*
D16*
X163790000Y-129770000D03*
X163790000Y-129270000D03*
X163790000Y-128770000D03*
X163790000Y-128270000D03*
X163790000Y-127770000D03*
X163790000Y-127270000D03*
X163790000Y-126770000D03*
D17*
X162790000Y-125770000D03*
X162290000Y-125770000D03*
X161790000Y-125770000D03*
X161290000Y-125770000D03*
X160790000Y-125770000D03*
X160290000Y-125770000D03*
X159790000Y-125770000D03*
D18*
X161290000Y-128270000D03*
D19*
X138430000Y-106680000D03*
D20*
X148590000Y-106680000D03*
D21*
X151130000Y-86630000D03*
X151130000Y-88630000D03*
D22*
X141650000Y-116800000D03*
X141650000Y-114500000D03*
D23*
X135350000Y-114500000D03*
D22*
X141650000Y-112200000D03*
D24*
X129540000Y-133582500D03*
X129540000Y-135657500D03*
X127000000Y-133582500D03*
X127000000Y-135657500D03*
X152400000Y-113262500D03*
X152400000Y-115337500D03*
D15*
X118110000Y-71120000D03*
D25*
X125730000Y-119380000D03*
D26*
X129230000Y-119380000D03*
D27*
X137013682Y-71541861D03*
D28*
X139553682Y-71541861D03*
X142093682Y-71541861D03*
X144633682Y-71541861D03*
X147173682Y-71541861D03*
X149713682Y-71541861D03*
D29*
X166370000Y-130577500D03*
X166370000Y-128502500D03*
D30*
X123190000Y-91440000D03*
D31*
X123190000Y-96520000D03*
X123190000Y-101600000D03*
X123190000Y-106680000D03*
D32*
X132080000Y-91260000D03*
X132080000Y-88720000D03*
X132080000Y-86180000D03*
X132080000Y-83640000D03*
X132080000Y-81100000D03*
X132080000Y-78560000D03*
X132080000Y-76020000D03*
D33*
X132080000Y-73480000D03*
X154940000Y-73480000D03*
D32*
X154940000Y-76020000D03*
X154940000Y-78560000D03*
X154940000Y-81100000D03*
X154940000Y-83640000D03*
X154940000Y-86180000D03*
X154940000Y-88720000D03*
X154940000Y-91260000D03*
D15*
X118110000Y-137160000D03*
D24*
X124460000Y-133582500D03*
X124460000Y-135657500D03*
D30*
X140970000Y-133350000D03*
D31*
X146050000Y-133350000D03*
D24*
X147320000Y-113262500D03*
X147320000Y-115337500D03*
D29*
X156210000Y-130577500D03*
X156210000Y-128502500D03*
D25*
X147320000Y-123190000D03*
D26*
X149820000Y-123190000D03*
D25*
X140180000Y-123190000D03*
D26*
X136680000Y-123190000D03*
D15*
X168910000Y-71120000D03*
D24*
X158750000Y-133582500D03*
X158750000Y-135657500D03*
D25*
X160020000Y-119380000D03*
D26*
X163520000Y-119380000D03*
D16*
X124500000Y-126770000D03*
X124500000Y-127270000D03*
X124500000Y-127770000D03*
X124500000Y-128270000D03*
X124500000Y-128770000D03*
X124500000Y-129270000D03*
X124500000Y-129770000D03*
D17*
X125500000Y-130770000D03*
X126000000Y-130770000D03*
X126500000Y-130770000D03*
X127000000Y-130770000D03*
X127500000Y-130770000D03*
X128000000Y-130770000D03*
X128500000Y-130770000D03*
D16*
X129500000Y-129770000D03*
X129500000Y-129270000D03*
X129500000Y-128770000D03*
X129500000Y-128270000D03*
X129500000Y-127770000D03*
X129500000Y-127270000D03*
X129500000Y-126770000D03*
D17*
X128500000Y-125770000D03*
X128000000Y-125770000D03*
X127500000Y-125770000D03*
X127000000Y-125770000D03*
X126500000Y-125770000D03*
X126000000Y-125770000D03*
X125500000Y-125770000D03*
D18*
X127000000Y-128270000D03*
D24*
X161290000Y-133582500D03*
X161290000Y-135657500D03*
D34*
X150105000Y-134620000D03*
X152155000Y-134620000D03*
D24*
X149860000Y-113262500D03*
X149860000Y-115337500D03*
D35*
X150130000Y-132080000D03*
X152130000Y-132080000D03*
D29*
X121920000Y-130577500D03*
X121920000Y-128502500D03*
D24*
X163830000Y-133582500D03*
X163830000Y-135657500D03*
D29*
X132080000Y-130577500D03*
X132080000Y-128502500D03*
D30*
X163830000Y-106680000D03*
D31*
X163830000Y-101600000D03*
X163830000Y-96520000D03*
X163830000Y-91440000D03*
D36*
X148320000Y-82550000D03*
X146320000Y-82550000D03*
M02*
