%TF.GenerationSoftware,KiCad,Pcbnew,(6.0.8)*%
%TF.CreationDate,2022-12-02T13:55:46+01:00*%
%TF.ProjectId,xy-systeem,78792d73-7973-4746-9565-6d2e6b696361,rev?*%
%TF.SameCoordinates,Original*%
%TF.FileFunction,Drillmap*%
%TF.FilePolarity,Positive*%
%FSLAX45Y45*%
G04 Gerber Fmt 4.5, Leading zero omitted, Abs format (unit mm)*
G04 Created by KiCad (PCBNEW (6.0.8)) date 2022-12-02 13:55:46*
%MOMM*%
%LPD*%
G01*
G04 APERTURE LIST*
%ADD10C,0.200000*%
G04 APERTURE END LIST*
D10*
X11430000Y-14097000D02*
X17272000Y-14097000D01*
X17272000Y-14097000D02*
X17272000Y-6731000D01*
X17272000Y-6731000D02*
X11430000Y-6731000D01*
X11430000Y-6731000D02*
X11430000Y-14097000D01*
X11677619Y-14417476D02*
X11677619Y-14217476D01*
X11725238Y-14217476D01*
X11753809Y-14227000D01*
X11772857Y-14246048D01*
X11782381Y-14265095D01*
X11791905Y-14303190D01*
X11791905Y-14331762D01*
X11782381Y-14369857D01*
X11772857Y-14388905D01*
X11753809Y-14407952D01*
X11725238Y-14417476D01*
X11677619Y-14417476D01*
X11877619Y-14417476D02*
X11877619Y-14284143D01*
X11877619Y-14322238D02*
X11887143Y-14303190D01*
X11896667Y-14293667D01*
X11915714Y-14284143D01*
X11934762Y-14284143D01*
X12001428Y-14417476D02*
X12001428Y-14284143D01*
X12001428Y-14217476D02*
X11991905Y-14227000D01*
X12001428Y-14236524D01*
X12010952Y-14227000D01*
X12001428Y-14217476D01*
X12001428Y-14236524D01*
X12125238Y-14417476D02*
X12106190Y-14407952D01*
X12096667Y-14388905D01*
X12096667Y-14217476D01*
X12230000Y-14417476D02*
X12210952Y-14407952D01*
X12201428Y-14388905D01*
X12201428Y-14217476D01*
X12458571Y-14417476D02*
X12458571Y-14217476D01*
X12525238Y-14360333D01*
X12591905Y-14217476D01*
X12591905Y-14417476D01*
X12772857Y-14417476D02*
X12772857Y-14312714D01*
X12763333Y-14293667D01*
X12744286Y-14284143D01*
X12706190Y-14284143D01*
X12687143Y-14293667D01*
X12772857Y-14407952D02*
X12753809Y-14417476D01*
X12706190Y-14417476D01*
X12687143Y-14407952D01*
X12677619Y-14388905D01*
X12677619Y-14369857D01*
X12687143Y-14350809D01*
X12706190Y-14341286D01*
X12753809Y-14341286D01*
X12772857Y-14331762D01*
X12868095Y-14284143D02*
X12868095Y-14484143D01*
X12868095Y-14293667D02*
X12887143Y-14284143D01*
X12925238Y-14284143D01*
X12944286Y-14293667D01*
X12953809Y-14303190D01*
X12963333Y-14322238D01*
X12963333Y-14379381D01*
X12953809Y-14398428D01*
X12944286Y-14407952D01*
X12925238Y-14417476D01*
X12887143Y-14417476D01*
X12868095Y-14407952D01*
X13049048Y-14398428D02*
X13058571Y-14407952D01*
X13049048Y-14417476D01*
X13039524Y-14407952D01*
X13049048Y-14398428D01*
X13049048Y-14417476D01*
X13049048Y-14293667D02*
X13058571Y-14303190D01*
X13049048Y-14312714D01*
X13039524Y-14303190D01*
X13049048Y-14293667D01*
X13049048Y-14312714D01*
M02*
